<?xml version="1.0" standalone="no"?>
<!DOCTYPE svg PUBLIC "-//W3C//DTD SVG 1.1//EN" "http://www.w3.org/Graphics/SVG/1.1/DTD/svg11.dtd" >
<svg xmlns="http://www.w3.org/2000/svg" xmlns:xlink="http://www.w3.org/1999/xlink" version="1.1">
<metadata>
Created by FontForge 20170731 at Mon Oct  5 18:09:07 2020
 By Aleksey,,,
Copyright (c) 2008 by NORM, Dimitri Bruni, Manuel Krebs. www.lineto.com. All rights reserved.
</metadata>
<defs>
<font id="Replica-Bold" horiz-adv-x="1187" >
  <font-face 
    font-family="Replica-Bold"
    font-weight="400"
    font-stretch="normal"
    units-per-em="2048"
    panose-1="2 0 5 3 3 0 0 2 0 4"
    ascent="1618"
    descent="-430"
    x-height="1024"
    cap-height="1434"
    bbox="-102 -430 3195 1843"
    underline-thickness="40"
    underline-position="-347"
    unicode-range="U+000D-FB04"
  />
<missing-glyph horiz-adv-x="1351" 
d="M1188 20l-21 -20h-983l-20 20v1393l20 21h983l21 -21v-1393zM225 1352v-1270l21 -21h860l20 21v1270l-20 20h-860z" />
    <glyph glyph-name="uniFB00" unicode="ff" horiz-adv-x="1515" 
d="M758 1434l20 -21v-205l-20 -20h-164q-62 0 -62 -62v-82l21 -20h369l20 20v82q0 81 28 142.5t77.5 96.5t110 52t132.5 17h164l21 -21v-205l-21 -20h-164q-61 0 -61 -62v-82l20 -20h185l20 -20v-205l-20 -21h-185l-20 -20v-738l-21 -20h-245l-21 20v738l-20 20h-369
l-21 -20v-738l-20 -20h-246l-20 20v738l-21 20h-143l-21 21v205l21 20h143l21 20v82q0 81 28 142.5t77.5 96.5t110 52t132.5 17h164z" />
    <glyph glyph-name="fi" unicode="fi" horiz-adv-x="1351" 
d="M1229 1208l-21 -20h-245l-21 20v205l21 21h245l21 -21v-205zM553 1024h655l21 -20v-984l-21 -20h-245l-21 20v738l-20 20h-369l-21 -20v-738l-20 -20h-246l-20 20v738l-21 20h-143l-21 21v205l21 20h143l21 20v82q0 81 28 142.5t77.5 96.5t110 52t132.5 17h164l20 -21
v-205l-20 -20h-164q-62 0 -62 -62v-82z" />
    <glyph glyph-name="fl" unicode="fl" horiz-adv-x="1351" 
d="M553 1024h369l20 20v369l21 21h245l21 -21v-1393l-21 -20h-245l-21 20v738l-20 20h-369l-21 -20v-738l-20 -20h-246l-20 20v738l-21 20h-143l-21 21v205l21 20h143l21 20v82q0 81 28 142.5t77.5 96.5t110 52t132.5 17h164l20 -21v-205l-20 -20h-164q-62 0 -62 -62v-82z
" />
    <glyph glyph-name="uniFB03" unicode="ffi" horiz-adv-x="2048" 
d="M758 1434l20 -21v-205l-20 -20h-164q-62 0 -62 -62v-82l21 -20h369l20 20v82q0 81 28 142.5t77.5 96.5t110 52t132.5 17h164l21 -21v-205l-21 -20h-164q-61 0 -61 -62v-82l20 -20h656l20 -20v-984l-20 -20h-246l-21 20v738l-20 20h-369l-20 -20v-738l-21 -20h-245l-21 20
v738l-20 20h-369l-21 -20v-738l-20 -20h-246l-20 20v738l-21 20h-143l-21 21v205l21 20h143l21 20v82q0 81 28 142.5t77.5 96.5t110 52t132.5 17h164zM1925 1208l-20 -20h-246l-21 20v205l21 21h246l20 -21v-205z" />
    <glyph glyph-name="uniFB04" unicode="ffl" horiz-adv-x="2048" 
d="M758 1434l20 -21v-205l-20 -20h-164q-62 0 -62 -62v-82l21 -20h369l20 20v82q0 81 28 142.5t77.5 96.5t110 52t132.5 17h164l21 -21v-205l-21 -20h-164q-61 0 -61 -62v-82l20 -20h369l20 20v369l21 21h246l20 -21v-1393l-20 -20h-246l-21 20v738l-20 20h-369l-20 -20
v-738l-21 -20h-245l-21 20v738l-20 20h-369l-21 -20v-738l-20 -20h-246l-20 20v738l-21 20h-143l-21 21v205l21 20h143l21 20v82q0 81 28 142.5t77.5 96.5t110 52t132.5 17h164z" />
    <glyph glyph-name=".notdef" horiz-adv-x="1351" 
d="M1188 20l-21 -20h-983l-20 20v1393l20 21h983l21 -21v-1393zM225 1352v-1270l21 -21h860l20 21v1270l-20 20h-860z" />
    <glyph glyph-name=".null" horiz-adv-x="0" 
 />
    <glyph glyph-name=".null" horiz-adv-x="0" 
 />
    <glyph glyph-name="nonmarkingreturn" horiz-adv-x="682" 
 />
    <glyph glyph-name="CR" unicode="&#xd;" horiz-adv-x="0" 
 />
    <glyph glyph-name="space" unicode=" " horiz-adv-x="532" 
 />
    <glyph glyph-name="exclam" unicode="!" horiz-adv-x="819" 
d="M553 963l-41 -471l-20 -21h-164l-21 21l-41 471v450l21 21h245l21 -21v-450zM573 20l-20 -20h-287l-20 20v267l20 20h287l20 -20v-267z" />
    <glyph glyph-name="quotedbl" unicode="&#x22;" horiz-adv-x="1105" 
d="M942 819l-20 -20h-246l-21 20v594l21 21h246l20 -21v-594zM451 819l-21 -20h-246l-20 20v594l20 21h246l21 -21v-594z" />
    <glyph glyph-name="numbersign" unicode="#" horiz-adv-x="1331" 
d="M1167 430l-20 -20h-184l-21 -21l-102 -369l-21 -20h-143l-21 20v205l41 164l-20 21h-184l-21 -21l-102 -369l-21 -20h-143l-21 20v205l41 164l-20 21h-123l-21 20v164l21 20h184l21 21l41 164l-21 20h-123l-20 21v164l20 20h185l20 20l103 369l20 21h143l21 -21v-205
l-41 -164l20 -20h185l20 20l103 369l20 21h143l21 -21v-205l-41 -164l20 -20h123l21 -20v-164l-21 -21h-184l-21 -20l-40 -164l20 -21h123l20 -20v-164zM573 799l-41 -164l21 -21h184l21 21l41 164l-21 20h-184z" />
    <glyph glyph-name="dollar" unicode="$" horiz-adv-x="1351" 
d="M1270 410q0 -79 -28 -148.5t-84 -127.5t-147.5 -98.5t-211.5 -55.5l-21 -21v-123l-20 -20h-164l-21 20v123l-20 21q-226 30 -348.5 156.5t-122.5 314.5l20 20h246l21 -20q0 -94 46.5 -152.5t137.5 -73.5l20 21v368l-20 21q-107 25 -184 56.5t-140 81t-95 122.5t-32 170
q0 89 38.5 161t103.5 118.5t143.5 74t165.5 35.5l20 21v122l21 21h164l20 -21v-122l21 -21q191 -32 300 -141.5t109 -288.5l-20 -20h-246l-20 20q0 74 -29.5 111t-93.5 53l-21 -21v-286l21 -21q471 -94 471 -450zM983 410q0 85 -48.5 126t-135.5 58l-21 -21v-327l21 -21
q81 16 132.5 64t51.5 121zM389 1065q0 -124 164 -164l20 21v266l-20 20q-34 0 -70 -13.5t-65 -48t-29 -81.5z" />
    <glyph glyph-name="percent" unicode="%" horiz-adv-x="1925" 
d="M451 676q-179 0 -274 107t-95 282t95 282t274 107t273.5 -107t94.5 -282t-94.5 -282t-273.5 -107zM348 1065q0 -164 103 -164q102 0 102 164t-102 164q-103 0 -103 -164zM1434 1208l-779 -1188l-20 -20h-123l-20 20v205l778 1188l20 21h123l21 -21v-205zM1475 -20
q-179 0 -274 107t-95 282t95 282t274 107t273.5 -107t94.5 -282t-94.5 -282t-273.5 -107zM1372 369q0 -164 103 -164q102 0 102 164q0 163 -102 163q-103 0 -103 -163z" />
    <glyph glyph-name="ampersand" unicode="&#x26;" horiz-adv-x="1556" 
d="M1413 20l-20 -20h-103l-41 20l-102 103h-21q-178 -143 -450 -143q-126 0 -226 35t-161 95.5t-93 137t-32 162.5q0 71 16.5 131t41 101.5t62 77t71 57t75.5 42.5v21q-123 123 -123 266q0 149 103.5 248.5t306.5 99.5q95 0 169 -30.5t115.5 -80.5t62.5 -105t21 -112
q0 -117 -52.5 -199.5t-151.5 -148.5v-20l225 -226h20q20 39 29 81.5t10.5 76.5t1.5 109l21 20h225l21 -20q0 -88 -2 -134.5t-11 -112.5t-31 -119t-59 -105v-21l82 -82v-205zM819 1106q0 102 -123 102q-60 0 -91.5 -27.5t-31.5 -74.5q0 -41 23.5 -74.5t79.5 -89.5h20
q31 21 46.5 32.5t36.5 33t30.5 45.5t9.5 53zM942 307v21l-307 307h-21q-91 -45 -127 -96t-36 -129q0 -79 60.5 -132t164.5 -53q184 0 266 82z" />
    <glyph glyph-name="quotesingle" unicode="'" horiz-adv-x="614" 
d="M451 819l-21 -20h-246l-20 20v594l20 21h246l21 -21v-594z" />
    <glyph glyph-name="parenleft" unicode="(" horiz-adv-x="921" 
d="M164 512q0 122 1 183.5t23.5 142t39.5 116t87 122t126 143t194 194.5l41 21h61l21 -21v-205l-97 -97t-71.5 -77.5t-56 -69.5t-35.5 -65.5t-26.5 -71.5t-12 -82t-8 -103.5t-0.5 -129.5t0.5 -129.5t8 -103.5t12 -82t26.5 -71.5t35.5 -65.5t56 -69.5t71.5 -77.5l97 -97v-205
l-21 -21h-61l-41 21q-138 138 -194 194.5t-126 143t-87 122t-39.5 116t-23.5 142t-1 183.5z" />
    <glyph glyph-name="parenright" unicode=")" horiz-adv-x="921" 
d="M758 512q0 -122 -1 -183.5t-23.5 -142t-39.5 -116t-87 -122t-126 -143t-194 -194.5l-41 -21h-62l-20 21v205l97 97t71.5 77.5t56 69.5t35.5 65.5t26.5 71.5t12 82t8 103.5t0.5 129.5t-0.5 129.5t-8 103.5t-12 82t-26.5 71.5t-35.5 65.5t-56 69.5t-71.5 77.5l-97 97v205
l20 21h62l41 -21q138 -138 194 -194.5t126 -143t87 -122t39.5 -116t23.5 -142t1 -183.5z" />
    <glyph glyph-name="asterisk" unicode="*" horiz-adv-x="1208" 
d="M614 553h-20l-21 20v328h-20l-225 -225h-21l-20 20v21l225 225v21h-328l-20 20v21l20 20h328v20l-225 226v20l20 21h21l225 -226h20v328l21 21h20l21 -21v-328h20l226 226h20l21 -21v-20l-226 -226v-20h328l20 -20v-21l-20 -20h-328v-21l226 -225v-21l-21 -20h-20
l-226 225h-20v-328z" />
    <glyph glyph-name="plus" unicode="+" horiz-adv-x="1269" 
d="M1147 410l-21 -21h-348l-20 -20v-349l-21 -20h-205l-20 20v349l-20 20h-349l-20 21v204l20 21h349l20 20v349l20 20h205l21 -20v-349l20 -20h348l21 -21v-204z" />
    <glyph glyph-name="comma" unicode="," horiz-adv-x="655" 
d="M492 0l-21 -61l-164 -205l-41 -21h-123v41l123 205v21l-20 20h-62l-20 20v267l20 20h287l21 -20v-287z" />
    <glyph glyph-name="hyphen" unicode="-" horiz-adv-x="880" 
d="M758 430l-21 -20h-594l-20 20v205l20 20h594l21 -20v-205z" />
    <glyph glyph-name="period" unicode="." horiz-adv-x="655" 
d="M492 20l-21 -20h-287l-20 20v267l20 20h287l21 -20v-267z" />
    <glyph glyph-name="slash" unicode="/" horiz-adv-x="1044" 
d="M963 1208l-697 -1188l-20 -20h-144l-20 20v205l696 1188l21 21h143l21 -21v-205z" />
    <glyph glyph-name="zero" unicode="0" horiz-adv-x="1228" 
d="M82 717q0 194 39.5 338.5t112 230.5t167.5 127t213 41t213 -41t168 -127t112.5 -230.5t39.5 -338.5t-39.5 -338.5t-112.5 -230.5t-168 -127t-213 -41t-213 41t-167.5 127t-112 230.5t-39.5 338.5zM369 717q0 -182 27.5 -291.5t80 -155t137.5 -45.5t137.5 45.5t80.5 155
t28 291.5t-28 291t-80.5 154.5t-137.5 45.5t-137.5 -45.5t-80 -154.5t-27.5 -291z" />
    <glyph glyph-name="one" unicode="1" horiz-adv-x="839" 
d="M655 0h-245l-21 20v1045h-20l-164 -164h-103l-20 21v204l287 287l41 21h245l21 -21v-1393z" />
    <glyph glyph-name="two" unicode="2" horiz-adv-x="1167" 
d="M1085 20l-20 -20h-963l-20 20v226l20 41l369 307q122 102 184.5 172t82.5 121t20 117q0 95 -47.5 149.5t-137.5 54.5q-116 0 -160 -51.5t-44 -152.5l-21 -21h-246l-20 21q0 70 15.5 133t51.5 122t91 101.5t140.5 68t192.5 25.5q112 0 202.5 -35.5t148.5 -95.5t89 -137
t31 -162q0 -111 -38 -200.5t-108 -166t-202 -186.5l-245 -205v-20h614l20 -21v-205z" />
    <glyph glyph-name="three" unicode="3" horiz-adv-x="1167" 
d="M1085 471q0 -101 -35 -189t-100 -156t-167.5 -107t-229.5 -39q-119 0 -214.5 35t-155 93t-91 130.5t-31.5 150.5l21 21h246l20 -21q0 -68 52 -116t153 -48q119 0 182.5 67.5t63.5 178.5q0 120 -55 183t-150 63q-36 0 -67 -10.5t-43 -20.5l-13 -10h-102l-21 20v185
l287 286v21h-492l-20 20v205l20 21h840l21 -21v-205l-21 -41l-266 -245v-21q69 0 135 -30.5t118 -84.5t83.5 -136.5t31.5 -178.5z" />
    <glyph glyph-name="four" unicode="4" horiz-adv-x="1167" 
d="M1004 20l-21 -20h-246l-20 20v369l-21 21h-635l-20 20v225l20 41l615 717l41 21h266l21 -21v-1393zM717 676v409h-21l-348 -409v-21h348z" />
    <glyph glyph-name="five" unicode="5" horiz-adv-x="1228" 
d="M1126 512q0 -252 -128.5 -392t-383.5 -140q-225 0 -350.5 109.5t-140.5 299.5l20 21h246l21 -21q15 -90 62.5 -127t141.5 -37q113 0 169.5 60t56.5 207q0 113 -51 179t-154 66q-71 0 -127 -26.5t-98 -96.5l-41 -20l-205 20l-21 21l41 778l21 21h839l21 -21v-205l-21 -20
h-573l-20 -21l-21 -286h21q2 4 7.5 11t26 24.5t45.5 31t69.5 24.5t96.5 11q195 0 312.5 -133.5t117.5 -337.5z" />
    <glyph glyph-name="six" unicode="6" horiz-adv-x="1208" 
d="M635 1208q-58 0 -101.5 -25t-66.5 -60t-36.5 -83.5t-17 -84.5t-3.5 -74h20q3 3 8 8.5t25.5 20t46 25t70 19.5t96.5 9q123 0 225 -57t163.5 -165.5t61.5 -248.5q0 -229 -137 -370.5t-354 -141.5q-286 0 -409.5 179.5t-123.5 557.5q0 171 32 305.5t96 231.5t166.5 148.5
t238.5 51.5q210 0 333 -95t138 -253l-21 -21h-245l-21 21q-11 33 -29.5 54t-57 34.5t-97.5 13.5zM840 471q0 113 -51 179.5t-154 66.5q-117 0 -171 -66t-54 -180t54 -180t171 -66q92 0 148.5 69t56.5 177z" />
    <glyph glyph-name="seven" unicode="7" horiz-adv-x="1085" 
d="M1024 1188l-573 -1168l-21 -20h-164l-20 20v205l471 942v21h-615l-20 20v205l20 21h902l20 -21v-225z" />
    <glyph glyph-name="eight" unicode="8" 
d="M369 430q0 -86 55.5 -145.5t169.5 -59.5t169.5 59.5t55.5 145.5q0 94 -59.5 149.5t-165.5 55.5t-165.5 -55.5t-59.5 -149.5zM410 1044q0 -80 47.5 -132t136.5 -52t136.5 52t47.5 132q0 25 -9 51.5t-28.5 53t-57.5 43t-89 16.5t-89 -16.5t-57.5 -43t-28.5 -53t-9 -51.5z
M82 430q0 125 55 208t129 120v20q-143 96 -143 287q0 78 31 147.5t89 123.5t148.5 86t202.5 32t202.5 -32t148.5 -86t89 -123.5t31 -147.5q0 -191 -143 -287v-20q74 -37 129 -120t55 -208q0 -87 -32 -166t-93 -143t-161 -102.5t-226 -38.5t-226 38.5t-161 102.5t-93 143
t-32 166z" />
    <glyph glyph-name="nine" unicode="9" horiz-adv-x="1208" 
d="M573 225q58 0 101.5 25t66.5 60.5t37 84t17.5 84.5t3.5 74h-21q-3 -3 -9.5 -8.5t-29.5 -20t-49.5 -25t-69 -19.5t-88.5 -9q-187 0 -318.5 140t-131.5 352q0 228 139.5 359.5t372.5 131.5q255 0 383.5 -182.5t128.5 -513.5q0 -395 -124 -586.5t-409 -191.5q-208 0 -321 94
t-129 254l20 20h246l21 -20q16 -50 53.5 -76.5t109.5 -26.5zM369 963q0 -120 54.5 -183t149.5 -63q117 0 171.5 66t54.5 180q0 129 -62 187t-164 58q-95 0 -149.5 -62.5t-54.5 -182.5z" />
    <glyph glyph-name="colon" unicode=":" horiz-adv-x="655" 
d="M492 737l-21 -20h-287l-20 20v267l20 20h287l21 -20v-267zM492 20l-21 -20h-287l-20 20v267l20 20h287l21 -20v-267z" />
    <glyph glyph-name="semicolon" unicode=";" horiz-adv-x="655" 
d="M492 737l-21 -20h-287l-20 20v267l20 20h287l21 -20v-267zM492 0l-21 -61l-164 -205l-41 -21h-123v41l123 205v21l-20 20h-62l-20 20v267l20 20h287l21 -20v-287z" />
    <glyph glyph-name="less" unicode="&#x3c;" 
d="M143 594l21 41l737 389h103l20 -20v-185l-20 -41l-512 -246v-40l512 -246l20 -41v-185l-20 -20h-103l-737 389l-21 41v164z" />
    <glyph glyph-name="equal" unicode="=" horiz-adv-x="1228" 
d="M1065 635l-21 -21h-860l-20 21v205l20 20h860l21 -20v-205zM1065 184l-21 -20h-860l-20 20v205l20 21h860l21 -21v-205z" />
    <glyph glyph-name="greater" unicode="&#x3e;" 
d="M1044 430l-20 -41l-737 -389h-103l-20 20v185l20 41l512 246v40l-512 246l-20 41v185l20 20h103l737 -389l20 -41v-164z" />
    <glyph glyph-name="question" unicode="?" horiz-adv-x="1310" 
d="M1147 1044q0 -127 -59 -212t-166 -156q-89 -60 -116.5 -100.5t-27.5 -104.5l-20 -20h-246l-20 20q0 205 184 328q99 66 141.5 119t42.5 126q0 68 -52 116t-153 48q-108 0 -156 -51.5t-48 -173.5l-21 -20h-246l-20 20q0 102 28.5 186t86 148.5t153.5 100.5t223 36t223 -32
t154 -89t86.5 -129.5t28.5 -159.5zM799 20l-21 -20h-286l-21 20v267l21 20h286l21 -20v-267z" />
    <glyph glyph-name="at" unicode="@" horiz-adv-x="1925" 
d="M963 758q-34 0 -61 -10t-51.5 -35.5t-38 -76t-13.5 -124.5t13.5 -124.5t38 -76t51.5 -35.5t61 -10t60.5 10t51 35.5t38 76t13.5 124.5t-13.5 124.5t-38 76t-51 35.5t-60.5 10zM1126 881l21 61l20 21h185l20 -21v-614q0 -103 82 -103q61 0 81.5 58.5t20.5 228.5
q0 141 -35.5 255.5t-106.5 200t-186 132.5t-265 47q-141 0 -256 -53t-187.5 -142t-111.5 -202t-39 -238q0 -132 39 -246.5t111.5 -201.5t187 -137t256.5 -50q194 0 348 62h41l20 -21v-164q-171 -102 -409 -102q-251 0 -443.5 112.5t-294.5 307.5t-102 440q0 189 62.5 350
t173 272.5t266.5 174.5t338 63q385 0 612 -231t227 -629q0 -253 -96 -372.5t-272 -119.5q-85 0 -148 35.5t-98 87.5h-21q-3 -4 -9.5 -11t-29.5 -24.5t-49 -31t-68.5 -24.5t-88.5 -11q-78 0 -147.5 31t-124 89t-86.5 148.5t-32 202.5q0 118 31.5 211t84.5 148.5t117.5 83.5
t135.5 28q40 0 76 -10.5t58.5 -25.5t39.5 -30t24 -25l7 -11h20z" />
    <glyph glyph-name="A" unicode="A" horiz-adv-x="1331" 
d="M1290 20l-20 -20h-185l-20 20l-102 267l-41 20h-512l-41 -20l-103 -267l-20 -20h-185l-20 20v205l471 1188l20 21h267l20 -21l471 -1188v-205zM860 573l-184 492h-21l-184 -492l21 -20h348z" />
    <glyph glyph-name="B" unicode="B" horiz-adv-x="1372" 
d="M1290 389q0 -103 -34.5 -181t-94 -122t-129.5 -65t-151 -21h-697l-20 20v1393l20 21h656q63 0 121 -12.5t111 -41t92 -70.5t62 -105t23 -140q0 -113 -51 -195.5t-154 -111.5v-21q122 -30 184 -119.5t62 -228.5zM963 1024q0 81 -38 122.5t-126 41.5h-328l-20 -21v-286
l20 -21h328q85 0 124.5 47t39.5 117zM1004 430q0 93 -49.5 138.5t-155.5 45.5h-328l-20 -20v-328l20 -20h328q106 0 155.5 45.5t49.5 138.5z" />
    <glyph glyph-name="C" unicode="C" horiz-adv-x="1454" 
d="M778 225q125 0 201 49.5t106 155.5l21 21h246l20 -21q-31 -214 -188.5 -332t-405.5 -118q-221 0 -379.5 95t-237.5 260t-79 382t79 382t237.5 260t379.5 95q246 0 404.5 -115t189.5 -315l-20 -20h-246l-21 20q-61 184 -307 184q-105 0 -184.5 -36t-128 -102t-72.5 -154.5
t-24 -198.5t24 -198.5t72.5 -155t128 -102.5t184.5 -36z" />
    <glyph glyph-name="D" unicode="D" horiz-adv-x="1413" 
d="M1331 717q0 -174 -37 -303t-118.5 -223.5t-216.5 -142.5t-324 -48h-451l-20 20v1393l20 21h451q189 0 324 -48t216.5 -142.5t118.5 -223.5t37 -303zM1044 717q0 250 -88.5 360.5t-300.5 110.5h-184l-20 -21v-901l20 -20h184q212 0 300.5 110.5t88.5 360.5z" />
    <glyph glyph-name="E" unicode="E" horiz-adv-x="1290" 
d="M1167 20l-20 -20h-963l-20 20v1393l20 21h963l20 -21v-205l-20 -20h-676l-20 -21v-286l20 -21h635l20 -20v-205l-20 -21h-635l-20 -20v-328l20 -20h676l20 -21v-205z" />
    <glyph glyph-name="F" unicode="F" horiz-adv-x="1208" 
d="M1126 1208l-20 -20h-635l-20 -21v-307l20 -20h594l20 -21v-205l-20 -20h-594l-20 -21v-553l-21 -20h-246l-20 20v1393l20 21h922l20 -21v-205z" />
    <glyph glyph-name="G" unicode="G" horiz-adv-x="1515" 
d="M1393 20l-21 -20h-184l-21 20l-20 103h-21q-19 -19 -33 -31.5t-49 -36t-71.5 -38t-93.5 -26t-121 -11.5q-202 0 -356 94.5t-237 261.5t-83 381q0 215 83.5 381.5t242.5 261t370 94.5q119 0 217 -25.5t165 -66.5t116.5 -98.5t76.5 -116t40 -123.5l-21 -20h-246l-20 20
q-15 31 -28 51.5t-40 48t-59 44t-84 28.5t-117 12q-195 0 -302 -135t-107 -356t107 -356.5t302 -135.5q162 0 245 79t83 208l-21 20h-348l-20 21v205l20 20h635l21 -20v-738z" />
    <glyph glyph-name="H" unicode="H" horiz-adv-x="1495" 
d="M1331 20l-20 -20h-246l-21 20v574l-20 20h-553l-20 -20v-574l-21 -20h-246l-20 20v1393l20 21h246l21 -21v-532l20 -21h553l20 21v532l21 21h246l20 -21v-1393z" />
    <glyph glyph-name="I" unicode="I" horiz-adv-x="614" 
d="M451 20l-21 -20h-246l-20 20v1393l20 21h246l21 -21v-1393z" />
    <glyph glyph-name="J" unicode="J" horiz-adv-x="1126" 
d="M963 1413v-962q0 -239 -124 -355t-347 -116q-95 0 -172.5 25t-128.5 67t-85.5 98.5t-49.5 116t-15 123.5v20l20 21h246l21 -21v-20q0 -84 38.5 -134.5t125.5 -50.5q86 0 135 45.5t49 159.5v983l20 21h246z" />
    <glyph glyph-name="K" unicode="K" horiz-adv-x="1310" 
d="M1270 20l-21 -20h-143l-41 20l-451 553h-20l-143 -143v-410l-21 -20h-246l-20 20v1393l20 21h246l21 -21v-594h20l594 594l41 21h102l21 -21v-205l-410 -409v-21l451 -553v-205z" />
    <glyph glyph-name="L" unicode="L" horiz-adv-x="1146" 
d="M1126 20l-20 -20h-922l-20 20v1393l20 21h246l21 -21v-1147l20 -20h635l20 -21v-205z" />
    <glyph glyph-name="M" unicode="M" horiz-adv-x="1863" 
d="M1700 20l-21 -20h-245l-21 20v799h-20l-328 -799l-21 -20h-225l-20 20l-328 799h-20v-799l-21 -20h-246l-20 20v1393l20 21h308l20 -21l410 -1003h20l410 1003l20 21h307l21 -21v-1393z" />
    <glyph glyph-name="N" unicode="N" horiz-adv-x="1536" 
d="M164 1413l20 21h287l41 -21l553 -942h20v942l21 21h246l20 -21v-1393l-20 -20h-287l-41 20l-553 943h-20v-943l-21 -20h-246l-20 20v1393z" />
    <glyph glyph-name="O" unicode="O" horiz-adv-x="1556" 
d="M1188 717q0 221 -107.5 356t-302.5 135t-302 -135t-107 -356t107 -356.5t302 -135.5t302.5 135.5t107.5 356.5zM1475 717q0 -160 -49 -296t-138 -233.5t-220 -152.5t-290 -55q-211 0 -370 94.5t-242.5 261t-83.5 381.5t83.5 381.5t242.5 261t370 94.5q159 0 290 -55
t220 -152.5t138 -233.5t49 -296z" />
    <glyph glyph-name="P" unicode="P" horiz-adv-x="1392" 
d="M1352 1004q0 -209 -134.5 -320t-357.5 -111h-389l-20 -20v-533l-21 -20h-246l-20 20v1393l20 21h676q223 0 357.5 -110.5t134.5 -319.5zM1065 1004q0 101 -52.5 142.5t-152.5 41.5h-389l-20 -21v-327l20 -21h389q99 0 152 41.5t53 143.5z" />
    <glyph glyph-name="Q" unicode="Q" horiz-adv-x="1556" 
d="M82 717q0 217 79 382t237.5 260t379.5 95q166 0 298.5 -54.5t219.5 -152.5t133 -233t46 -297q0 -225 -82 -389v-41l61 -62v-205l-20 -20h-144l-82 82h-20q-171 -102 -410 -102q-221 0 -379.5 95t-237.5 260t-79 382zM369 717q0 -110 24 -198.5t72.5 -155t128 -102.5
t184.5 -36q121 0 205 41v41l-164 164h-205l-20 21v184l20 20h349l41 -20l143 -144h20q21 64 21 185q0 110 -24 198.5t-73 154.5t-128.5 102t-184.5 36t-184.5 -36t-128 -102t-72.5 -154.5t-24 -198.5z" />
    <glyph glyph-name="R" unicode="R" horiz-adv-x="1433" 
d="M1352 1004q0 -161 -88.5 -269t-219.5 -141v-21l267 -348v-205l-21 -20h-123l-41 20l-409 533l-41 20h-205l-20 -20v-533l-21 -20h-246l-20 20v1393l20 21h676q223 0 357.5 -110.5t134.5 -319.5zM1065 1004q0 101 -52.5 142.5t-152.5 41.5h-389l-20 -21v-327l20 -21h389
q99 0 152 41.5t53 143.5z" />
    <glyph glyph-name="S" unicode="S" horiz-adv-x="1351" 
d="M1270 410q0 -88 -33.5 -163t-101.5 -136t-185.5 -96t-273.5 -35q-150 0 -265 36t-186 100t-107 148.5t-36 186.5l20 20h246l21 -20q0 -113 75 -169.5t252 -56.5q139 0 213 47t74 138q0 105 -75 149.5t-294 75.5q-115 16 -202 44.5t-160 77.5t-111.5 126.5t-38.5 181.5
q0 79 32.5 147.5t97.5 123.5t173.5 86.5t249.5 31.5q279 0 416 -117.5t137 -312.5l-20 -20h-246l-20 20q0 97 -62 140.5t-225 43.5q-246 0 -246 -143q0 -91 75.5 -132.5t293.5 -72.5q512 -73 512 -450z" />
    <glyph glyph-name="T" unicode="T" horiz-adv-x="1269" 
d="M1229 1208l-21 -20h-409l-21 -21v-1147l-20 -20h-246l-20 20v1147l-21 21h-410l-20 20v205l20 21h1147l21 -21v-205z" />
    <glyph glyph-name="U" unicode="U" horiz-adv-x="1474" 
d="M1311 1413v-860q0 -277 -148.5 -425t-425.5 -148t-425 148t-148 425v860l20 21h246l21 -21v-860q0 -328 286 -328q287 0 287 328v860l20 21h246z" />
    <glyph glyph-name="V" unicode="V" horiz-adv-x="1331" 
d="M1270 1208l-451 -1188l-20 -20h-267l-20 20l-451 1188v205l21 21h184l21 -21l368 -1003h21l368 1003l21 21h184l21 -21v-205z" />
    <glyph glyph-name="W" unicode="W" horiz-adv-x="1945" 
d="M840 1434h266l20 -21l267 -942h20l205 942l20 21h205l21 -21v-205l-308 -1188l-20 -20h-266l-21 20l-266 984h-20l-267 -984l-20 -20h-266l-21 20l-307 1188v205l20 21h205l21 -21l204 -942h21l266 942z" />
    <glyph glyph-name="X" unicode="X" horiz-adv-x="1372" 
d="M1290 20l-20 -20h-144l-41 20l-389 512h-20l-389 -512l-41 -20h-144l-20 20v205l410 512v21l-390 450v205l21 21h143l41 -21l369 -450h20l369 450l41 21h143l21 -21v-205l-389 -450v-21l409 -512v-205z" />
    <glyph glyph-name="Y" unicode="Y" horiz-adv-x="1228" 
d="M1167 1208l-409 -676v-512l-21 -20h-245l-21 20v512l-410 676v205l21 21h143l41 -21l328 -553h41l328 553l41 21h143l20 -21v-205z" />
    <glyph glyph-name="Z" unicode="Z" horiz-adv-x="1269" 
d="M1167 20l-20 -20h-1024l-21 20v226l21 41l655 880v21h-635l-20 20v205l20 21h963l20 -21v-225l-20 -41l-655 -881v-20h696l20 -21v-205z" />
    <glyph glyph-name="bracketleft" unicode="[" horiz-adv-x="839" 
d="M676 -389l-21 -21h-471l-20 21v1802l20 21h471l21 -21v-205l-21 -20h-184l-20 -21v-1310l20 -21h184l21 -20v-205z" />
    <glyph glyph-name="backslash" unicode="\" horiz-adv-x="1044" 
d="M778 20l-696 1188v205l20 21h144l20 -21l697 -1188v-205l-21 -20h-143z" />
    <glyph glyph-name="bracketright" unicode="]" horiz-adv-x="839" 
d="M184 -410l-20 21v205l20 20h185l20 21v1310l-20 21h-185l-20 20v205l20 21h471l21 -21v-1802l-21 -21h-471z" />
    <glyph glyph-name="asciicircum" unicode="^" 
d="M1044 492l-20 -21h-143l-41 21l-226 552h-41l-225 -552l-41 -21h-143l-21 21v204l328 717l21 21h204l21 -21l327 -717v-204z" />
    <glyph glyph-name="underscore" unicode="_" 
d="M1106 -225l-21 -21h-983l-20 21v205l20 20h983l21 -20v-205z" />
    <glyph glyph-name="grave" unicode="`" horiz-adv-x="1024" 
d="M635 1167l-21 -20h-184l-41 20l-225 205v41l20 21h205l41 -21l205 -205v-41z" />
    <glyph glyph-name="a" unicode="a" horiz-adv-x="1064" 
d="M963 20l-21 -20h-225l-21 20l-20 41h-21q-3 -3 -9.5 -8.5t-28.5 -19.5t-46 -24.5t-62.5 -19.5t-78.5 -9q-170 0 -269.5 87t-99.5 240q0 74 21.5 132t59.5 95t82 62t98.5 37t98.5 17t91 5q36 0 72 -5t54 -10l17 -5l21 20v21q0 77 -26.5 100t-117.5 23q-30 0 -46.5 -1.5
t-39 -6.5t-36.5 -18.5t-21 -35.5l-20 -20h-246l-21 20q0 50 22 100.5t69 98.5t135 78t204 30q122 0 205.5 -30t133 -91.5t71 -146t21.5 -203.5v-553zM676 410l-21 20q-41 21 -123 21q-184 0 -184 -123q0 -103 144 -103q77 0 130.5 41.5t53.5 102.5v41z" />
    <glyph glyph-name="b" unicode="b" horiz-adv-x="1208" 
d="M1147 512q0 -120 -36 -221t-97.5 -168.5t-143.5 -105t-174 -37.5q-52 0 -98 10.5t-75.5 25.5t-51.5 30t-31 26l-10 10h-20l-21 -62l-20 -20h-226l-20 20v1393l20 21h246l21 -21v-471h20q3 4 10 11t31 24.5t52 31t74.5 24.5t98.5 11q190 0 320.5 -146.5t130.5 -385.5z
M860 512q0 132 -54 209.5t-171 77.5t-171 -77.5t-54 -209.5t54 -209.5t171 -77.5t171 77.5t54 209.5z" />
    <glyph glyph-name="c" unicode="c" horiz-adv-x="1105" 
d="M348 512q0 -138 59 -212.5t166 -74.5q74 0 121.5 28t63.5 75l20 20h246l20 -20q-15 -89 -59 -157.5t-108 -109.5t-140.5 -61t-163.5 -20q-232 0 -372 144t-140 388t140 388t372 144q87 0 163.5 -20t140.5 -61t108 -109.5t59 -157.5l-20 -20h-246l-20 20q-16 47 -63.5 75
t-121.5 28q-107 0 -166 -74.5t-59 -212.5z" />
    <glyph glyph-name="d" unicode="d" horiz-adv-x="1208" 
d="M61 512q0 239 130.5 385.5t320.5 146.5q52 0 98 -10.5t75.5 -25.5t51.5 -30t31 -26l10 -10h21v471l20 21h246l20 -21v-1393l-20 -20h-225l-21 20l-20 62h-21q-3 -4 -10 -11t-31 -24.5t-52 -31t-74.5 -24.5t-98.5 -11q-92 0 -174 37.5t-143.5 105t-97.5 168.5t-36 221z
M348 512q0 -132 54 -209.5t171 -77.5t171.5 77.5t54.5 209.5t-54.5 209.5t-171.5 77.5t-171 -77.5t-54 -209.5z" />
    <glyph glyph-name="e" unicode="e" horiz-adv-x="1105" 
d="M1044 512v-82l-20 -20h-635l-20 -21q0 -19 9.5 -43.5t30.5 -53t64 -48t100 -19.5q48 0 89 16.5t55 45.5l20 20h246l21 -20q-7 -40 -23 -79.5t-49.5 -81.5t-79.5 -73.5t-118.5 -52t-160.5 -20.5q-127 0 -226.5 42.5t-161 116.5t-93 168.5t-31.5 204.5q0 109 31.5 204.5
t91 169t155 116t214.5 42.5q96 0 176.5 -28t138 -77t97.5 -116t59.5 -145.5t19.5 -165.5zM717 614l20 21q0 9 -3 25t-15 41t-30.5 46t-54 36.5t-81.5 15.5t-81.5 -15.5t-54 -36.5t-30.5 -46t-15 -41t-3 -25l20 -21h328z" />
    <glyph glyph-name="f" unicode="f" horiz-adv-x="839" 
d="M778 1434l21 -21v-205l-21 -20h-184q-62 0 -62 -62v-82l21 -20h205l20 -20v-205l-20 -21h-205l-21 -20v-738l-20 -20h-246l-20 20v738l-21 20h-143l-21 21v205l21 20h143l21 20v82q0 81 28 142.5t77.5 96.5t110 52t132.5 17h184z" />
    <glyph glyph-name="g" unicode="g" horiz-adv-x="1208" 
d="M1085 1004v-902q0 -135 -39.5 -238.5t-109.5 -166.5t-161.5 -95t-201.5 -32q-183 0 -299 84t-131 223l21 21h246l20 -21q30 -61 143 -61q226 0 226 266h-21q-3 -4 -10 -11t-31 -24.5t-52 -31t-74.5 -24.5t-98.5 -11q-92 0 -174 37.5t-143.5 105t-97.5 168.5t-36 221
q0 239 130.5 385.5t320.5 146.5q52 0 98 -10.5t75.5 -25.5t51.5 -30t31 -26l10 -10h21l20 62l21 20h225zM348 512q0 -132 54 -209.5t171 -77.5t171.5 77.5t54.5 209.5t-54.5 209.5t-171.5 77.5t-171 -77.5t-54 -209.5z" />
    <glyph glyph-name="h" unicode="h" horiz-adv-x="1208" 
d="M1085 20l-20 -20h-246l-20 20v594q0 84 -38.5 134.5t-125.5 50.5q-225 0 -225 -267v-512l-21 -20h-246l-20 20v1393l20 21h246l21 -21v-471h20q102 102 266 102q182 0 285.5 -111t103.5 -298v-615z" />
    <glyph glyph-name="i" unicode="i" horiz-adv-x="532" 
d="M410 1208l-21 -20h-246l-20 20v205l20 21h246l21 -21v-205zM410 20l-21 -20h-246l-20 20v984l20 20h246l21 -20v-984z" />
    <glyph glyph-name="j" unicode="j" horiz-adv-x="532" 
d="M410 1004v-1045q0 -178 -86.5 -253t-262.5 -75h-122l-21 21v205l21 20h102q46 0 64 18t18 64v1045l20 20h246zM410 1208l-21 -20h-246l-20 20v205l20 21h246l21 -21v-205z" />
    <glyph glyph-name="k" unicode="k" horiz-adv-x="1105" 
d="M1044 20l-20 -20h-123l-41 20l-287 308h-20l-123 -123l-20 -41v-144l-21 -20h-246l-20 20v1393l20 21h246l21 -21v-819h20l410 410l41 20h123l20 -20v-205l-246 -246v-21l266 -307v-205z" />
    <glyph glyph-name="l" unicode="l" horiz-adv-x="532" 
d="M410 20l-21 -20h-246l-20 20v1393l20 21h246l21 -21v-1393z" />
    <glyph glyph-name="m" unicode="m" horiz-adv-x="1781" 
d="M1679 20l-20 -20h-246l-20 20v594q0 84 -38.5 134.5t-125.5 50.5q-91 0 -138 -58.5t-47 -167.5v-553l-20 -20h-246l-20 20v594q0 84 -38.5 134.5t-125.5 50.5q-91 0 -137.5 -58.5t-46.5 -167.5v-553l-21 -20h-246l-20 20v984l20 20h226l20 -20l21 -62h20q3 4 8 11
t25.5 24.5t46 31t70 24.5t96.5 11q191 0 287 -143h20q3 6 10 15.5t33.5 34t58.5 43.5t87 34.5t118 15.5q186 0 287.5 -105.5t101.5 -303.5v-615z" />
    <glyph glyph-name="n" unicode="n" 
d="M1085 20l-20 -20h-246l-20 20v594q0 84 -38.5 134.5t-125.5 50.5q-225 0 -225 -267v-512l-21 -20h-246l-20 20v984l20 20h226l20 -20l21 -62h20q102 102 266 102q182 0 285.5 -111t103.5 -298v-615z" />
    <glyph glyph-name="o" unicode="o" horiz-adv-x="1146" 
d="M1085 512q0 -244 -140 -388t-372 -144t-372 144t-140 388t140 388t372 144t372 -144t140 -388zM799 512q0 138 -59 212.5t-167 74.5q-107 0 -166 -74.5t-59 -212.5t59 -212.5t166 -74.5q108 0 167 74.5t59 212.5z" />
    <glyph glyph-name="p" unicode="p" horiz-adv-x="1208" 
d="M1147 512q0 -120 -36 -221t-97.5 -168.5t-143.5 -105t-174 -37.5q-52 0 -98 10.5t-75.5 25.5t-51.5 30t-31 26l-10 10h-20v-471l-21 -21h-246l-20 21v1393l20 20h226l20 -20l21 -62h20q3 4 10 11t31 24.5t52 31t74.5 24.5t98.5 11q190 0 320.5 -146.5t130.5 -385.5z
M860 512q0 132 -54 209.5t-171 77.5t-171 -77.5t-54 -209.5t54 -209.5t171 -77.5t171 77.5t54 209.5z" />
    <glyph glyph-name="q" unicode="q" horiz-adv-x="1208" 
d="M61 512q0 239 130.5 385.5t320.5 146.5q52 0 98 -10.5t75.5 -25.5t51.5 -30t31 -26l10 -10h21l20 62l21 20h225l20 -20v-1393l-20 -21h-246l-20 21v471h-21q-3 -4 -10 -11t-31 -24.5t-52 -31t-74.5 -24.5t-98.5 -11q-92 0 -174 37.5t-143.5 105t-97.5 168.5t-36 221z
M348 512q0 -132 54 -209.5t171 -77.5t171.5 77.5t54.5 209.5t-54.5 209.5t-171.5 77.5t-171 -77.5t-54 -209.5z" />
    <glyph glyph-name="r" unicode="r" horiz-adv-x="839" 
d="M799 799l-21 -21h-143q-121 0 -173 -63t-52 -203v-492l-21 -20h-246l-20 20v984l20 20h226l20 -20l21 -62h20q2 3 5.5 8.5t20.5 20t40 25t65 19.5t94 9h123l21 -20v-205z" />
    <glyph glyph-name="s" unicode="s" horiz-adv-x="1024" 
d="M963 307q0 -64 -25 -120.5t-76.5 -104t-141.5 -75t-208 -27.5q-211 0 -331 95.5t-120 252.5l21 20h246l20 -20q0 -58 41 -80.5t123 -22.5q164 0 164 82q0 13 -2.5 24t-9.5 19.5t-13.5 15t-20 11.5t-23 8.5t-29 7t-32 5.5t-36.5 6t-39 6q-32 5 -60.5 11.5t-70 19.5t-75 29
t-69 41.5t-59.5 56.5t-39.5 74.5t-15.5 94.5q0 64 24.5 117.5t74.5 97t135 68t196 24.5q192 0 311 -79t119 -228l-20 -20h-246l-21 20q0 62 -143 62q-77 0 -110 -18.5t-33 -63.5q0 -17 6.5 -30.5t21 -22.5t29.5 -15.5t40.5 -11.5t44.5 -8t51.5 -7.5t51.5 -7.5
q35 -6 58.5 -10.5t63.5 -16t67.5 -25t60 -37.5t52.5 -53t33.5 -71.5t13.5 -93.5z" />
    <glyph glyph-name="t" unicode="t" horiz-adv-x="860" 
d="M512 758v-451q0 -61 61 -61h185l20 -21v-205l-20 -20h-185q-72 0 -132.5 17t-110 52t-77.5 96t-28 142v451l-20 20h-144l-20 21v205l20 20h144l20 20v185l21 20h246l20 -20v-185l20 -20h226l20 -20v-205l-20 -21h-226z" />
    <glyph glyph-name="u" unicode="u" horiz-adv-x="1167" 
d="M102 1004l21 20h246l20 -20v-594q0 -84 38.5 -134.5t125.5 -50.5q103 0 154 66.5t51 179.5v533l20 20h246l20 -20v-984l-20 -20h-225l-21 20l-20 62h-21q-2 -4 -7.5 -11t-26 -24.5t-45.5 -31t-69.5 -24.5t-96.5 -11q-182 0 -286 111t-104 298v615z" />
    <glyph glyph-name="v" unicode="v" horiz-adv-x="1085" 
d="M1024 799l-348 -779l-21 -20h-225l-20 20l-349 779v205l21 20h184l21 -20l245 -635h21l246 635l20 20h185l20 -20v-205z" />
    <glyph glyph-name="w" unicode="w" horiz-adv-x="1617" 
d="M1536 799l-246 -779l-20 -20h-266l-21 20l-164 615h-20l-164 -615l-21 -20h-266l-20 20l-246 779v205l20 20h185l20 -20l164 -574h21l163 574l21 20h266l21 -20l163 -574h21l164 574l20 20h185l20 -20v-205z" />
    <glyph glyph-name="x" unicode="x" horiz-adv-x="1044" 
d="M983 20l-20 -20h-123l-41 20l-267 328h-20l-266 -328l-41 -20h-123l-21 20v205l246 287v20l-225 267v205l20 20h123l41 -20l246 -308h20l246 308l41 20h123l21 -20v-205l-226 -267v-20l246 -287v-205z" />
    <glyph glyph-name="y" unicode="y" horiz-adv-x="1085" 
d="M1024 799l-328 -819q-27 -69 -51 -114t-60 -89.5t-80.5 -69t-109 -40t-149.5 -15.5h-103l-20 20v205l20 21h103q73 0 100 17t43 65v20l-328 799v205l21 20h184l21 -20l245 -697h21l246 697l20 20h185l20 -20v-205z" />
    <glyph glyph-name="z" unicode="z" horiz-adv-x="1064" 
d="M983 20l-20 -20h-861l-20 20v226l20 41l471 471v20h-450l-21 21v205l21 20h819l21 -20v-226l-21 -41l-471 -471v-20h492l20 -21v-205z" />
    <glyph glyph-name="braceleft" unicode="{" horiz-adv-x="962" 
d="M492 532v-40q75 -15 109 -75.5t34 -170.5v-328q0 -46 18 -64t64 -18h61l21 -20v-205l-21 -21h-123q-59 0 -109.5 14t-97 47t-73.5 96t-27 151v348q0 88 -41.5 126t-122.5 38l-20 20v164l20 20q81 0 122.5 38t41.5 126v348q0 88 27 151t73.5 96t97 47t109.5 14h123l21 -21
v-205l-21 -20h-61q-46 0 -64 -18t-18 -64v-328q0 -110 -34 -170.5t-109 -75.5z" />
    <glyph glyph-name="bar" unicode="|" horiz-adv-x="778" 
d="M532 -389l-20 -21h-246l-20 21v1802l20 21h246l20 -21v-1802z" />
    <glyph glyph-name="braceright" unicode="}" horiz-adv-x="962" 
d="M471 492v40q-75 15 -109 75.5t-34 170.5v328q0 46 -18 64t-64 18h-62l-20 20v205l20 21h123q59 0 109.5 -14t97 -47t73.5 -96t27 -151v-348q0 -88 41.5 -126t122.5 -38l21 -20v-164l-21 -20q-81 0 -122.5 -38t-41.5 -126v-348q0 -88 -27 -151t-73.5 -96t-97 -47
t-109.5 -14h-123l-20 21v205l20 20h62q46 0 64 18t18 64v328q0 110 34 170.5t109 75.5z" />
    <glyph glyph-name="asciitilde" unicode="~" horiz-adv-x="1351" 
d="M143 348l-20 21q0 164 86.5 266t261.5 102q62 0 120 -19t100 -46t78.5 -54t70.5 -46t61 -19q82 0 82 102l21 21h204l21 -21q0 -160 -92.5 -264t-255.5 -104q-62 0 -120 19t-100 46t-78.5 54t-70.5 46t-61 19q-82 0 -82 -102l-21 -21h-205z" />
    <glyph glyph-name="uni00A0" unicode="&#xa0;" horiz-adv-x="532" 
 />
    <glyph glyph-name="exclamdown" unicode="&#xa1;" horiz-adv-x="819" 
d="M266 61l41 471l21 21h164l20 -21l41 -471v-450l-21 -21h-245l-21 21v450zM246 1004l20 20h287l20 -20v-267l-20 -20h-287l-20 20v267z" />
    <glyph glyph-name="cent" unicode="&#xa2;" horiz-adv-x="1105" 
d="M348 512q0 -117 39.5 -183.5t104.5 -82.5l20 20v492l-20 20q-65 -16 -104.5 -82.5t-39.5 -183.5zM512 -123v82l-20 21q-192 32 -311.5 171t-119.5 361t119.5 361t311.5 171l20 21v82l20 20h82l21 -20v-82l20 -21q65 -8 127.5 -32t120 -64.5t96 -105.5t45.5 -146l-20 -20
h-246l-20 20q-27 82 -103 82l-20 -20v-492l20 -20q76 0 103 82l20 20h246l20 -20q-7 -81 -45.5 -146t-96 -105.5t-120 -64.5t-127.5 -32l-20 -21v-82l-21 -20h-82z" />
    <glyph glyph-name="sterling" unicode="&#xa3;" horiz-adv-x="1310" 
d="M1004 594l-21 -21h-430l-21 -20v-123q0 -124 -81 -164v-20h778l20 -21v-205l-20 -20h-1147l-21 20v205l21 21h20q75 0 109.5 45t34.5 139v123l-21 20h-123l-20 21v164l20 20h123l21 21v184q0 102 28 186t84 148.5t147.5 100.5t211.5 36q222 0 336 -118.5t114 -311.5
l-20 -20h-246l-20 20q0 102 -41 143t-123 41q-95 0 -140 -52.5t-45 -172.5v-184l21 -21h430l21 -20v-164z" />
    <glyph glyph-name="currency" unicode="&#xa4;" horiz-adv-x="1392" 
d="M1167 758q7 -9 17.5 -27.5t27.5 -82t17 -136.5t-15.5 -134.5t-31.5 -86.5l-15 -25v-20l144 -144v-20l-185 -184h-20l-143 143h-21q-9 -7 -27.5 -17t-82 -27t-136.5 -17t-134 15t-86 31l-25 15h-21l-143 -143h-21l-184 184v20l143 144v20q-7 9 -17 27.5t-27 82t-17 136.5
q0 46 6.5 88t15 69.5t17.5 48.5t15 30l7 10v20l-143 144v20l184 184h21l143 -143h21q9 7 27 17t81.5 27t136.5 17q46 0 88 -6.5t69.5 -15t48.5 -17.5t30 -15l10 -7h21l143 143h20l185 -184v-20l-144 -144v-20zM696 225q66 0 115.5 24t77 66t40.5 91t13 106t-13 106t-40.5 91
t-77 66t-115.5 24q-53 0 -95.5 -16.5t-70 -43.5t-46 -64.5t-26 -77.5t-7.5 -85t7.5 -85t26 -77.5t46 -64.5t70 -43.5t95.5 -16.5z" />
    <glyph glyph-name="yen" unicode="&#xa5;" horiz-adv-x="1269" 
d="M778 225v-205l-20 -20h-246l-20 20v205l-21 21h-246l-20 20v164l20 21h246l21 20l-41 82l-41 20h-246l-21 21v164l21 20h143v21l-225 409v205l20 21h144l41 -21l327 -635h41l328 635l41 21h143l21 -21v-205l-225 -409v-21h143l20 -20v-164l-20 -21h-246l-41 -20l-41 -82
l21 -20h245l21 -21v-164l-21 -20h-245z" />
    <glyph glyph-name="brokenbar" unicode="&#xa6;" horiz-adv-x="778" 
d="M532 860l-20 -20h-246l-20 20v553l20 21h246l20 -21v-553zM532 20l-20 -20h-246l-20 20v553l20 21h246l20 -21v-553z" />
    <glyph glyph-name="section" unicode="&#xa7;" horiz-adv-x="1351" 
d="M369 594q0 -49 21.5 -85t55.5 -56.5t87.5 -37.5t104.5 -27t121 -26.5t122 -33.5h20q82 27 82 123q0 40 -22 71.5t-55 52t-88 40.5t-104 33t-121 32.5t-122 36.5h-20q-82 -27 -82 -123zM1085 205v-21q52 -35 87.5 -97.5t35.5 -147.5q0 -174 -128.5 -271.5t-383.5 -97.5
q-126 0 -228.5 24.5t-180.5 75t-121 134.5t-43 196l20 20h246l21 -20q0 -94 67.5 -139t218.5 -45q128 0 177 37t49 106q0 36 -28.5 63.5t-77.5 46t-112 35.5t-132.5 35.5t-139 40.5t-132.5 56.5t-112 78.5t-77.5 110t-28.5 148q0 113 56 181t128 86v20q-52 35 -87.5 98
t-35.5 148q0 158 139 253t394 95q239 0 385.5 -111t146.5 -319l-20 -20h-246l-20 20q0 93 -65 138.5t-202 45.5q-225 0 -225 -123q0 -45 46.5 -79.5t120.5 -59t163.5 -49t179 -58.5t163.5 -79t120.5 -119t46.5 -170q0 -112 -56 -180t-129 -86z" />
    <glyph glyph-name="dieresis" unicode="&#xa8;" horiz-adv-x="1146" 
d="M922 1208l-21 -20h-225l-21 20v205l21 21h225l21 -21v-205zM492 1208l-21 -20h-225l-21 20v205l21 21h225l21 -21v-205z" />
    <glyph glyph-name="copyright" unicode="&#xa9;" horiz-adv-x="1720" 
d="M123 717q0 151 58 287.5t156.5 235t235 156.5t287.5 58t287.5 -58t235 -156.5t156.5 -235t58 -287.5t-58 -287.5t-156.5 -235t-235 -156.5t-287.5 -58t-287.5 58t-235 156.5t-156.5 235t-58 287.5zM696 717q0 -205 164 -205q119 0 144 102l20 21h164l20 -21
q-7 -74 -39 -130.5t-81 -89.5t-106.5 -49.5t-121.5 -16.5q-163 0 -265.5 99t-102.5 290t102.5 290t265.5 99q51 0 97.5 -10t90 -32t76.5 -55t55.5 -81.5t28.5 -108.5l-20 -20h-164l-20 20q-25 103 -144 103q-164 0 -164 -205zM348 717q0 -232 142 -382.5t370 -150.5
t370 150.5t142 382.5t-142 382t-370 150t-370 -150t-142 -382z" />
    <glyph glyph-name="ordfeminine" unicode="&#xaa;" 
d="M512 676q-63 0 -123.5 24t-111.5 70t-82 122.5t-31 172.5t31 172.5t82 122.5t111.5 70t123.5 24q45 0 86 -15t60 -31l18 -15h20v20l21 21h205l20 -21v-430q0 -29 12.5 -45t28.5 -16h21l20 -21v-184l-20 -21h-123q-82 0 -144 62h-20q-3 -3 -8 -8.5t-23 -20t-40 -25
t-58 -19.5t-76 -9zM410 1065q0 -84 44 -124t99 -40q143 0 143 164t-143 164q-55 0 -99 -40t-44 -124zM1004 553l-21 -21h-737l-21 21v20l21 21h737l21 -21v-20z" />
    <glyph glyph-name="guillemotleft" unicode="&#xab;" horiz-adv-x="1617" 
d="M819 82l-20 -21h-246l-41 21l-328 328l-20 41v122l20 41l328 328l41 21h246l20 -21v-82l-348 -328v-40l348 -328v-82zM1454 82l-20 -21h-246l-41 21l-328 328l-20 41v122l20 41l328 328l41 21h246l20 -21v-82l-348 -328v-40l348 -328v-82z" />
    <glyph glyph-name="logicalnot" unicode="&#xac;" 
d="M1024 184l-20 -20h-205l-21 20v205l-20 21h-615l-20 20v205l20 20h861l20 -20v-451z" />
    <glyph glyph-name="uni00AD" unicode="&#xad;" horiz-adv-x="880" 
d="M758 430l-21 -20h-594l-20 20v205l20 20h594l21 -20v-205z" />
    <glyph glyph-name="registered" unicode="&#xae;" horiz-adv-x="1720" 
d="M1004 840q0 61 -62 61h-164l-20 -20v-82l20 -21h164q62 0 62 62zM1085 614l103 -143v-102l-21 -21h-102l-41 21l-143 204l-41 21h-62l-20 -21v-204l-21 -21h-164l-20 21v696l20 20h369q126 0 196 -62t70 -183q0 -144 -123 -205v-21zM123 717q0 151 58 287.5t156.5 235
t235 156.5t287.5 58t287.5 -58t235 -156.5t156.5 -235t58 -287.5t-58 -287.5t-156.5 -235t-235 -156.5t-287.5 -58t-287.5 58t-235 156.5t-156.5 235t-58 287.5zM348 717q0 -232 142 -382.5t370 -150.5t370 150.5t142 382.5t-142 382t-370 150t-370 -150t-142 -382z" />
    <glyph glyph-name="macron" unicode="&#xaf;" horiz-adv-x="1024" 
d="M881 1188l-21 -21h-696l-21 21v184l21 21h696l21 -21v-184z" />
    <glyph glyph-name="degree" unicode="&#xb0;" 
d="M164 1024q0 184 123 307t307 123t307 -123t123 -307t-123 -307t-307 -123t-307 123t-123 307zM430 1024q0 -91 43 -137.5t121 -46.5t121 46.5t43 137.5t-43 137.5t-121 46.5t-121 -46.5t-43 -137.5z" />
    <glyph glyph-name="plusminus" unicode="&#xb1;" 
d="M1044 594l-20 -21h-287l-20 -20v-164l-21 -20h-204l-21 20v164l-20 20h-287l-21 21v205l21 20h287l20 21v164l21 20h204l21 -20v-164l20 -21h287l20 -20v-205zM1044 20l-20 -20h-860l-21 20v205l21 21h860l20 -21v-205z" />
    <glyph glyph-name="twosuperior" unicode="&#xb2;" horiz-adv-x="778" 
d="M696 717l-20 -21h-553l-21 21v164l21 41l205 122q71 43 97 76.5t26 67.5q0 61 -62 61q-61 0 -61 -61l-21 -21h-184l-21 21q0 124 75 195t212 71t212 -71t75 -195q0 -52 -16.5 -92.5t-51.5 -72.5t-69 -53t-88 -48v-21h225l20 -20v-164z" />
    <glyph glyph-name="threesuperior" unicode="&#xb3;" horiz-adv-x="757" 
d="M287 1004l-21 20v123l62 61v21h-205l-21 20v164l21 21h491l21 -21v-164l-21 -41l-61 -61v-21q5 -1 13.5 -3t29.5 -14.5t37 -30.5t29.5 -54t13.5 -82q0 -114 -80 -190t-227 -76q-135 0 -211 68t-76 178l20 20h185l20 -20q0 -16 16.5 -28.5t45.5 -12.5q42 0 62 23.5
t20 58.5q0 61 -62 61q-9 0 -19 -5t-16 -10l-6 -5h-61z" />
    <glyph glyph-name="acute" unicode="&#xb4;" horiz-adv-x="1024" 
d="M737 1372l-225 -205l-41 -20h-184l-21 20v41l205 205l41 21h205l20 -21v-41z" />
    <glyph glyph-name="mu" unicode="&#xb5;" horiz-adv-x="1310" 
d="M860 61h-20q-3 -3 -7.5 -8.5t-22 -19.5t-37 -24.5t-52 -19.5t-66.5 -9t-66 8.5t-52.5 20t-36 23.5t-22.5 20l-7 9h-20v-450l-21 -21h-246l-20 21v1393l20 20h246l21 -20v-512q0 -113 50.5 -179.5t153.5 -66.5t154 66.5t51 179.5v512l21 20h245l21 -20v-984l-21 -20h-225
l-20 20z" />
    <glyph glyph-name="paragraph" unicode="&#xb6;" horiz-adv-x="1576" 
d="M860 -389l-20 -21h-246l-21 21v983l-20 20q-195 0 -312.5 102t-117.5 308q0 207 120.5 308.5t329.5 101.5h881l21 -21v-205l-21 -20h-123l-20 -21v-1556l-21 -21h-246l-20 21v1556l-20 21h-123l-21 -21v-1556z" />
    <glyph glyph-name="periodcentered" unicode="&#xb7;" horiz-adv-x="655" 
d="M492 410l-21 -21h-287l-20 21v266l20 20h287l21 -20v-266z" />
    <glyph glyph-name="cedilla" unicode="&#xb8;" horiz-adv-x="1024" 
d="M430 -205h-20l-21 21v20l164 164h82l-143 -143h20q41 20 82 20q51 0 87 -36t36 -107q0 -76 -56 -120t-149 -44q-60 0 -98.5 17.5t-85.5 64.5v20l20 21h21q19 -19 43.5 -28.5t43 -11t56.5 -1.5q102 0 102 82t-102 82q-39 0 -82 -21z" />
    <glyph glyph-name="onesuperior" unicode="&#xb9;" horiz-adv-x="737" 
d="M102 717v164l21 20h143l21 21v225h-21l-61 -62h-62l-20 21v164l143 143l41 21h185l20 -21v-491l20 -21h103l20 -20v-164l-20 -21h-512z" />
    <glyph glyph-name="ordmasculine" unicode="&#xba;" horiz-adv-x="1105" 
d="M553 676q-169 0 -279 110t-110 279t110 279t279 110t279 -110t110 -279t-110 -279t-279 -110zM410 1065q0 -84 44 -124t99 -40t99 40t44 124t-44 124t-99 40t-99 -40t-44 -124zM881 553l-21 -21h-614l-21 21v20l21 21h614l21 -21v-20z" />
    <glyph glyph-name="guillemotright" unicode="&#xbb;" horiz-adv-x="1617" 
d="M819 61l-20 21v82l348 328v40l-348 328v82l20 21h246l41 -21l328 -328l20 -41v-122l-20 -41l-328 -328l-41 -21h-246zM184 61l-20 21v82l348 328v40l-348 328v82l20 21h246l41 -21l328 -328l20 -41v-122l-20 -41l-328 -328l-41 -21h-246z" />
    <glyph glyph-name="onequarter" unicode="&#xbc;" horiz-adv-x="1781" 
d="M1372 1208l-778 -1188l-21 -20h-122l-21 20v205l778 1188l21 21h123l20 -21v-205zM102 717v164l21 20h143l21 21v225h-21l-61 -62h-62l-20 21v164l143 143l41 21h185l20 -21v-491l20 -21h103l20 -20v-164l-20 -21h-512zM1577 20l-21 -20h-184l-20 20v82l-21 21h-368
l-21 20v185l21 41l348 348l41 20h204l21 -20v-697zM1352 348v123h-21l-123 -123v-20h123z" />
    <glyph glyph-name="onehalf" unicode="&#xbd;" horiz-adv-x="1802" 
d="M1372 1208l-778 -1188l-21 -20h-122l-21 20v205l778 1188l21 21h123l20 -21v-205zM102 717v164l21 20h143l21 21v225h-21l-61 -62h-62l-20 21v164l143 143l41 21h185l20 -21v-491l20 -21h103l20 -20v-164l-20 -21h-512zM1679 20l-20 -20h-553l-21 20v164l21 41l205 123
q71 43 97 76.5t26 67.5q0 61 -62 61q-61 0 -61 -61l-21 -21h-184l-21 21q0 124 75 195t212 71t212 -71t75 -195q0 -52 -16.5 -92.5t-51 -72.5t-69 -53.5t-88.5 -48.5v-20h225l20 -21v-164z" />
    <glyph glyph-name="threequarters" unicode="&#xbe;" horiz-adv-x="1781" 
d="M1372 1208l-778 -1188l-21 -20h-122l-21 20v205l778 1188l21 21h123l20 -21v-205zM1577 20l-21 -20h-184l-20 20v82l-21 21h-368l-21 20v185l21 41l348 348l41 20h204l21 -20v-697zM1352 348v123h-21l-123 -123v-20h123zM307 1004l-20 20v123l61 61v21h-205l-20 20v164
l20 21h492l20 -21v-164l-20 -41l-62 -61v-21q5 -1 13.5 -3t29.5 -14.5t37 -30.5t29.5 -54t13.5 -82q0 -114 -80 -190t-227 -76q-135 0 -211 68t-76 178l21 20h184l21 -20q0 -16 16 -28.5t45 -12.5q42 0 62 23.5t20 58.5q0 61 -61 61q-9 0 -19 -5t-16 -10l-6 -5h-62z" />
    <glyph glyph-name="questiondown" unicode="&#xbf;" horiz-adv-x="1310" 
d="M164 -20q0 127 59 212t166 156q89 59 116 100t27 105l21 20h246l20 -20q0 -205 -184 -328q-99 -66 -141.5 -119t-42.5 -126q0 -68 52 -116t152 -48q109 0 157 51.5t48 173.5l21 20h245l21 -20q0 -102 -28.5 -186t-86.5 -148.5t-154 -100.5t-223 -36q-247 0 -369 114.5
t-122 295.5zM512 1004l20 20h287l21 -20v-267l-21 -20h-287l-20 20v267z" />
    <glyph glyph-name="Agrave" unicode="&#xc0;" horiz-adv-x="1331" 
d="M1290 20l-20 -20h-185l-20 20l-102 267l-41 20h-512l-41 -20l-103 -267l-20 -20h-185l-20 20v205l471 1188l20 21h267l20 -21l471 -1188v-205zM860 573l-184 492h-21l-184 -492l21 -20h348zM881 1577l-21 -21h-184l-41 21l-225 205v41l20 20h205l41 -20l205 -205v-41z
" />
    <glyph glyph-name="Aacute" unicode="&#xc1;" horiz-adv-x="1331" 
d="M1290 20l-20 -20h-185l-20 20l-102 267l-41 20h-512l-41 -20l-103 -267l-20 -20h-185l-20 20v205l471 1188l20 21h267l20 -21l471 -1188v-205zM860 573l-184 492h-21l-184 -492l21 -20h348zM922 1782l-226 -205l-41 -21h-184l-20 21v41l204 205l41 20h205l21 -20v-41z
" />
    <glyph glyph-name="Acircumflex" unicode="&#xc2;" horiz-adv-x="1331" 
d="M1024 1577l-20 -21h-164l-41 21l-123 102h-21l-123 -102l-40 -21h-164l-21 21v41l205 205l41 20h225l41 -20l205 -205v-41zM1290 20l-20 -20h-185l-20 20l-102 267l-41 20h-512l-41 -20l-103 -267l-20 -20h-185l-20 20v205l471 1188l20 21h267l20 -21l471 -1188v-205z
M860 573l-184 492h-21l-184 -492l21 -20h348z" />
    <glyph glyph-name="Atilde" unicode="&#xc3;" horiz-adv-x="1331" 
d="M1290 20l-20 -20h-185l-20 20l-102 267l-41 20h-512l-41 -20l-103 -267l-20 -20h-185l-20 20v205l471 1188l20 21h267l20 -21l471 -1188v-205zM860 573l-184 492h-21l-184 -492l21 -20h348zM799 1516q-56 0 -102.5 22.5t-72 49t-56 49t-56.5 22.5q-32 0 -46.5 -18.5
t-14.5 -63.5l-21 -21h-102l-21 21q0 118 64 182t161 64q46 0 84.5 -15t64.5 -36t48 -42t45 -36t45 -15q32 0 47 19t15 63l20 21h103l20 -21q0 -118 -64 -181.5t-161 -63.5z" />
    <glyph glyph-name="Adieresis" unicode="&#xc4;" horiz-adv-x="1331" 
d="M1290 20l-20 -20h-185l-20 20l-102 267l-41 20h-512l-41 -20l-103 -267l-20 -20h-185l-20 20v205l471 1188l20 21h267l20 -21l471 -1188v-205zM860 573l-184 492h-21l-184 -492l21 -20h348zM1024 1577l-20 -21h-226l-20 21v205l20 20h226l20 -20v-205zM573 1577l-20 -21
h-225l-21 21v205l21 20h225l20 -20v-205z" />
    <glyph glyph-name="Aring" unicode="&#xc5;" horiz-adv-x="1331" 
d="M655 1597h21q44 0 63 15t19 47t-18.5 46.5t-63.5 14.5h-21q-45 0 -63.5 -14.5t-18.5 -46.5t19 -47t63 -15zM676 1475h-21q-97 0 -161 48t-64 136t64 136t161 48h21q97 0 161 -48t64 -136t-64 -136t-161 -48zM1290 20l-20 -20h-185l-20 20l-102 267l-41 20h-512l-41 -20
l-103 -267l-20 -20h-185l-20 20v205l471 1188l20 21h267l20 -21l471 -1188v-205zM860 573l-184 492h-21l-184 -492l21 -20h348z" />
    <glyph glyph-name="AE" unicode="&#xc6;" horiz-adv-x="2027" 
d="M963 20v226l-21 20h-532l-41 -20l-123 -226l-21 -20h-164l-20 20v205l655 1188l21 21h1167l21 -21v-205l-21 -20h-614l-21 -21v-286l21 -21h573l21 -20v-205l-21 -21h-573l-21 -20v-328l21 -20h614l21 -21v-205l-21 -20h-901zM963 532v635l-21 21h-41l-20 -21l-349 -635
l21 -20h389z" />
    <glyph glyph-name="Ccedilla" unicode="&#xc7;" horiz-adv-x="1454" 
d="M840 -20l-41 -21l-103 -102h21q41 20 82 20q51 0 87 -36t36 -107q0 -76 -56 -120t-149 -44q-60 0 -99 17.5t-86 64.5v20l21 21h20q28 -28 58 -34.5t86 -6.5q102 0 102 82t-102 82q-39 0 -82 -21h-21l-20 21v20l123 123v21q-101 6 -192.5 36.5t-173 90.5t-141 143.5
t-94 203.5t-34.5 263q0 217 79 382t237.5 260t379.5 95q246 0 404.5 -115t189.5 -315l-20 -20h-246l-21 20q-61 184 -307 184q-105 0 -184.5 -36t-128 -102t-72.5 -154.5t-24 -198.5t24 -198.5t72.5 -155t128 -102.5t184.5 -36q125 0 201 49.5t106 155.5l21 21h246l20 -21
q-12 -89 -47.5 -162.5t-86 -123t-117 -85.5t-135.5 -54.5t-146 -24.5z" />
    <glyph glyph-name="Egrave" unicode="&#xc8;" horiz-adv-x="1290" 
d="M1167 20l-20 -20h-963l-20 20v1393l20 21h963l20 -21v-205l-20 -20h-676l-20 -21v-286l20 -21h635l20 -20v-205l-20 -21h-635l-20 -20v-328l20 -20h676l20 -21v-205zM860 1577l-20 -21h-185l-41 21l-225 205v41l21 20h204l41 -20l205 -205v-41z" />
    <glyph glyph-name="Eacute" unicode="&#xc9;" horiz-adv-x="1290" 
d="M1167 20l-20 -20h-963l-20 20v1393l20 21h963l20 -21v-205l-20 -20h-676l-20 -21v-286l20 -21h635l20 -20v-205l-20 -21h-635l-20 -20v-328l20 -20h676l20 -21v-205zM942 1782l-225 -205l-41 -21h-184l-21 21v41l205 205l41 20h205l20 -20v-41z" />
    <glyph glyph-name="Ecircumflex" unicode="&#xca;" horiz-adv-x="1290" 
d="M1167 20l-20 -20h-963l-20 20v1393l20 21h963l20 -21v-205l-20 -20h-676l-20 -21v-286l20 -21h635l20 -20v-205l-20 -21h-635l-20 -20v-328l20 -20h676l20 -21v-205zM1024 1577l-20 -21h-164l-41 21l-123 102h-21l-123 -102l-40 -21h-164l-21 21v41l205 205l41 20h225
l41 -20l205 -205v-41z" />
    <glyph glyph-name="Edieresis" unicode="&#xcb;" horiz-adv-x="1290" 
d="M1167 20l-20 -20h-963l-20 20v1393l20 21h963l20 -21v-205l-20 -20h-676l-20 -21v-286l20 -21h635l20 -20v-205l-20 -21h-635l-20 -20v-328l20 -20h676l20 -21v-205zM1024 1618l-20 -21h-226l-20 21v205l20 20h226l20 -20v-205zM573 1618l-20 -21h-225l-21 21v205l21 20
h225l20 -20v-205z" />
    <glyph glyph-name="Igrave" unicode="&#xcc;" horiz-adv-x="614" 
d="M451 20l-21 -20h-246l-20 20v1393l20 21h246l21 -21v-1393zM492 1577l-21 -21h-184l-41 21l-226 205v41l21 20h205l41 -20l205 -205v-41z" />
    <glyph glyph-name="Iacute" unicode="&#xcd;" horiz-adv-x="614" 
d="M451 20l-21 -20h-246l-20 20v1393l20 21h246l21 -21v-1393zM594 1782l-225 -205l-41 -21h-185l-20 21v41l205 205l41 20h204l21 -20v-41z" />
    <glyph glyph-name="Icircumflex" unicode="&#xce;" horiz-adv-x="614" 
d="M451 20l-21 -20h-246l-20 20v1393l20 21h246l21 -21v-1393zM676 1577l-21 -21h-163l-41 21l-123 102h-41l-123 -102l-41 -21h-164l-20 21v41l204 205l41 20h246l41 -20l205 -205v-41z" />
    <glyph glyph-name="Idieresis" unicode="&#xcf;" horiz-adv-x="614" 
d="M451 20l-21 -20h-246l-20 20v1393l20 21h246l21 -21v-1393zM655 1618l-20 -21h-225l-21 21v205l21 20h225l20 -20v-205zM225 1618l-20 -21h-225l-21 21v205l21 20h225l20 -20v-205z" />
    <glyph glyph-name="Eth" unicode="&#xd0;" horiz-adv-x="1413" 
d="M0 614v205l20 21h123l21 20v553l20 21h451q189 0 324 -48t216.5 -142.5t118.5 -223.5t37 -303t-37 -303t-118.5 -223.5t-216.5 -142.5t-324 -48h-451l-20 20v553l-21 21h-123zM1044 717q0 250 -88.5 360.5t-300.5 110.5h-184l-20 -21v-307l20 -20h266l21 -21v-205
l-21 -20h-266l-20 -21v-307l20 -20h184q212 0 300.5 110.5t88.5 360.5z" />
    <glyph glyph-name="Ntilde" unicode="&#xd1;" horiz-adv-x="1536" 
d="M164 1413l20 21h287l41 -21l553 -942h20v942l21 21h246l20 -21v-1393l-20 -20h-287l-41 20l-553 943h-20v-943l-21 -20h-246l-20 20v1393zM901 1516q-56 0 -102.5 22.5t-72 49t-56 49t-56.5 22.5q-32 0 -46.5 -18.5t-14.5 -63.5l-21 -21h-102l-20 21q0 118 64 182t161 64
q46 0 84.5 -15t64.5 -36t48 -42t45 -36t45 -15q32 0 46.5 18.5t14.5 63.5l21 21h102l20 -21q0 -118 -64 -181.5t-161 -63.5z" />
    <glyph glyph-name="Ograve" unicode="&#xd2;" horiz-adv-x="1556" 
d="M1188 717q0 221 -107.5 356t-302.5 135t-302 -135t-107 -356t107 -356.5t302 -135.5t302.5 135.5t107.5 356.5zM1475 717q0 -160 -49 -296t-138 -233.5t-220 -152.5t-290 -55q-211 0 -370 94.5t-242.5 261t-83.5 381.5t83.5 381.5t242.5 261t370 94.5q159 0 290 -55
t220 -152.5t138 -233.5t49 -296zM983 1577l-20 -21h-185l-41 21l-225 205v41l20 20h205l41 -20l205 -205v-41z" />
    <glyph glyph-name="Oacute" unicode="&#xd3;" horiz-adv-x="1556" 
d="M1188 717q0 221 -107.5 356t-302.5 135t-302 -135t-107 -356t107 -356.5t302 -135.5t302.5 135.5t107.5 356.5zM1475 717q0 -160 -49 -296t-138 -233.5t-220 -152.5t-290 -55q-211 0 -370 94.5t-242.5 261t-83.5 381.5t83.5 381.5t242.5 261t370 94.5q159 0 290 -55
t220 -152.5t138 -233.5t49 -296zM1044 1782l-225 -205l-41 -21h-184l-21 21v41l205 205l41 20h205l20 -20v-41z" />
    <glyph glyph-name="Ocircumflex" unicode="&#xd4;" horiz-adv-x="1556" 
d="M1188 717q0 221 -107.5 356t-302.5 135t-302 -135t-107 -356t107 -356.5t302 -135.5t302.5 135.5t107.5 356.5zM1475 717q0 -160 -49 -296t-138 -233.5t-220 -152.5t-290 -55q-211 0 -370 94.5t-242.5 261t-83.5 381.5t83.5 381.5t242.5 261t370 94.5q159 0 290 -55
t220 -152.5t138 -233.5t49 -296zM1147 1577l-21 -21h-163l-41 21l-123 102h-41l-123 -102l-41 -21h-164l-20 21v41l204 205l41 20h246l41 -20l205 -205v-41z" />
    <glyph glyph-name="Otilde" unicode="&#xd5;" horiz-adv-x="1556" 
d="M1188 717q0 221 -107.5 356t-302.5 135t-302 -135t-107 -356t107 -356.5t302 -135.5t302.5 135.5t107.5 356.5zM1475 717q0 -160 -49 -296t-138 -233.5t-220 -152.5t-290 -55q-211 0 -370 94.5t-242.5 261t-83.5 381.5t83.5 381.5t242.5 261t370 94.5q159 0 290 -55
t220 -152.5t138 -233.5t49 -296zM922 1516q-56 0 -102.5 22.5t-72 49t-56 49t-56.5 22.5q-32 0 -47 -19t-15 -63l-20 -21h-102l-21 21q0 118 64 182t161 64q46 0 84.5 -15t64.5 -36t48 -42t45 -36t45 -15q32 0 47 19t15 63l20 21h102l21 -21q0 -118 -64 -181.5t-161 -63.5z
" />
    <glyph glyph-name="Odieresis" unicode="&#xd6;" horiz-adv-x="1556" 
d="M1188 717q0 221 -107.5 356t-302.5 135t-302 -135t-107 -356t107 -356.5t302 -135.5t302.5 135.5t107.5 356.5zM1475 717q0 -160 -49 -296t-138 -233.5t-220 -152.5t-290 -55q-211 0 -370 94.5t-242.5 261t-83.5 381.5t83.5 381.5t242.5 261t370 94.5q159 0 290 -55
t220 -152.5t138 -233.5t49 -296zM1126 1618l-20 -21h-225l-21 21v205l21 20h225l20 -20v-205zM696 1618l-20 -21h-225l-21 21v205l21 20h225l20 -20v-205z" />
    <glyph glyph-name="multiply" unicode="&#xd7;" horiz-adv-x="1249" 
d="M1126 164l-143 -144h-20l-328 328h-21l-327 -328h-21l-143 144v20l328 328v20l-328 328v21l143 143h21l327 -328h21l328 328h20l143 -143v-21l-327 -328v-20l327 -328v-20z" />
    <glyph glyph-name="Oslash" unicode="&#xd8;" horiz-adv-x="1556" 
d="M307 143h-20l-82 -82l-41 -20h-21l-20 20v103l82 82v20q-123 184 -123 451q0 215 83.5 381.5t242.5 261t370 94.5q287 0 451 -164h20l103 103l41 20h20l21 -20v-103l-82 -82v-41q123 -185 123 -450q0 -160 -49 -296t-138 -233.5t-220 -152.5t-290 -55q-274 0 -471 163z
M512 369v-41q46 -46 118 -74.5t148 -28.5q195 0 302.5 135.5t107.5 356.5q0 73 -12.5 143t-28.5 103h-41zM410 471h20l614 614v21q-102 102 -266 102q-195 0 -302 -135t-107 -356q0 -73 12.5 -143t28.5 -103z" />
    <glyph glyph-name="Ugrave" unicode="&#xd9;" horiz-adv-x="1474" 
d="M1311 1413v-860q0 -277 -148.5 -425t-425.5 -148t-425 148t-148 425v860l20 21h246l21 -21v-860q0 -328 286 -328q287 0 287 328v860l20 21h246zM922 1577l-21 -21h-184l-41 21l-225 205v41l20 20h205l41 -20l205 -205v-41z" />
    <glyph glyph-name="Uacute" unicode="&#xda;" horiz-adv-x="1474" 
d="M1311 1413v-860q0 -277 -148.5 -425t-425.5 -148t-425 148t-148 425v860l20 21h246l21 -21v-860q0 -328 286 -328q287 0 287 328v860l20 21h246zM1024 1782l-225 -205l-41 -21h-185l-20 21v41l205 205l41 20h205l20 -20v-41z" />
    <glyph glyph-name="Ucircumflex" unicode="&#xdb;" horiz-adv-x="1474" 
d="M1311 1413v-860q0 -277 -148.5 -425t-425.5 -148t-425 148t-148 425v860l20 21h246l21 -21v-860q0 -328 286 -328q287 0 287 328v860l20 21h246zM1106 1577l-21 -21h-163l-41 21l-123 102h-41l-123 -102l-41 -21h-164l-20 21v41l204 205l41 20h246l41 -20l205 -205v-41z
" />
    <glyph glyph-name="Udieresis" unicode="&#xdc;" horiz-adv-x="1474" 
d="M1311 1413v-860q0 -277 -148.5 -425t-425.5 -148t-425 148t-148 425v860l20 21h246l21 -21v-860q0 -328 286 -328q287 0 287 328v860l20 21h246zM1085 1618l-20 -21h-225l-21 21v205l21 20h225l20 -20v-205zM635 1618l-21 -21h-225l-20 21v205l20 20h225l21 -20v-205z
" />
    <glyph glyph-name="Yacute" unicode="&#xdd;" horiz-adv-x="1228" 
d="M1167 1208l-409 -676v-512l-21 -20h-245l-21 20v512l-410 676v205l21 21h143l41 -21l328 -553h41l328 553l41 21h143l20 -21v-205zM901 1782l-225 -205l-41 -21h-184l-21 21v41l205 205l41 20h205l20 -20v-41z" />
    <glyph glyph-name="Thorn" unicode="&#xde;" horiz-adv-x="1310" 
d="M451 20l-21 -20h-246l-20 20v1393l20 21h246l21 -21v-266l20 -21h287q219 0 345 -106.5t126 -302.5q0 -193 -132 -301.5t-339 -108.5h-287l-20 -20v-267zM942 717q0 82 -41 123t-143 41h-287l-20 -21v-287l20 -20h287q102 0 143 41t41 123z" />
    <glyph glyph-name="germandbls" unicode="&#xdf;" horiz-adv-x="1290" 
d="M1229 430q0 -86 -31 -165.5t-88.5 -143.5t-149 -102.5t-202.5 -38.5q-55 0 -101 10t-65 20l-19 10l-20 21v184l20 21q62 -21 144 -21q107 0 166 59.5t59 166.5q0 53 -17 91.5t-43 60t-69 33.5t-82.5 15.5t-95.5 3.5l-21 21v164l21 20q107 0 166 43.5t59 120.5
q0 184 -184 184q-114 0 -159.5 -49t-45.5 -135v-1004l-20 -20h-246l-21 20v779l-20 20h-103l-20 21v164l20 20h103l20 20q0 186 132 298t360 112q112 0 202.5 -32t148.5 -86t89 -123.5t31 -147.5q0 -103 -51.5 -179t-132.5 -108v-20q48 -8 93.5 -31.5t85 -62.5t63.5 -99.5
t24 -134.5z" />
    <glyph glyph-name="agrave" unicode="&#xe0;" horiz-adv-x="1064" 
d="M963 20l-21 -20h-225l-21 20l-20 41h-21q-3 -3 -9.5 -8.5t-28.5 -19.5t-46 -24.5t-62.5 -19.5t-78.5 -9q-170 0 -269.5 87t-99.5 240q0 74 21.5 132t59.5 95t82 62t98.5 37t98.5 17t91 5q36 0 72 -5t54 -10l17 -5l21 20v21q0 77 -26.5 100t-117.5 23q-30 0 -46.5 -1.5
t-39 -6.5t-36.5 -18.5t-21 -35.5l-20 -20h-246l-21 20q0 50 22 100.5t69 98.5t135 78t204 30q122 0 205.5 -30t133 -91.5t71 -146t21.5 -203.5v-553zM676 410l-21 20q-41 21 -123 21q-184 0 -184 -123q0 -103 144 -103q77 0 130.5 41.5t53.5 102.5v41zM737 1167l-20 -20
h-185l-40 20l-226 205v41l21 21h205l40 -21l205 -205v-41z" />
    <glyph glyph-name="aacute" unicode="&#xe1;" horiz-adv-x="1064" 
d="M963 20l-21 -20h-225l-21 20l-20 41h-21q-3 -3 -9.5 -8.5t-28.5 -19.5t-46 -24.5t-62.5 -19.5t-78.5 -9q-170 0 -269.5 87t-99.5 240q0 74 21.5 132t59.5 95t82 62t98.5 37t98.5 17t91 5q36 0 72 -5t54 -10l17 -5l21 20v21q0 77 -26.5 100t-117.5 23q-30 0 -46.5 -1.5
t-39 -6.5t-36.5 -18.5t-21 -35.5l-20 -20h-246l-21 20q0 50 22 100.5t69 98.5t135 78t204 30q122 0 205.5 -30t133 -91.5t71 -146t21.5 -203.5v-553zM676 410l-21 20q-41 21 -123 21q-184 0 -184 -123q0 -103 144 -103q77 0 130.5 41.5t53.5 102.5v41zM799 1372l-226 -205
l-41 -20h-184l-20 20v41l204 205l41 21h205l21 -21v-41z" />
    <glyph glyph-name="acircumflex" unicode="&#xe2;" horiz-adv-x="1064" 
d="M963 20l-21 -20h-225l-21 20l-20 41h-21q-3 -3 -9.5 -8.5t-28.5 -19.5t-46 -24.5t-62.5 -19.5t-78.5 -9q-170 0 -269.5 87t-99.5 240q0 74 21.5 132t59.5 95t82 62t98.5 37t98.5 17t91 5q36 0 72 -5t54 -10l17 -5l21 20v21q0 77 -26.5 100t-117.5 23q-30 0 -46.5 -1.5
t-39 -6.5t-36.5 -18.5t-21 -35.5l-20 -20h-246l-21 20q0 50 22 100.5t69 98.5t135 78t204 30q122 0 205.5 -30t133 -91.5t71 -146t21.5 -203.5v-553zM676 410l-21 20q-41 21 -123 21q-184 0 -184 -123q0 -103 144 -103q77 0 130.5 41.5t53.5 102.5v41zM901 1167l-20 -20
h-164l-41 20l-123 103h-41l-123 -103l-41 -20h-164l-20 20v41l205 205l41 21h245l41 -21l205 -205v-41z" />
    <glyph glyph-name="atilde" unicode="&#xe3;" horiz-adv-x="1064" 
d="M963 20l-21 -20h-225l-21 20l-20 41h-21q-3 -3 -9.5 -8.5t-28.5 -19.5t-46 -24.5t-62.5 -19.5t-78.5 -9q-170 0 -269.5 87t-99.5 240q0 74 21.5 132t59.5 95t82 62t98.5 37t98.5 17t91 5q36 0 72 -5t54 -10l17 -5l21 20v21q0 77 -26.5 100t-117.5 23q-30 0 -46.5 -1.5
t-39 -6.5t-36.5 -18.5t-21 -35.5l-20 -20h-246l-21 20q0 50 22 100.5t69 98.5t135 78t204 30q122 0 205.5 -30t133 -91.5t71 -146t21.5 -203.5v-553zM676 410l-21 20q-41 21 -123 21q-184 0 -184 -123q0 -103 144 -103q77 0 130.5 41.5t53.5 102.5v41zM676 1106
q-56 0 -102.5 22.5t-72 49t-56 49t-56.5 22.5q-32 0 -46.5 -18.5t-14.5 -63.5l-21 -20h-102l-21 20q0 118 64.5 182t161.5 64q56 0 102.5 -22.5t71.5 -49t55.5 -49t56.5 -22.5q32 0 47 19t15 63l20 20h103l20 -20q0 -118 -64 -182t-161 -64z" />
    <glyph glyph-name="adieresis" unicode="&#xe4;" horiz-adv-x="1064" 
d="M963 20l-21 -20h-225l-21 20l-20 41h-21q-3 -3 -9.5 -8.5t-28.5 -19.5t-46 -24.5t-62.5 -19.5t-78.5 -9q-170 0 -269.5 87t-99.5 240q0 74 21.5 132t59.5 95t82 62t98.5 37t98.5 17t91 5q36 0 72 -5t54 -10l17 -5l21 20v21q0 77 -26.5 100t-117.5 23q-30 0 -46.5 -1.5
t-39 -6.5t-36.5 -18.5t-21 -35.5l-20 -20h-246l-21 20q0 50 22 100.5t69 98.5t135 78t204 30q122 0 205.5 -30t133 -91.5t71 -146t21.5 -203.5v-553zM676 410l-21 20q-41 21 -123 21q-184 0 -184 -123q0 -103 144 -103q77 0 130.5 41.5t53.5 102.5v41zM881 1208l-21 -20
h-225l-21 20v205l21 21h225l21 -21v-205zM451 1208l-21 -20h-225l-21 20v205l21 21h225l21 -21v-205z" />
    <glyph glyph-name="aring" unicode="&#xe5;" horiz-adv-x="1064" 
d="M963 20l-21 -20h-225l-21 20l-20 41h-21q-3 -3 -9.5 -8.5t-28.5 -19.5t-46 -24.5t-62.5 -19.5t-78.5 -9q-170 0 -269.5 87t-99.5 240q0 74 21.5 132t59.5 95t82 62t98.5 37t98.5 17t91 5q36 0 72 -5t54 -10l17 -5l21 20v21q0 77 -26.5 100t-117.5 23q-30 0 -46.5 -1.5
t-39 -6.5t-36.5 -18.5t-21 -35.5l-20 -20h-246l-21 20q0 50 22 100.5t69 98.5t135 78t204 30q122 0 205.5 -30t133 -91.5t71 -146t21.5 -203.5v-553zM676 410l-21 20q-41 21 -123 21q-184 0 -184 -123q0 -103 144 -103q77 0 130.5 41.5t53.5 102.5v41zM614 1290q0 32 -19 47
t-63 15t-62.5 -15t-18.5 -47t18 -46.5t63 -14.5t63.5 14.5t18.5 46.5zM307 1290q0 88 64 136.5t161 48.5t161.5 -48.5t64.5 -136.5t-64 -136t-162 -48q-97 0 -161 48t-64 136z" />
    <glyph glyph-name="ae" unicode="&#xe6;" horiz-adv-x="1720" 
d="M1659 512v-82l-21 -20h-634l-21 -21q0 -19 9.5 -43.5t30.5 -53t64.5 -48t100.5 -19.5q48 0 88.5 16.5t54.5 45.5l21 20h245l21 -20q-7 -40 -23 -79.5t-49 -81.5t-79 -73.5t-118.5 -52t-160.5 -20.5q-119 0 -209.5 39.5t-138.5 103.5h-21q-19 -19 -33 -31.5t-50.5 -36
t-74.5 -38t-99.5 -26t-131.5 -11.5q-170 0 -269.5 87t-99.5 240q0 74 21.5 132t59.5 95t82 62t98.5 37t98.5 17t91 5q36 0 72 -5t54 -10l17 -5l21 20v21q0 77 -26.5 100t-117.5 23q-30 0 -46.5 -1.5t-39 -6.5t-36.5 -18.5t-21 -35.5l-20 -20h-246l-21 20q0 50 22 100.5
t69 98.5t135 78t204 30q106 0 194 -28t134 -74h21q47 47 121.5 74.5t164.5 27.5q119 0 214.5 -42.5t155 -116t91 -169t31.5 -204.5zM676 410l-21 20q-41 21 -123 21q-184 0 -184 -123q0 -103 144 -103q77 0 130.5 41.5t53.5 102.5v41zM1331 614l21 21q0 9 -3 25t-15 41
t-30.5 46t-54.5 36.5t-82 15.5t-81.5 -15.5t-54 -36.5t-30.5 -46t-15 -41t-3 -25l21 -21h327z" />
    <glyph glyph-name="ccedilla" unicode="&#xe7;" horiz-adv-x="1105" 
d="M451 -205h-21l-20 21v20l122 123v21q-216 15 -343.5 158.5t-127.5 373.5q0 244 140 388t372 144q87 0 163.5 -20t140.5 -61t108 -109.5t59 -157.5l-20 -20h-246l-20 20q-16 47 -63.5 75t-121.5 28q-107 0 -166 -74.5t-59 -212.5t59 -212.5t166 -74.5q74 0 121.5 28
t63.5 75l20 20h246l20 -20q-15 -87 -57 -154t-100.5 -105.5t-115 -59.5t-116.5 -29l-41 -21l-102 -102h20q41 20 82 20q51 0 87 -36t36 -107q0 -76 -56 -120t-149 -44q-60 0 -98.5 17.5t-85.5 64.5v20l21 21h20q19 -19 43.5 -28.5t43 -11t56.5 -1.5q103 0 103 82t-103 82
q-38 0 -81 -21z" />
    <glyph glyph-name="egrave" unicode="&#xe8;" horiz-adv-x="1105" 
d="M1044 512v-82l-20 -20h-635l-20 -21q0 -19 9.5 -43.5t30.5 -53t64 -48t100 -19.5q48 0 89 16.5t55 45.5l20 20h246l21 -20q-7 -40 -23 -79.5t-49.5 -81.5t-79.5 -73.5t-118.5 -52t-160.5 -20.5q-127 0 -226.5 42.5t-161 116.5t-93 168.5t-31.5 204.5q0 109 31.5 204.5
t91 169t155 116t214.5 42.5q96 0 176.5 -28t138 -77t97.5 -116t59.5 -145.5t19.5 -165.5zM717 614l20 21q0 9 -3 25t-15 41t-30.5 46t-54 36.5t-81.5 15.5t-81.5 -15.5t-54 -36.5t-30.5 -46t-15 -41t-3 -25l20 -21h328zM737 1167l-20 -20h-185l-40 20l-226 205v41l21 21h205
l40 -21l205 -205v-41z" />
    <glyph glyph-name="eacute" unicode="&#xe9;" horiz-adv-x="1105" 
d="M1044 512v-82l-20 -20h-635l-20 -21q0 -19 9.5 -43.5t30.5 -53t64 -48t100 -19.5q48 0 89 16.5t55 45.5l20 20h246l21 -20q-7 -40 -23 -79.5t-49.5 -81.5t-79.5 -73.5t-118.5 -52t-160.5 -20.5q-127 0 -226.5 42.5t-161 116.5t-93 168.5t-31.5 204.5q0 109 31.5 204.5
t91 169t155 116t214.5 42.5q96 0 176.5 -28t138 -77t97.5 -116t59.5 -145.5t19.5 -165.5zM717 614l20 21q0 9 -3 25t-15 41t-30.5 46t-54 36.5t-81.5 15.5t-81.5 -15.5t-54 -36.5t-30.5 -46t-15 -41t-3 -25l20 -21h328zM840 1372l-226 -205l-41 -20h-184l-20 20v41l204 205
l41 21h205l21 -21v-41z" />
    <glyph glyph-name="ecircumflex" unicode="&#xea;" horiz-adv-x="1105" 
d="M1044 512v-82l-20 -20h-635l-20 -21q0 -19 9.5 -43.5t30.5 -53t64 -48t100 -19.5q48 0 89 16.5t55 45.5l20 20h246l21 -20q-7 -40 -23 -79.5t-49.5 -81.5t-79.5 -73.5t-118.5 -52t-160.5 -20.5q-127 0 -226.5 42.5t-161 116.5t-93 168.5t-31.5 204.5q0 109 31.5 204.5
t91 169t155 116t214.5 42.5q96 0 176.5 -28t138 -77t97.5 -116t59.5 -145.5t19.5 -165.5zM717 614l20 21q0 9 -3 25t-15 41t-30.5 46t-54 36.5t-81.5 15.5t-81.5 -15.5t-54 -36.5t-30.5 -46t-15 -41t-3 -25l20 -21h328zM922 1167l-21 -20h-164l-41 20l-123 103h-41
l-122 -103l-41 -20h-164l-21 20v41l205 205l41 21h246l41 -21l205 -205v-41z" />
    <glyph glyph-name="edieresis" unicode="&#xeb;" horiz-adv-x="1105" 
d="M1044 512v-82l-20 -20h-635l-20 -21q0 -19 9.5 -43.5t30.5 -53t64 -48t100 -19.5q48 0 89 16.5t55 45.5l20 20h246l21 -20q-7 -40 -23 -79.5t-49.5 -81.5t-79.5 -73.5t-118.5 -52t-160.5 -20.5q-127 0 -226.5 42.5t-161 116.5t-93 168.5t-31.5 204.5q0 109 31.5 204.5
t91 169t155 116t214.5 42.5q96 0 176.5 -28t138 -77t97.5 -116t59.5 -145.5t19.5 -165.5zM717 614l20 21q0 9 -3 25t-15 41t-30.5 46t-54 36.5t-81.5 15.5t-81.5 -15.5t-54 -36.5t-30.5 -46t-15 -41t-3 -25l20 -21h328zM901 1208l-20 -20h-226l-20 20v205l20 21h226l20 -21
v-205zM471 1208l-20 -20h-226l-20 20v205l20 21h226l20 -21v-205z" />
    <glyph glyph-name="igrave" unicode="&#xec;" horiz-adv-x="532" 
d="M410 20l-21 -20h-246l-20 20v984l20 20h246l21 -20v-984zM451 1167l-21 -20h-184l-41 20l-225 205v41l20 21h205l41 -21l205 -205v-41z" />
    <glyph glyph-name="iacute" unicode="&#xed;" horiz-adv-x="532" 
d="M410 20l-21 -20h-246l-20 20v984l20 20h246l21 -20v-984zM553 1372l-225 -205l-41 -20h-185l-20 20v41l205 205l41 21h204l21 -21v-41z" />
    <glyph glyph-name="icircumflex" unicode="&#xee;" horiz-adv-x="532" 
d="M410 20l-21 -20h-246l-20 20v984l20 20h246l21 -20v-984zM635 1167l-21 -20h-163l-41 20l-123 103h-41l-123 -103l-41 -20h-164l-20 20v41l204 205l41 21h246l41 -21l205 -205v-41z" />
    <glyph glyph-name="idieresis" unicode="&#xef;" horiz-adv-x="532" 
d="M410 20l-21 -20h-246l-20 20v984l20 20h246l21 -20v-984zM614 1208l-20 -20h-225l-21 20v205l21 21h225l20 -21v-205zM184 1208l-20 -20h-225l-21 20v205l21 21h225l20 -21v-205z" />
    <glyph glyph-name="eth" unicode="&#xf0;" horiz-adv-x="1146" 
d="M430 1434q98 0 184 -21h21l41 41l41 21h123l20 -21v-82l-41 -41v-20q139 -124 202.5 -307t63.5 -472q0 -262 -133.5 -407t-378.5 -145q-102 0 -189.5 32t-155.5 95t-107 167t-39 238q0 248 118 390t332 142q46 0 86 -8.5t64.5 -20t42.5 -23.5t25 -20l8 -9h20
q-30 121 -123 184h-20l-41 -41l-41 -21h-123l-20 21v82l20 20v21q-43 14 -67.5 17t-75.5 3l-21 21v20l123 123zM799 512q0 149 -57.5 218t-168.5 69q-94 0 -149 -75.5t-55 -211.5t55 -211.5t149 -75.5q111 0 168.5 69t57.5 218z" />
    <glyph glyph-name="ntilde" unicode="&#xf1;" 
d="M1085 20l-20 -20h-246l-20 20v594q0 84 -38.5 134.5t-125.5 50.5q-225 0 -225 -267v-512l-21 -20h-246l-20 20v984l20 20h226l20 -20l21 -62h20q102 102 266 102q182 0 285.5 -111t103.5 -298v-615zM737 1106q-56 0 -102.5 22.5t-71.5 49t-55.5 49t-56.5 22.5
q-32 0 -47 -19t-15 -63l-20 -20h-103l-20 20q0 118 64 182t161 64q56 0 102.5 -22.5t72 -49t56 -49t56.5 -22.5q32 0 46.5 18.5t14.5 63.5l21 20h102l21 -20q0 -118 -64.5 -182t-161.5 -64z" />
    <glyph glyph-name="ograve" unicode="&#xf2;" horiz-adv-x="1146" 
d="M1085 512q0 -244 -140 -388t-372 -144t-372 144t-140 388t140 388t372 144t372 -144t140 -388zM799 512q0 138 -59 212.5t-167 74.5q-107 0 -166 -74.5t-59 -212.5t59 -212.5t166 -74.5q108 0 167 74.5t59 212.5zM778 1167l-20 -20h-185l-41 20l-225 205v41l21 21h204
l41 -21l205 -205v-41z" />
    <glyph glyph-name="oacute" unicode="&#xf3;" horiz-adv-x="1146" 
d="M1085 512q0 -244 -140 -388t-372 -144t-372 144t-140 388t140 388t372 144t372 -144t140 -388zM799 512q0 138 -59 212.5t-167 74.5q-107 0 -166 -74.5t-59 -212.5t59 -212.5t166 -74.5q108 0 167 74.5t59 212.5zM840 1372l-226 -205l-41 -20h-184l-20 20v41l204 205
l41 21h205l21 -21v-41z" />
    <glyph glyph-name="ocircumflex" unicode="&#xf4;" horiz-adv-x="1146" 
d="M1085 512q0 -244 -140 -388t-372 -144t-372 144t-140 388t140 388t372 144t372 -144t140 -388zM799 512q0 138 -59 212.5t-167 74.5q-107 0 -166 -74.5t-59 -212.5t59 -212.5t166 -74.5q108 0 167 74.5t59 212.5zM922 1167l-21 -20h-164l-41 20l-123 103h-41l-122 -103
l-41 -20h-164l-21 20v41l205 205l41 21h246l41 -21l205 -205v-41z" />
    <glyph glyph-name="otilde" unicode="&#xf5;" horiz-adv-x="1146" 
d="M1085 512q0 -244 -140 -388t-372 -144t-372 144t-140 388t140 388t372 144t372 -144t140 -388zM799 512q0 138 -59 212.5t-167 74.5q-107 0 -166 -74.5t-59 -212.5t59 -212.5t166 -74.5q108 0 167 74.5t59 212.5zM696 1106q-56 0 -102.5 22.5t-71.5 49t-55.5 49
t-56.5 22.5q-32 0 -47 -19t-15 -63l-20 -20h-103l-20 20q0 118 64 182t161 64q56 0 102.5 -22.5t72 -49t56 -49t56.5 -22.5q32 0 46.5 18.5t14.5 63.5l21 20h102l21 -20q0 -118 -64.5 -182t-161.5 -64z" />
    <glyph glyph-name="odieresis" unicode="&#xf6;" horiz-adv-x="1146" 
d="M1085 512q0 -244 -140 -388t-372 -144t-372 144t-140 388t140 388t372 144t372 -144t140 -388zM799 512q0 138 -59 212.5t-167 74.5q-107 0 -166 -74.5t-59 -212.5t59 -212.5t166 -74.5q108 0 167 74.5t59 212.5zM922 1208l-21 -20h-225l-21 20v205l21 21h225l21 -21
v-205zM492 1208l-21 -20h-225l-21 20v205l21 21h225l21 -21v-205z" />
    <glyph glyph-name="divide" unicode="&#xf7;" horiz-adv-x="1228" 
d="M1106 389l-21 -20h-942l-20 20v225l20 21h942l21 -21v-225zM778 778l-20 -20h-287l-20 20v205l20 21h287l20 -21v-205zM778 20l-20 -20h-287l-20 20v205l20 21h287l20 -21v-205z" />
    <glyph glyph-name="oslash" unicode="&#xf8;" horiz-adv-x="1146" 
d="M1085 512q0 -244 -140 -388t-372 -144q-190 0 -327 102h-21l-41 -41l-41 -21h-20l-21 21v102l41 41v21q-82 110 -82 307q0 244 140 388t372 144q191 0 328 -102h21l41 41l41 21h20l20 -21v-102l-40 -41v-21q81 -109 81 -307zM369 410l348 327v21q-41 41 -144 41
q-107 0 -166 -74.5t-59 -212.5v-102h21zM778 614l-348 -327v-21q41 -41 143 -41q108 0 167 74.5t59 212.5v102h-21z" />
    <glyph glyph-name="ugrave" unicode="&#xf9;" horiz-adv-x="1167" 
d="M102 1004l21 20h246l20 -20v-594q0 -84 38.5 -134.5t125.5 -50.5q103 0 154 66.5t51 179.5v533l20 20h246l20 -20v-984l-20 -20h-225l-21 20l-20 62h-21q-2 -4 -7.5 -11t-26 -24.5t-45.5 -31t-69.5 -24.5t-96.5 -11q-182 0 -286 111t-104 298v615zM778 1167l-20 -20h-185
l-41 20l-225 205v41l21 21h204l41 -21l205 -205v-41z" />
    <glyph glyph-name="uacute" unicode="&#xfa;" horiz-adv-x="1167" 
d="M102 1004l21 20h246l20 -20v-594q0 -84 38.5 -134.5t125.5 -50.5q103 0 154 66.5t51 179.5v533l20 20h246l20 -20v-984l-20 -20h-225l-21 20l-20 62h-21q-2 -4 -7.5 -11t-26 -24.5t-45.5 -31t-69.5 -24.5t-96.5 -11q-182 0 -286 111t-104 298v615zM840 1372l-226 -205
l-41 -20h-184l-20 20v41l204 205l41 21h205l21 -21v-41z" />
    <glyph glyph-name="ucircumflex" unicode="&#xfb;" horiz-adv-x="1167" 
d="M102 1004l21 20h246l20 -20v-594q0 -84 38.5 -134.5t125.5 -50.5q103 0 154 66.5t51 179.5v533l20 20h246l20 -20v-984l-20 -20h-225l-21 20l-20 62h-21q-2 -4 -7.5 -11t-26 -24.5t-45.5 -31t-69.5 -24.5t-96.5 -11q-182 0 -286 111t-104 298v615zM942 1167l-20 -20h-164
l-41 20l-123 103h-41l-123 -103l-41 -20h-164l-20 20v41l205 205l41 21h245l41 -21l205 -205v-41z" />
    <glyph glyph-name="udieresis" unicode="&#xfc;" horiz-adv-x="1167" 
d="M102 1004l21 20h246l20 -20v-594q0 -84 38.5 -134.5t125.5 -50.5q103 0 154 66.5t51 179.5v533l20 20h246l20 -20v-984l-20 -20h-225l-21 20l-20 62h-21q-2 -4 -7.5 -11t-26 -24.5t-45.5 -31t-69.5 -24.5t-96.5 -11q-182 0 -286 111t-104 298v615zM922 1208l-21 -20h-225
l-21 20v205l21 21h225l21 -21v-205zM492 1208l-21 -20h-225l-21 20v205l21 21h225l21 -21v-205z" />
    <glyph glyph-name="yacute" unicode="&#xfd;" horiz-adv-x="1085" 
d="M1024 799l-328 -819q-27 -69 -51 -114t-60 -89.5t-80.5 -69t-109 -40t-149.5 -15.5h-103l-20 20v205l20 21h103q73 0 100 17t43 65v20l-328 799v205l21 20h184l21 -20l245 -697h21l246 697l20 20h185l20 -20v-205zM819 1372l-225 -205l-41 -20h-184l-21 20v41l205 205
l41 21h205l20 -21v-41z" />
    <glyph glyph-name="thorn" unicode="&#xfe;" horiz-adv-x="1228" 
d="M1147 512q0 -120 -36 -221t-97.5 -168.5t-143.5 -105t-174 -37.5q-52 0 -98 10.5t-75.5 25.5t-51.5 30t-31 26l-10 10h-20v-471l-21 -21h-246l-20 21v1802l20 21h246l21 -21v-471h20q3 4 10 11t31 24.5t52 31t74.5 24.5t98.5 11q190 0 320.5 -146.5t130.5 -385.5z
M860 512q0 132 -54 209.5t-171 77.5t-171 -77.5t-54 -209.5t54 -209.5t171 -77.5t171 77.5t54 209.5z" />
    <glyph glyph-name="ydieresis" unicode="&#xff;" horiz-adv-x="1085" 
d="M1024 799l-328 -819q-27 -69 -51 -114t-60 -89.5t-80.5 -69t-109 -40t-149.5 -15.5h-103l-20 20v205l20 21h103q73 0 100 17t43 65v20l-328 799v205l21 20h184l21 -20l245 -697h21l246 697l20 20h185l20 -20v-205zM901 1208l-20 -20h-226l-20 20v205l20 21h226l20 -21
v-205zM451 1208l-21 -20h-225l-21 20v205l21 21h225l21 -21v-205z" />
    <glyph glyph-name="dotlessi" unicode="&#x131;" horiz-adv-x="532" 
d="M410 20l-21 -20h-246l-20 20v984l20 20h246l21 -20v-984z" />
    <glyph glyph-name="Lslash" unicode="&#x141;" horiz-adv-x="1167" 
d="M184 246h-20l-82 -62h-62l-20 21v205l164 122l20 41v840l21 21h246l20 -21v-635h21l327 246h62l20 -20v-205l-409 -307l-21 -41v-185l21 -20h634l21 -21v-205l-21 -20h-921l-21 20v226z" />
    <glyph glyph-name="lslash" unicode="&#x142;" horiz-adv-x="512" 
d="M143 430h-20l-82 -61h-61l-21 20v205l164 123l20 41v655l21 21h246l20 -21v-450h21l81 61h62l20 -20v-205l-163 -123l-21 -41v-615l-20 -20h-246l-21 20v410z" />
    <glyph glyph-name="OE" unicode="&#x152;" horiz-adv-x="2109" 
d="M1044 20v62h-20q-46 -46 -134 -74t-194 -28q-101 0 -192 25t-173 81.5t-141 140.5t-94 209.5t-35 280.5t35 280.5t94 209.5t141 140.5t173 81.5t192 25q106 0 194 -28t134 -74h20v61l21 21h901l21 -21v-205l-21 -20h-614l-21 -21v-286l21 -21h573l21 -20v-205l-21 -21
h-573l-21 -20v-328l21 -20h614l21 -21v-205l-21 -20h-901zM1044 389v655q-66 164 -327 164q-193 0 -281 -126t-88 -365q0 -240 88 -366t281 -126q261 0 327 164z" />
    <glyph glyph-name="oe" unicode="&#x153;" horiz-adv-x="1822" 
d="M1761 512v-82l-20 -20h-635l-21 -21q0 -19 9.5 -43.5t30.5 -53t64.5 -48t100.5 -19.5q48 0 89 16.5t55 45.5l20 20h246l20 -20q-7 -40 -23 -79.5t-49 -81.5t-79 -73.5t-118.5 -52t-160.5 -20.5q-226 0 -348 122h-20q-51 -51 -142.5 -86.5t-206.5 -35.5q-232 0 -372 144
t-140 388t140 388t372 144q115 0 206.5 -35.5t142.5 -86.5h20q122 122 328 122q96 0 176.5 -28t138 -77t97.5 -116t59.5 -145.5t19.5 -165.5zM799 512q0 138 -59 212.5t-167 74.5q-107 0 -166 -74.5t-59 -212.5t59 -212.5t166 -74.5q108 0 167 74.5t59 212.5zM1434 614
l20 21q0 9 -3 25t-15 41t-30.5 46t-54 36.5t-81.5 15.5t-82 -15.5t-54.5 -36.5t-30.5 -46t-15 -41t-3 -25l21 -21h328z" />
    <glyph glyph-name="Scaron" unicode="&#x160;" horiz-adv-x="1351" 
d="M1270 410q0 -88 -33.5 -163t-101.5 -136t-185.5 -96t-273.5 -35q-150 0 -265 36t-186 100t-107 148.5t-36 186.5l20 20h246l21 -20q0 -113 75 -169.5t252 -56.5q139 0 213 47t74 138q0 105 -75 149.5t-294 75.5q-115 16 -202 44.5t-160 77.5t-111.5 126.5t-38.5 181.5
q0 79 32.5 147.5t97.5 123.5t173.5 86.5t249.5 31.5q279 0 416 -117.5t137 -312.5l-20 -20h-246l-20 20q0 97 -62 140.5t-225 43.5q-246 0 -246 -143q0 -91 75.5 -132.5t293.5 -72.5q512 -73 512 -450zM287 1823l20 20h164l41 -20l123 -103h41l123 103l41 20h164l20 -20v-41
l-205 -205l-41 -21h-246l-40 21l-205 205v41z" />
    <glyph glyph-name="scaron" unicode="&#x161;" horiz-adv-x="1024" 
d="M963 307q0 -64 -25 -120.5t-76.5 -104t-141.5 -75t-208 -27.5q-211 0 -331 95.5t-120 252.5l21 20h246l20 -20q0 -58 41 -80.5t123 -22.5q164 0 164 82q0 13 -2.5 24t-9.5 19.5t-13.5 15t-20 11.5t-23 8.5t-29 7t-32 5.5t-36.5 6t-39 6q-32 5 -60.5 11.5t-70 19.5t-75 29
t-69 41.5t-59.5 56.5t-39.5 74.5t-15.5 94.5q0 64 24.5 117.5t74.5 97t135 68t196 24.5q192 0 311 -79t119 -228l-20 -20h-246l-21 20q0 62 -143 62q-77 0 -110 -18.5t-33 -63.5q0 -17 6.5 -30.5t21 -22.5t29.5 -15.5t40.5 -11.5t44.5 -8t51.5 -7.5t51.5 -7.5
q35 -6 58.5 -10.5t63.5 -16t67.5 -25t60 -37.5t52.5 -53t33.5 -71.5t13.5 -93.5zM143 1413l21 21h164l41 -21l123 -102h40l123 102l41 21h164l21 -21v-41l-205 -205l-41 -20h-246l-41 20l-205 205v41z" />
    <glyph glyph-name="Ydieresis" unicode="&#x178;" horiz-adv-x="1228" 
d="M1167 1208l-409 -676v-512l-21 -20h-245l-21 20v512l-410 676v205l21 21h143l41 -21l328 -553h41l328 553l41 21h143l20 -21v-205zM963 1618l-21 -21h-225l-21 21v205l21 20h225l21 -20v-205zM532 1618l-20 -21h-225l-21 21v205l21 20h225l20 -20v-205z" />
    <glyph glyph-name="Zcaron" unicode="&#x17d;" horiz-adv-x="1269" 
d="M1167 20l-20 -20h-1024l-21 20v226l21 41l655 880v21h-635l-20 20v205l20 21h963l20 -21v-225l-20 -41l-655 -881v-20h696l20 -21v-205zM266 1823l21 20h164l41 -20l122 -103h41l123 103l41 20h164l21 -20v-41l-205 -205l-41 -21h-246l-41 21l-205 205v41z" />
    <glyph glyph-name="zcaron" unicode="&#x17e;" horiz-adv-x="1064" 
d="M983 20l-20 -20h-861l-20 20v226l20 41l471 471v20h-450l-21 21v205l21 20h819l21 -20v-226l-21 -41l-471 -471v-20h492l20 -21v-205zM164 1413l20 21h164l41 -21l123 -102h41l123 102l41 21h164l20 -21v-41l-205 -205l-41 -20h-245l-41 20l-205 205v41z" />
    <glyph glyph-name="florin" unicode="&#x192;" horiz-adv-x="1269" 
d="M410 61l122 738l-20 20h-164l-20 21v164l20 20h205l20 20q18 102 47.5 174t65 114t88 65t104 30t126.5 7h122l21 -21v-205l-21 -20h-102q-92 0 -120.5 -25.5t-43.5 -118.5l21 -20h286l21 -20v-164l-21 -21h-327l-21 -20l-123 -738q-30 -183 -85 -286.5t-136 -144
t-209 -40.5h-123l-20 21v205l20 20h103q36 0 62.5 12.5t42.5 30t28 51t18 60t13 71.5z" />
    <glyph glyph-name="circumflex" unicode="&#x2c6;" horiz-adv-x="1024" 
d="M881 1167l-21 -20h-164l-41 20l-123 103h-40l-123 -103l-41 -20h-164l-21 20v41l205 205l41 21h246l41 -21l205 -205v-41z" />
    <glyph glyph-name="caron" unicode="&#x2c7;" horiz-adv-x="1024" 
d="M143 1413l21 21h164l41 -21l123 -102h40l123 102l41 21h164l21 -21v-41l-205 -205l-41 -20h-246l-41 20l-205 205v41z" />
    <glyph glyph-name="uni02C9" unicode="&#x2c9;" horiz-adv-x="1024" 
d="M881 1188l-21 -21h-696l-21 21v184l21 21h696l21 -21v-184z" />
    <glyph glyph-name="breve" unicode="&#x2d8;" horiz-adv-x="1024" 
d="M348 1434l21 -21q0 -63 34 -93t109 -30t109 30t34 93l21 21h123l20 -21q0 -128 -79 -207.5t-228 -79.5t-228 79.5t-79 207.5l20 21h123z" />
    <glyph glyph-name="dotaccent" unicode="&#x2d9;" horiz-adv-x="1024" 
d="M655 1208l-20 -20h-246l-20 20v205l20 21h246l20 -21v-205z" />
    <glyph glyph-name="ring" unicode="&#x2da;" horiz-adv-x="1024" 
d="M594 1290q0 32 -19 47t-63 15t-63 -15t-19 -47t18.5 -46.5t63.5 -14.5t63.5 14.5t18.5 46.5zM287 1290q0 88 64 136.5t161 48.5t161 -48.5t64 -136.5t-64 -136t-161 -48t-161 48t-64 136z" />
    <glyph glyph-name="ogonek" unicode="&#x2db;" horiz-adv-x="1024" 
d="M430 0h246q-93 -15 -149 -59t-56 -105q0 -82 102 -82q27 0 53 5t38 11l12 5l20 -21v-123l-20 -20q-5 -5 -15 -11.5t-52 -18t-97 -11.5q-124 0 -195 59.5t-71 165.5q0 75 53 132.5t131 72.5z" />
    <glyph glyph-name="tilde" unicode="&#x2dc;" horiz-adv-x="1024" 
d="M635 1106q-56 0 -102.5 22.5t-72 49t-56 49t-56.5 22.5q-32 0 -46.5 -18.5t-14.5 -63.5l-21 -20h-102l-21 20q0 118 64.5 182t161.5 64q56 0 102.5 -22.5t71.5 -49t55.5 -49t56.5 -22.5q32 0 47 19t15 63l20 20h103l20 -20q0 -118 -64 -182t-161 -64z" />
    <glyph glyph-name="hungarumlaut" unicode="&#x2dd;" horiz-adv-x="1024" 
d="M512 1372l-225 -205l-41 -20h-185l-20 20v41l205 205l41 21h205l20 -21v-41zM1004 1372l-226 -205l-41 -20h-184l-21 20v41l205 205l41 21h205l21 -21v-41z" />
    <glyph glyph-name="uni0394" unicode="&#x394;" horiz-adv-x="1269" 
d="M82 0l-21 20v205l410 1188l21 21h286l21 -21l409 -1188v-205l-20 -20h-1106zM614 1085l-245 -819v-20h532v20l-246 819h-41z" />
    <glyph glyph-name="uni03A9" unicode="&#x3a9;" horiz-adv-x="1597" 
d="M389 246v20q-56 56 -81.5 82t-64 69.5t-54.5 69.5t-37.5 66t-29.5 77t-14 84.5t-6 104.5q0 156 56.5 279.5t154 200t221.5 116t265 39.5t265 -39.5t221 -116t153.5 -200t56.5 -279.5q0 -57 -6 -104.5t-14 -84.5t-29.5 -77t-37.5 -66t-54.5 -69.5t-64 -69.5t-81.5 -82v-20
h226l20 -21v-205l-20 -20h-512l-21 20v226l21 41q55 55 81 82t64 69t54.5 67t37.5 61.5t29 69t14 74t6 89.5q0 111 -31.5 192.5t-89 127.5t-129 67.5t-159.5 21.5t-159.5 -21.5t-129 -67.5t-89.5 -127.5t-32 -192.5q0 -48 6 -89.5t14 -73.5t29.5 -69.5t37.5 -62t54.5 -67
t64 -68.5t81.5 -82l20 -41v-226l-20 -20h-512l-21 20v205l21 21h225z" />
    <glyph glyph-name="uni03BC" unicode="&#x3bc;" horiz-adv-x="1310" 
d="M860 61h-20q-3 -3 -7.5 -8.5t-22 -19.5t-37 -24.5t-52 -19.5t-66.5 -9t-66 8.5t-52.5 20t-36 23.5t-22.5 20l-7 9h-20v-450l-21 -21h-246l-20 21v1393l20 20h246l21 -20v-512q0 -113 50.5 -179.5t153.5 -66.5t154 66.5t51 179.5v512l21 20h245l21 -20v-984l-21 -20h-225
l-20 20z" />
    <glyph glyph-name="pi" unicode="&#x3c0;" horiz-adv-x="1310" 
d="M1188 20l-21 -20h-409l-21 20v738l-20 20h-144l-20 -20v-738l-21 -20h-245l-21 20v738l-20 20h-123l-21 21v205l21 20h1065l20 -20v-205l-20 -21h-144l-20 -20v-492l20 -20h123l21 -21v-205z" />
    <glyph glyph-name="endash" unicode="&#x2013;" horiz-adv-x="1269" 
d="M1147 430l-21 -20h-983l-20 20v205l20 20h983l21 -20v-205z" />
    <glyph glyph-name="emdash" unicode="&#x2014;" horiz-adv-x="2293" 
d="M2171 430l-21 -20h-2007l-20 20v205l20 20h2007l21 -20v-205z" />
    <glyph glyph-name="quoteleft" unicode="&#x2018;" horiz-adv-x="655" 
d="M143 1147l21 61l164 205l41 21h123v-41l-123 -205v-21l20 -20h62l20 -21v-266l-20 -20h-287l-21 20v287z" />
    <glyph glyph-name="quoteright" unicode="&#x2019;" horiz-adv-x="655" 
d="M512 1126l-20 -61l-164 -205l-41 -20h-123v41l123 204v21l-21 20h-61l-21 21v266l21 21h287l20 -21v-287z" />
    <glyph glyph-name="quotesinglbase" unicode="&#x201a;" horiz-adv-x="655" 
d="M492 0l-21 -61l-164 -205l-41 -21h-123v41l123 205v21l-20 20h-62l-20 20v267l20 20h287l21 -20v-287z" />
    <glyph glyph-name="quotedblleft" unicode="&#x201c;" horiz-adv-x="1146" 
d="M635 1147l20 61l164 205l41 21h123v-41l-123 -205v-21l21 -20h61l21 -21v-266l-21 -20h-287l-20 20v287zM143 1147l21 61l164 205l41 21h123v-41l-123 -205v-21l20 -20h62l20 -21v-266l-20 -20h-287l-21 20v287z" />
    <glyph glyph-name="quotedblright" unicode="&#x201d;" horiz-adv-x="1146" 
d="M512 1126l-20 -61l-164 -205l-41 -20h-123v41l123 204v21l-21 20h-61l-21 21v266l21 21h287l20 -21v-287zM1004 1126l-21 -61l-164 -205l-41 -20h-123v41l123 204v21l-20 20h-62l-20 21v266l20 21h287l21 -21v-287z" />
    <glyph glyph-name="quotedblbase" unicode="&#x201e;" horiz-adv-x="1146" 
d="M492 0l-21 -61l-164 -205l-41 -21h-123v41l123 205v21l-20 20h-62l-20 20v267l20 20h287l21 -20v-287zM983 0l-20 -61l-164 -205l-41 -21h-123v41l123 205v21l-21 20h-61l-21 20v267l21 20h287l20 -20v-287z" />
    <glyph glyph-name="dagger" unicode="&#x2020;" horiz-adv-x="1269" 
d="M778 -389l-20 -21h-246l-20 21v1147l-21 20h-369l-20 21v205l20 20h369l21 20v369l20 21h246l20 -21v-369l21 -20h368l21 -20v-205l-21 -21h-368l-21 -20v-1147z" />
    <glyph glyph-name="daggerdbl" unicode="&#x2021;" horiz-adv-x="1269" 
d="M492 1413l20 21h246l20 -21v-369l21 -20h368l21 -20v-205l-21 -21h-368l-21 -20v-492l21 -20h368l21 -21v-205l-21 -20h-368l-21 -20v-369l-20 -21h-246l-20 21v369l-21 20h-369l-20 20v205l20 21h369l21 20v492l-21 20h-369l-20 21v205l20 20h369l21 20v369z" />
    <glyph glyph-name="bullet" unicode="&#x2022;" horiz-adv-x="962" 
d="M799 532v-20l-307 -307h-21l-307 307v20l307 308h21z" />
    <glyph glyph-name="ellipsis" unicode="&#x2026;" horiz-adv-x="1720" 
d="M492 20l-21 -20h-287l-20 20v267l20 20h287l21 -20v-267zM1024 20l-20 -20h-287l-21 20v267l21 20h287l20 -20v-267zM1556 20l-20 -20h-287l-20 20v267l20 20h287l20 -20v-267z" />
    <glyph glyph-name="perthousand" unicode="&#x2030;" horiz-adv-x="2396" 
d="M451 676q-179 0 -274 107t-95 282t95 282t274 107t273.5 -107t94.5 -282t-94.5 -282t-273.5 -107zM1434 1208l-779 -1188l-20 -20h-123l-20 20v205l778 1188l20 21h123l21 -21v-205zM348 1065q0 -164 103 -164q102 0 102 164t-102 164q-103 0 -103 -164zM1577 369
q0 163 -102 163q-103 0 -103 -163q0 -164 103 -164q102 0 102 164zM2048 369q0 163 -102 163q-103 0 -103 -163q0 -164 103 -164q102 0 102 164zM2314 369q0 -175 -94.5 -282t-273.5 -107q-72 0 -132 23.5t-94 57.5h-20q-34 -34 -93.5 -57.5t-131.5 -23.5q-179 0 -274 107
t-95 282t95 282t274 107q71 0 131 -24t94 -58h20q34 34 94 58t132 24q179 0 273.5 -107t94.5 -282z" />
    <glyph glyph-name="guilsinglleft" unicode="&#x2039;" horiz-adv-x="983" 
d="M819 82l-20 -21h-246l-41 21l-328 328l-20 41v122l20 41l328 328l41 21h246l20 -21v-82l-348 -328v-40l348 -328v-82z" />
    <glyph glyph-name="guilsinglright" unicode="&#x203a;" horiz-adv-x="983" 
d="M184 61l-20 21v82l348 328v40l-348 328v82l20 21h246l41 -21l328 -328l20 -41v-122l-20 -41l-328 -328l-41 -21h-246z" />
    <glyph glyph-name="fraction" unicode="&#x2044;" horiz-adv-x="1269" 
d="M1106 1208l-778 -1188l-21 -20h-123l-20 20v205l778 1188l21 21h122l21 -21v-205z" />
    <glyph glyph-name="Euro" unicode="&#x20ac;" horiz-adv-x="1495" 
d="M881 430h-287l-21 -20q15 -90 86 -137.5t181 -47.5q124 0 197.5 47t88.5 138l21 20h246l20 -20q-15 -201 -164.5 -315.5t-408.5 -114.5q-229 0 -370.5 107t-203.5 323l-20 20h-185l-20 21v163l20 21h144l20 20v82l-20 21h-144l-20 20v164l20 21h164l21 20q46 231 197 351
t397 120q249 0 396 -108.5t177 -321.5l-20 -20h-246l-21 20q-16 83 -86 133.5t-200 50.5q-134 0 -202.5 -57t-84.5 -168l20 -20h390l20 -21v-164l-20 -20h-431l-20 -21v-82l20 -20h349l20 -21v-163z" />
    <glyph glyph-name="uni2117" unicode="&#x2117;" horiz-adv-x="1720" 
d="M1024 840q0 61 -61 61h-164l-21 -20v-82l21 -21h164q61 0 61 62zM963 594h-164l-21 -21v-204l-20 -21h-164l-21 21v696l21 20h369q126 0 196 -62t70 -183t-70.5 -183.5t-195.5 -62.5zM123 717q0 151 58 287.5t156.5 235t235 156.5t287.5 58t287.5 -58t235 -156.5
t156.5 -235t58 -287.5t-58 -287.5t-156.5 -235t-235 -156.5t-287.5 -58t-287.5 58t-235 156.5t-156.5 235t-58 287.5zM348 717q0 -232 142 -382.5t370 -150.5t370 150.5t142 382.5t-142 382t-370 150t-370 -150t-142 -382z" />
    <glyph glyph-name="trademark" unicode="&#x2122;" horiz-adv-x="1781" 
d="M41 1413l20 21h635l21 -21v-123l-21 -20h-204l-21 -21v-532l-20 -21h-144l-20 21v532l-21 21h-205l-20 20v123zM1311 696h-144l-20 21l-123 307h-20v-307l-21 -21h-143l-21 21v696l21 21h184l20 -21l185 -471h20l185 471l20 21h184l21 -21v-696l-21 -21h-143l-20 21v307
h-21l-123 -307z" />
    <glyph glyph-name="Omega" unicode="&#x2126;" horiz-adv-x="1597" 
d="M389 246v20q-56 56 -81.5 82t-64 69.5t-54.5 69.5t-37.5 66t-29.5 77t-14 84.5t-6 104.5q0 156 56.5 279.5t154 200t221.5 116t265 39.5t265 -39.5t221 -116t153.5 -200t56.5 -279.5q0 -57 -6 -104.5t-14 -84.5t-29.5 -77t-37.5 -66t-54.5 -69.5t-64 -69.5t-81.5 -82v-20
h226l20 -21v-205l-20 -20h-512l-21 20v226l21 41q55 55 81 82t64 69t54.5 67t37.5 61.5t29 69t14 74t6 89.5q0 111 -31.5 192.5t-89 127.5t-129 67.5t-159.5 21.5t-159.5 -21.5t-129 -67.5t-89.5 -127.5t-32 -192.5q0 -48 6 -89.5t14 -73.5t29.5 -69.5t37.5 -62t54.5 -67
t64 -68.5t81.5 -82l20 -41v-226l-20 -20h-512l-21 20v205l21 21h225z" />
    <glyph glyph-name="arrowleft" unicode="&#x2190;" horiz-adv-x="1761" 
d="M676 1024h225l21 -20v-21l-349 -348v-21h1004l20 -20v-164l-20 -20h-1004v-21l349 -348v-21l-21 -20h-225l-41 20l-471 472v40l471 472z" />
    <glyph glyph-name="arrowup" unicode="&#x2191;" horiz-adv-x="1351" 
d="M164 696v226l20 41l471 471h41l471 -471l21 -41v-226l-21 -20h-20l-348 348h-21v-1004l-20 -20h-164l-21 20v1004h-20l-348 -348h-21z" />
    <glyph glyph-name="arrowright" unicode="&#x2192;" horiz-adv-x="1761" 
d="M860 1024h225l41 -20l471 -472v-40l-471 -472l-41 -20h-225l-20 20v21l348 348v21h-1004l-20 20v164l20 20h1004v21l-348 348v21z" />
    <glyph glyph-name="arrowdown" unicode="&#x2193;" horiz-adv-x="1351" 
d="M164 512v225l20 21h21l348 -348h20v1003l21 21h164l20 -21v-1003h21l348 348h20l21 -21v-225l-21 -41l-471 -471h-41l-471 471z" />
    <glyph glyph-name="arrowboth" unicode="&#x2194;" horiz-adv-x="2170" 
d="M901 0h-225l-41 20l-471 472v40l471 472l41 20h225l21 -20v-21l-349 -348v-21h1024v21l-348 348v21l21 20h225l41 -20l471 -472v-40l-471 -472l-41 -20h-225l-21 20v21l348 348v21h-1024v-21l349 -348v-21z" />
    <glyph glyph-name="arrowupdn" unicode="&#x2195;" horiz-adv-x="1351" 
d="M1188 328v-226l-21 -41l-471 -471h-41l-471 471l-20 41v226l20 20h21l348 -348h20v1024h-20l-348 -348h-21l-20 20v226l20 41l471 471h41l471 -471l21 -41v-226l-21 -20h-20l-348 348h-21v-1024h21l348 348h20z" />
    <glyph glyph-name="uni2196" unicode="&#x2196;" horiz-adv-x="1433" 
d="M328 553l-144 143l-20 41v656l41 41h655l41 -21l143 -143v-21l-20 -20h-471v-21l717 -716v-21l-144 -143h-20l-717 716h-20v-471l-21 -20h-20z" />
    <glyph glyph-name="uni2197" unicode="&#x2197;" horiz-adv-x="1433" 
d="M1249 696l-143 -143h-21l-20 20v471h-21l-716 -716h-21l-143 143v21l717 716v21h-471l-21 20v21l143 143l41 21h656l41 -41v-656z" />
    <glyph glyph-name="uni2198" unicode="&#x2198;" horiz-adv-x="1433" 
d="M184 737l144 144h20l21 -21v-471h20l717 717h20l144 -143v-21l-717 -717v-20h471l20 -21v-20l-143 -144l-41 -20h-655l-41 41v655z" />
    <glyph glyph-name="uni2199" unicode="&#x2199;" horiz-adv-x="1433" 
d="M1106 881l143 -144l21 -41v-655l-41 -41h-656l-41 20l-143 144v20l21 21h471v20l-717 717v21l143 143h21l716 -717h21v471l20 21h21z" />
    <glyph glyph-name="partialdiff" unicode="&#x2202;" horiz-adv-x="1269" 
d="M287 1393l20 20q9 5 26.5 11.5t76 18t122.5 11.5q167 0 286 -59.5t191 -179.5t105 -287.5t33 -395.5q0 -270 -137.5 -411t-374.5 -141q-102 0 -189.5 32t-156 95t-107.5 167t-39 238q0 248 118.5 390t332.5 142q46 0 86 -8.5t64.5 -20t42 -23.5t25.5 -20l7 -9h21
q0 23 -6 53.5t-26.5 73t-52 76.5t-90 58.5t-133.5 24.5q-64 0 -120 -10.5t-80 -20.5l-25 -10l-20 21v164zM860 512q0 150 -57 218.5t-168 68.5q-205 0 -205 -287q0 -136 55.5 -211.5t149.5 -75.5q111 0 168 68.5t57 218.5z" />
    <glyph glyph-name="Delta" unicode="&#x2206;" horiz-adv-x="1269" 
d="M82 0l-21 20v205l410 1188l21 21h286l21 -21l409 -1188v-205l-20 -20h-1106zM614 1085l-245 -819v-20h532v20l-246 819h-41z" />
    <glyph glyph-name="product" unicode="&#x220f;" horiz-adv-x="1310" 
d="M1044 -389l-20 -21h-246l-20 21v1556l-21 21h-164l-20 -21v-1556l-21 -21h-245l-21 21v1556l-20 21h-144l-20 20v205l20 21h1106l21 -21v-205l-21 -20h-143l-21 -21v-1556z" />
    <glyph glyph-name="summation" unicode="&#x2211;" horiz-adv-x="1269" 
d="M1167 20l21 -20v-389l-21 -21h-1065l-20 21v225l20 41l492 635v20l-492 615l-20 41v225l20 21h1045l20 -21v-369l-20 -20h-246l-20 20v123l-21 21h-430v-21l410 -512l20 -41v-184l-20 -41l-410 -532v-21h451l20 21v143l21 20h245z" />
    <glyph glyph-name="minus" unicode="&#x2212;" horiz-adv-x="1146" 
d="M1024 430l-20 -20h-861l-20 20v205l20 20h861l20 -20v-205z" />
    <glyph glyph-name="uni2215" unicode="&#x2215;" horiz-adv-x="1269" 
d="M1106 1208l-778 -1188l-21 -20h-123l-20 20v205l778 1188l21 21h122l21 -21v-205z" />
    <glyph glyph-name="uni2219" unicode="&#x2219;" horiz-adv-x="655" 
d="M492 410l-21 -21h-287l-20 21v266l20 20h287l21 -20v-266z" />
    <glyph glyph-name="radical" unicode="&#x221a;" horiz-adv-x="1228" 
d="M471 471l287 942l41 21h348l20 -21v-205l-20 -20h-164l-41 -21l-369 -1147l-20 -20h-205l-20 20l-246 779v205l20 20h185l20 -20l144 -533h20z" />
    <glyph glyph-name="infinity" unicode="&#x221e;" horiz-adv-x="1454" 
d="M737 471h-20q-44 -44 -71.5 -69t-76.5 -62t-99.5 -55.5t-100.5 -18.5q-125 0 -206 72.5t-81 193.5t81 194t206 73q50 0 100.5 -18.5t99.5 -55.5t76.5 -62t71.5 -69h20q44 44 71.5 69t76.5 62t99.5 55.5t100.5 18.5q125 0 206 -73t81 -194t-81 -193.5t-206 -72.5
q-50 0 -100.5 18.5t-99.5 55.5t-76.5 62t-71.5 69zM369 737q-92 0 -148.5 -56.5t-56.5 -148.5t56.5 -148t148.5 -56q44 0 86 15.5t85 48t68.5 55.5t67.5 65v41q-42 42 -67.5 65t-68.5 55.5t-85 48t-86 15.5zM1085 737q-44 0 -86 -15.5t-85 -48t-68.5 -55.5t-67.5 -65v-41
q42 -42 67.5 -65t68.5 -55.5t85 -48t86 -15.5q92 0 148.5 56t56.5 148t-56.5 148.5t-148.5 56.5z" />
    <glyph glyph-name="integral" unicode="&#x222b;" horiz-adv-x="1351" 
d="M471 20l205 1024q23 113 61 190t93.5 120.5t121.5 61.5t154 18h123l20 -21l-41 -205l-20 -20h-62q-87 0 -117 -30.5t-46 -113.5l-205 -1024q-46 -230 -146 -330t-284 -100h-123l-21 21l41 205l21 20h61q44 0 74 13t47 42t25.5 55.5t17.5 73.5z" />
    <glyph glyph-name="approxequal" unicode="&#x2248;" horiz-adv-x="1269" 
d="M102 614l-20 21q0 165 86.5 267t261.5 102q76 0 147 -29t114.5 -63.5t89.5 -63.5t79 -29q82 0 82 103l21 20h204l21 -20q0 -160 -92.5 -264.5t-255.5 -104.5q-62 0 -120 19t-100 46t-78.5 54t-70.5 46t-61 19q-82 0 -82 -102l-21 -21h-205zM102 82l-20 20q0 165 86.5 267
t261.5 102q62 0 120 -19t100 -46t78.5 -54t70.5 -46t61 -19q82 0 82 102l21 21h204l21 -21q0 -160 -92.5 -264.5t-255.5 -104.5q-76 0 -147 29t-114.5 63.5t-89.5 63.5t-79 29q-82 0 -82 -103l-21 -20h-205z" />
    <glyph glyph-name="notequal" unicode="&#x2260;" 
d="M1044 184l-20 -20h-471l-41 -21l-41 -82l-20 -20h-103l-20 20v41l20 41v21h-184l-21 20v205l21 21h266l41 20l82 164v20h-389l-21 21v205l21 20h471l41 21l41 82l20 20h103l20 -20v-41l-20 -41v-21h184l20 -20v-205l-20 -21h-266l-41 -20l-82 -164v-20h389l20 -21v-205z
" />
    <glyph glyph-name="lessequal" unicode="&#x2264;" 
d="M1044 20l-20 -20h-881l-20 20v205l20 21h881l20 -21v-205zM123 799l20 20l553 205h328l20 -20v-123l-20 -21l-512 -184v-21l512 -163l20 -21v-123l-20 -20h-328l-553 204l-20 21v246z" />
    <glyph glyph-name="greaterequal" unicode="&#x2265;" 
d="M143 0l-20 20v205l20 21h881l20 -21v-205l-20 -20h-881zM1024 819l20 -20v-246l-20 -21l-553 -204h-328l-20 20v123l20 21l512 163v21l-512 184l-20 21v123l20 20h328z" />
    <glyph glyph-name="lozenge" unicode="&#x25ca;" horiz-adv-x="1228" 
d="M1126 840v-246l-368 -574l-21 -20h-245l-21 20l-369 574v246l369 573l21 21h245l21 -21zM369 737v-41l225 -368h20l246 368v41l-246 369h-20z" />
    <glyph glyph-name="zero.osf" horiz-adv-x="1146" 
d="M61 512q0 232 142 382t370 150t370 -150t142 -382t-142 -382t-370 -150t-370 150t-142 382zM348 512q0 -126 60 -206.5t165 -80.5t165.5 80.5t60.5 206.5t-60.5 206.5t-165.5 80.5t-165 -80.5t-60 -206.5z" />
    <glyph glyph-name="one.osf" horiz-adv-x="696" 
d="M553 0h-246l-20 20v635h-21l-82 -82h-102l-21 21v205l205 205l41 20h246l20 -20v-984z" />
    <glyph glyph-name="two.osf" horiz-adv-x="1105" 
d="M1044 20l-20 -20h-922l-20 20v205l20 41l410 205q58 29 86 45t60.5 41t45.5 53.5t13 65.5q0 52 -39.5 87.5t-124.5 35.5q-91 0 -137.5 -43t-46.5 -121l-21 -21h-246l-20 21q0 185 128 297t343 112q110 0 199 -34t142.5 -89t81.5 -118t28 -127q0 -73 -20 -131t-58.5 -98.5
t-76 -66t-91.5 -52.5l-123 -62v-20h389l20 -21v-205z" />
    <glyph glyph-name="three.osf" horiz-adv-x="1105" 
d="M1065 61q0 -101 -35 -189t-100.5 -156t-168 -107t-229.5 -39q-119 0 -214.5 35t-154.5 93.5t-90.5 130.5t-31.5 151l20 20h246l21 -20q0 -68 52 -116t152 -48q119 0 182.5 67t63.5 178q0 120 -55 183t-150 63q-36 0 -66.5 -10.5t-42.5 -20.5l-13 -10h-103l-20 21v184
l286 287v20h-491l-21 21v205l21 20h840l20 -20v-205l-20 -41l-267 -246v-20q69 0 135 -30.5t118.5 -84.5t84 -137t31.5 -179z" />
    <glyph glyph-name="four.osf" horiz-adv-x="1126" 
d="M1004 -389l-21 -21h-246l-20 21v369l-21 20h-635l-20 20v226l20 41l615 717l41 20h266l21 -20v-1393zM717 266v410h-21l-348 -410v-20h348z" />
    <glyph glyph-name="five.osf" 
d="M1106 102q0 -252 -128.5 -392t-383.5 -140q-225 0 -351 110t-141 300l21 20h246l20 -20q15 -90 63 -127t142 -37q113 0 169 59.5t56 206.5q0 113 -51 179.5t-154 66.5q-71 0 -127 -26.5t-98 -96.5l-41 -21l-205 21l-20 20l41 779l20 20h840l20 -20v-205l-20 -21h-573
l-21 -20l-20 -287h20q3 4 8 11t25.5 24.5t46 31t70 24.5t96.5 11q195 0 312.5 -133.5t117.5 -337.5z" />
    <glyph glyph-name="six.osf" 
d="M614 1208q-58 0 -101.5 -25t-66.5 -60t-36.5 -83.5t-17 -84.5t-3.5 -74h21q2 3 7.5 8.5t26 20t45.5 25t69.5 19.5t96.5 9q92 0 174 -33.5t143.5 -94t97.5 -149.5t36 -194q0 -229 -137.5 -370.5t-354.5 -141.5q-285 0 -408.5 179.5t-123.5 557.5q0 230 55 392t175.5 253.5
t301.5 91.5q210 0 333 -95t138 -253l-20 -21h-246l-20 21q-11 33 -29.5 54t-57.5 34.5t-98 13.5zM819 471q0 113 -51 179.5t-154 66.5q-117 0 -171 -66t-54 -180t54 -180t171 -66q92 0 148.5 69t56.5 177z" />
    <glyph glyph-name="seven.osf" horiz-adv-x="1064" 
d="M1004 778l-574 -1167l-20 -21h-164l-21 21v205l471 942v20h-614l-21 21v205l21 20h901l21 -20v-226z" />
    <glyph glyph-name="eight.osf" horiz-adv-x="1146" 
d="M348 430q0 -86 55.5 -145.5t169.5 -59.5t170 59.5t56 145.5q0 93 -60 149t-166 56t-165.5 -55.5t-59.5 -149.5zM389 1044q0 -80 47.5 -132t136.5 -52t137 52t48 132q0 25 -9.5 51.5t-29 53t-57.5 43t-89 16.5t-89 -16.5t-57.5 -43t-28.5 -53t-9 -51.5zM61 430
q0 125 55.5 208t129.5 120v20q-144 97 -144 287q0 78 31 147.5t89 123.5t148.5 86t202.5 32t202.5 -32t148.5 -86t89 -123.5t31 -147.5q0 -191 -143 -287v-20q74 -37 129 -120t55 -208q0 -87 -32 -166t-93 -143t-161 -102.5t-226 -38.5t-226 38.5t-161 102.5t-93 143
t-32 166z" />
    <glyph glyph-name="nine.osf" 
d="M573 -184q58 0 101.5 25t66.5 60t37 83.5t17.5 84.5t3.5 74h-21q-3 -3 -9.5 -8.5t-29.5 -20t-49.5 -25t-69 -19.5t-88.5 -9q-187 0 -318.5 140t-131.5 352q0 228 139.5 359.5t372.5 131.5q255 0 383.5 -182.5t128.5 -513.5q0 -395 -124 -586.5t-409 -191.5
q-208 0 -321 94t-129 254l20 21h246l21 -21q16 -50 53.5 -76t109.5 -26zM369 553q0 -120 54.5 -183t149.5 -63q117 0 171.5 66t54.5 180q0 129 -62.5 187.5t-163.5 58.5q-95 0 -149.5 -63t-54.5 -183z" />
    <glyph glyph-name="numbersign.tf" 
d="M1065 430l-21 -20h-163l-21 -21l-102 -369l-21 -20h-143l-21 20v205l41 164l-20 21h-164l-20 -21l-103 -369l-20 -20h-144l-20 20v205l41 164l-21 21h-102l-21 20v164l21 20h184l41 185l-20 20h-103l-20 21v164l20 20h164l21 20l102 369l21 21h143l20 -21v-205l-41 -164
l21 -20h164l20 20l103 369l20 21h143l21 -21v-205l-41 -164l20 -20h103l20 -20v-164l-20 -21h-164l-20 -20l-41 -164l20 -21h102l21 -20v-164zM512 799l-41 -164l21 -21h163l21 21l41 164l-21 20h-164z" />
    <glyph glyph-name="dollar.tf" 
d="M1147 410q0 -63 -15 -119.5t-48 -108.5t-82.5 -92t-122 -69t-162.5 -41l-21 -21v-123l-20 -20h-164l-20 20v123l-21 21q-221 30 -325.5 153.5t-104.5 317.5l20 20h246l21 -20q0 -198 143 -226l21 21v368l-21 21q-197 49 -303.5 151.5t-106.5 278.5q0 89 35 161t94 118.5
t130 74t151 35.5l21 21v122l20 21h164l20 -21v-122l21 -21q188 -31 288.5 -139.5t100.5 -290.5l-21 -20h-245l-21 20q0 74 -27.5 121t-74.5 63l-21 -20v-307l21 -21q65 -13 123.5 -34.5t116 -59t98.5 -85.5t66.5 -118t25.5 -153zM860 410q0 86 -37 126.5t-106 57.5l-21 -21
v-327l21 -21q143 28 143 185zM348 1065q0 -124 123 -164l21 21v266l-21 20q-40 0 -81.5 -37.5t-41.5 -105.5z" />
    <glyph glyph-name="plus.tf" 
d="M1126 410l-20 -21h-348l-21 -20v-349l-20 -20h-205l-20 20v349l-21 20h-348l-21 21v204l21 21h348l21 20v349l20 20h205l20 -20v-349l21 -20h348l20 -21v-204z" />
    <glyph glyph-name="zero.tf" 
d="M61 717q0 194 39.5 338.5t112.5 230.5t168 127t213 41t213 -41t167.5 -127t112 -230.5t39.5 -338.5t-39.5 -338.5t-112 -230.5t-167.5 -127t-213 -41t-213 41t-168 127t-112.5 230.5t-39.5 338.5zM348 717q0 -182 28 -291.5t80.5 -155t137.5 -45.5t137.5 45.5t80.5 155
t28 291.5t-28 291t-80.5 154.5t-137.5 45.5t-137.5 -45.5t-80.5 -154.5t-28 -291z" />
    <glyph glyph-name="one.tf" 
d="M82 20v205l20 21h369l21 20v778h-21l-143 -143l-41 -20h-103l-20 20v205l307 307l41 21h246l20 -21v-1147l21 -20h307l20 -21v-205l-20 -20h-1004z" />
    <glyph glyph-name="two.tf" 
d="M1106 20l-21 -20h-962l-21 20v226l21 41l369 307q122 101 184 171.5t82 121.5t20 117q0 95 -47 149.5t-137 54.5q-116 0 -160.5 -51.5t-44.5 -152.5l-20 -21h-246l-21 21q0 70 15.5 133.5t52 122t91.5 101t140.5 68t192.5 25.5q112 0 202.5 -35.5t148.5 -95.5t89 -137
t31 -162q0 -111 -38 -200.5t-108 -166t-202 -186.5l-246 -205v-20h614l21 -21v-205z" />
    <glyph glyph-name="three.tf" 
d="M1106 471q0 -101 -35 -189t-100.5 -156t-168 -107t-229.5 -39q-119 0 -214.5 35t-154.5 93t-90.5 130.5t-31.5 150.5l20 21h246l21 -21q0 -68 52 -116t152 -48q119 0 182.5 67.5t63.5 178.5q0 120 -55 183t-150 63q-36 0 -66.5 -10.5t-43.5 -20.5l-12 -10h-103l-20 20
v185l286 286v21h-491l-21 20v205l21 21h840l20 -21v-205l-20 -41l-267 -245v-21q69 0 135 -30.5t118.5 -84.5t84 -136.5t31.5 -178.5z" />
    <glyph glyph-name="four.tf" 
d="M1024 20l-20 -20h-246l-21 20v369l-20 21h-635l-21 20v225l21 41l614 717l41 21h267l20 -21v-1393zM737 676v409h-20l-348 -409v-21h348z" />
    <glyph glyph-name="five.tf" 
d="M1126 512q0 -252 -128.5 -392t-383.5 -140q-225 0 -350.5 109.5t-140.5 299.5l20 21h246l21 -21q15 -90 62.5 -127t141.5 -37q113 0 169.5 60t56.5 207q0 113 -51 179t-154 66q-71 0 -127 -26.5t-98 -96.5l-41 -20l-205 20l-21 21l41 778l21 21h839l21 -21v-205l-21 -20
h-573l-20 -21l-21 -286h21q2 4 7.5 11t26 24.5t45.5 31t69.5 24.5t96.5 11q195 0 312.5 -133.5t117.5 -337.5z" />
    <glyph glyph-name="six.tf" 
d="M614 1208q-58 0 -101.5 -25t-66.5 -60t-36.5 -83.5t-17 -84.5t-3.5 -74h21q2 3 7.5 8.5t26 20t45.5 25t69.5 19.5t96.5 9q92 0 174 -33.5t143.5 -94t97.5 -149.5t36 -194q0 -229 -137.5 -370.5t-354.5 -141.5q-285 0 -408.5 179.5t-123.5 557.5q0 230 55 392t175.5 253.5
t301.5 91.5q210 0 333 -95t138 -253l-20 -21h-246l-20 21q-11 33 -29.5 54t-57.5 34.5t-98 13.5zM819 471q0 113 -51 179.5t-154 66.5q-117 0 -171 -66t-54 -180t54 -180t171 -66q92 0 148.5 69t56.5 177z" />
    <glyph glyph-name="seven.tf" 
d="M1065 1188l-573 -1168l-21 -20h-164l-20 20v205l471 942v21h-615l-20 20v205l20 21h901l21 -21v-225z" />
    <glyph glyph-name="eight.tf" 
d="M369 430q0 -86 55.5 -145.5t169.5 -59.5t169.5 59.5t55.5 145.5q0 94 -59.5 149.5t-165.5 55.5t-165.5 -55.5t-59.5 -149.5zM410 1044q0 -80 47.5 -132t136.5 -52t136.5 52t47.5 132q0 25 -9 51.5t-28.5 53t-57.5 43t-89 16.5t-89 -16.5t-57.5 -43t-28.5 -53t-9 -51.5z
M82 430q0 125 55 208t129 120v20q-143 96 -143 287q0 78 31 147.5t89 123.5t148.5 86t202.5 32t202.5 -32t148.5 -86t89 -123.5t31 -147.5q0 -191 -143 -287v-20q74 -37 129 -120t55 -208q0 -87 -32 -166t-93 -143t-161 -102.5t-226 -38.5t-226 38.5t-161 102.5t-93 143
t-32 166z" />
    <glyph glyph-name="nine.tf" 
d="M573 225q58 0 101.5 25t66.5 60.5t37 84t17.5 84.5t3.5 74h-21q-3 -3 -9.5 -8.5t-29.5 -20t-49.5 -25t-69 -19.5t-88.5 -9q-187 0 -318.5 140t-131.5 352q0 228 139.5 359.5t372.5 131.5q255 0 383.5 -182.5t128.5 -513.5q0 -395 -124 -586.5t-409 -191.5q-208 0 -321 94
t-129 254l20 20h246l21 -20q16 -50 53.5 -76.5t109.5 -26.5zM369 963q0 -120 54.5 -183t149.5 -63q117 0 171.5 66t54.5 180q0 129 -62 187t-164 58q-95 0 -149.5 -62.5t-54.5 -182.5z" />
    <glyph glyph-name="less.tf" 
d="M143 594l21 41l737 389h103l20 -20v-185l-20 -41l-512 -246v-40l512 -246l20 -41v-185l-20 -20h-103l-737 389l-21 41v164z" />
    <glyph glyph-name="equal.tf" 
d="M1044 635l-20 -21h-860l-21 21v205l21 20h860l20 -20v-205zM1044 184l-20 -20h-860l-21 20v205l21 21h860l20 -21v-205z" />
    <glyph glyph-name="greater.tf" 
d="M1044 430l-20 -41l-737 -389h-103l-20 20v185l20 41l512 246v40l-512 246l-20 41v185l20 20h103l737 -389l20 -41v-164z" />
    <glyph glyph-name="asciitilde.tf" 
d="M61 348l-20 21q0 164 86.5 266t261.5 102q62 0 120 -19t100 -46t78.5 -54t70.5 -46t61 -19q82 0 82 102l21 21h204l21 -21q0 -160 -92.5 -264t-255.5 -104q-62 0 -120 19t-100 46t-78.5 54t-70.5 46t-61 19q-82 0 -82 -102l-21 -21h-205z" />
    <glyph glyph-name="cent.tf" 
d="M389 512q0 -117 39 -183.5t104 -82.5l21 20v492l-21 20q-65 -16 -104 -82.5t-39 -183.5zM553 -123v82l-21 21q-192 32 -311 170.5t-119 361.5t119 361.5t311 170.5l21 21v82l20 20h82l21 -20v-82l20 -21q65 -8 127.5 -32t120 -64.5t96 -105.5t45.5 -146l-20 -20h-246
l-20 20q-27 82 -103 82l-20 -20v-492l20 -20q76 0 103 82l20 20h246l20 -20q-7 -81 -45.5 -146t-96 -105.5t-120 -64.5t-127.5 -32l-20 -21v-82l-21 -20h-82z" />
    <glyph glyph-name="sterling.tf" 
d="M942 594l-20 -21h-369l-21 -20v-123q0 -124 -81 -164v-20h675l21 -21v-205l-21 -20h-1044l-21 20v205l21 21h20q75 0 109.5 45t34.5 139v123l-21 20h-123l-20 21v164l20 20h123l21 21v225q0 192 111 311t319 119t319 -119t111 -311l-21 -20h-245l-21 20q0 94 -34 139
t-109 45t-109.5 -45t-34.5 -139v-225l21 -21h369l20 -20v-164z" />
    <glyph glyph-name="currency.tf" 
d="M1044 758q7 -9 17.5 -27.5t27.5 -82t17 -136.5t-15.5 -134.5t-30.5 -86.5l-16 -25v-20l144 -144v-20l-184 -184h-21l-143 143h-21q-9 -7 -26.5 -17t-76 -27t-122.5 -17t-120 15t-80 31l-25 15h-21l-143 -143h-21l-184 184v20l143 144v20q-7 9 -17 27.5t-27 82t-17 136.5
q0 46 6.5 88t15 69.5t17.5 48.5t15 30l7 10v20l-143 144v20l184 184h21l143 -143h21q9 7 26.5 17t76 27t122.5 17t120 -15t80 -31l25 -15h21l143 143h21l184 -184v-20l-144 -144v-20zM594 225q225 0 225 287t-225 287t-225 -287t225 -287z" />
    <glyph glyph-name="yen.tf" 
d="M737 225v-205l-20 -20h-246l-20 20v205l-21 21h-246l-20 20v164l20 21h246l21 20l-41 82l-41 20h-246l-21 21v164l21 20h164v21l-205 409v205l20 21h144l41 -21l286 -635h41l287 635l41 21h143l21 -21v-205l-205 -409v-21h164l20 -20v-164l-20 -21h-246l-41 -20l-41 -82
l21 -20h246l20 -21v-164l-20 -20h-246z" />
    <glyph glyph-name="section.tf" 
d="M328 573q0 -45 15.5 -76.5t40 -50t68 -34.5t84.5 -25t105.5 -25.5t116.5 -33.5h20q82 27 82 143q0 30 -10 54t-33 43t-48 33.5t-67.5 29.5t-78 26t-93.5 28.5t-100 31.5h-20q-82 -27 -82 -144zM963 225v-20q122 -91 122 -266q0 -172 -122 -270.5t-349 -98.5
q-118 0 -213 24.5t-167.5 75t-112 134.5t-39.5 196l20 20h246l21 -20q0 -95 55.5 -139.5t189.5 -44.5q185 0 185 143q0 49 -42 84t-108.5 56.5t-147.5 42.5t-162 52.5t-147.5 75.5t-108.5 121.5t-42 181.5q0 99 56.5 164t127.5 82v21q-123 92 -123 266q0 156 132.5 252
t359.5 96q223 0 357 -110.5t134 -319.5l-20 -20h-246l-20 20q0 94 -52.5 139t-173.5 45q-99 0 -141.5 -35t-42.5 -88q0 -44 32.5 -78t86 -55.5t121.5 -45t139 -44t139 -55t121.5 -76.5t86 -109t32.5 -151q0 -99 -56.5 -164t-127.5 -82z" />
    <glyph glyph-name="logicalnot.tf" 
d="M1024 184l-20 -20h-205l-21 20v205l-20 21h-615l-20 20v205l20 20h861l20 -20v-451z" />
    <glyph glyph-name="plusminus.tf" 
d="M1044 594l-20 -21h-287l-20 -20v-164l-21 -20h-204l-21 20v164l-20 20h-287l-21 21v205l21 20h287l20 21v164l21 20h204l21 -20v-164l20 -21h287l20 -20v-205zM1044 20l-20 -20h-860l-21 20v205l21 21h860l20 -21v-205z" />
    <glyph glyph-name="multiply.tf" 
d="M1106 164l-143 -144h-21l-328 328h-20l-328 -328h-20l-144 144v20l328 328v20l-328 328v21l144 143h20l328 -328h20l328 328h21l143 -143v-21l-328 -328v-20l328 -328v-20z" />
    <glyph glyph-name="divide.tf" 
d="M1085 389l-20 -20h-942l-21 20v225l21 21h942l20 -21v-225zM758 778l-21 -20h-286l-21 20v205l21 21h286l21 -21v-205zM758 20l-21 -20h-286l-21 20v205l21 21h286l21 -21v-205z" />
    <glyph glyph-name="florin.tf" 
d="M348 61l123 738l-20 20h-164l-21 21v164l21 20h205l20 20q13 74 31.5 131.5t40.5 98.5t52.5 70t61 46.5t72 27t80.5 13t92 3.5h123l20 -21v-205l-20 -20h-102q-92 0 -120.5 -25.5t-43.5 -118.5l20 -20h287l20 -20v-164l-20 -21h-328l-20 -20l-123 -738
q-30 -183 -85 -286.5t-136 -144t-209 -40.5h-123l-21 21v205l21 20h102q36 0 62.5 12.5t42.5 30t28 51t18 60t13 71.5z" />
    <glyph glyph-name="Euro.tf" 
d="M471 451l-20 -21q29 -205 225 -205q91 0 140.5 45.5t64.5 139.5l20 20h246l20 -20q-15 -200 -145.5 -315t-345.5 -115q-119 0 -214.5 35.5t-157.5 97.5t-97 142.5t-43 174.5l-21 21h-102l-21 20v164l21 20h102l21 21v61l-21 21h-102l-21 20v164l21 21h102l21 20
q15 218 149.5 344.5t362.5 126.5q430 0 491 -430l-20 -20h-246l-20 20q-15 93 -64.5 138.5t-140.5 45.5q-59 0 -104 -20.5t-70.5 -54t-38 -72t-12.5 -78.5l20 -20h328l20 -21v-164l-20 -20h-328l-20 -21v-61l20 -21h246l20 -20v-164l-20 -20h-246z" />
    <glyph glyph-name="minus.tf" 
d="M1044 430l-20 -20h-860l-21 20v205l21 20h860l20 -20v-205z" />
    <glyph glyph-name="zero.tosf" 
d="M61 512q0 234 145.5 383t387.5 149t387 -149t145 -383t-145 -383t-387 -149t-387.5 149t-145.5 383zM348 512q0 -135 68 -211t178 -76t178 76t68 211t-68 211t-178 76t-178 -76t-68 -211z" />
    <glyph glyph-name="one.tosf" 
d="M123 20v205l20 21h349l20 20v369h-20l-103 -103l-41 -20h-102l-21 20v205l267 267l40 20h246l21 -20v-738l20 -20h287l20 -21v-205l-20 -20h-963z" />
    <glyph glyph-name="two.tosf" 
d="M1085 20l-20 -20h-922l-20 20v205l20 41l410 205q58 29 86 45t60.5 41t45.5 53.5t13 65.5q0 52 -39.5 87.5t-124.5 35.5q-91 0 -137.5 -43t-46.5 -121l-21 -21h-246l-20 21q0 185 128 297t343 112q110 0 199 -34t142 -89t81 -118t28 -127q0 -59 -14.5 -109t-36 -84.5
t-56 -65t-65.5 -49.5t-73 -40l-123 -62v-20h389l20 -21v-205z" />
    <glyph glyph-name="three.tosf" 
d="M1106 61q0 -101 -35 -189t-100.5 -156t-168 -107t-229.5 -39q-119 0 -214.5 35t-154.5 93.5t-90.5 130.5t-31.5 151l20 20h246l21 -20q0 -68 52 -116t152 -48q119 0 182.5 67t63.5 178q0 120 -55 183t-150 63q-36 0 -66.5 -10.5t-43.5 -20.5l-12 -10h-103l-20 21v184
l286 287v20h-491l-21 21v205l21 20h840l20 -20v-205l-20 -41l-267 -246v-20q69 0 135 -30.5t118.5 -84.5t84 -137t31.5 -179z" />
    <glyph glyph-name="four.tosf" 
d="M1024 -389l-20 -21h-246l-21 21v369l-20 20h-635l-21 20v226l21 41l614 717l41 20h267l20 -20v-1393zM737 266v410h-20l-348 -410v-20h348z" />
    <glyph glyph-name="five.tosf" 
d="M1106 102q0 -252 -128.5 -392t-383.5 -140q-225 0 -351 110t-141 300l21 20h246l20 -20q15 -90 63 -127t142 -37q113 0 169 59.5t56 206.5q0 113 -51 179.5t-154 66.5q-71 0 -127 -26.5t-98 -96.5l-41 -21l-205 21l-20 20l41 779l20 20h840l20 -20v-205l-20 -21h-573
l-21 -20l-20 -287h20q3 4 8 11t25.5 24.5t46 31t70 24.5t96.5 11q195 0 312.5 -133.5t117.5 -337.5z" />
    <glyph glyph-name="six.tosf" 
d="M635 1208q-58 0 -101.5 -25t-66.5 -60t-36.5 -83.5t-17 -84.5t-3.5 -74h20q3 3 8 8.5t25.5 20t46 25t70 19.5t96.5 9q123 0 225 -57t163.5 -165.5t61.5 -248.5q0 -229 -137 -370.5t-354 -141.5q-286 0 -409.5 179.5t-123.5 557.5q0 171 32 305.5t96 231.5t166.5 148.5
t238.5 51.5q210 0 333 -95t138 -253l-21 -21h-245l-21 21q-11 33 -29.5 54t-57 34.5t-97.5 13.5zM840 471q0 113 -51 179.5t-154 66.5q-117 0 -171 -66t-54 -180t54 -180t171 -66q92 0 148.5 69t56.5 177z" />
    <glyph glyph-name="seven.tosf" 
d="M1065 778l-573 -1167l-21 -21h-164l-20 21v205l471 942v20h-615l-20 21v205l20 20h901l21 -20v-226z" />
    <glyph glyph-name="eight.tosf" 
d="M369 430q0 -86 55.5 -145.5t169.5 -59.5t169.5 59.5t55.5 145.5q0 94 -59.5 149.5t-165.5 55.5t-165.5 -55.5t-59.5 -149.5zM410 1044q0 -80 47.5 -132t136.5 -52t136.5 52t47.5 132q0 25 -9 51.5t-28.5 53t-57.5 43t-89 16.5t-89 -16.5t-57.5 -43t-28.5 -53t-9 -51.5z
M82 430q0 125 55 208t129 120v20q-143 96 -143 287q0 78 31 147.5t89 123.5t148.5 86t202.5 32t202.5 -32t148.5 -86t89 -123.5t31 -147.5q0 -191 -143 -287v-20q74 -37 129 -120t55 -208q0 -87 -32 -166t-93 -143t-161 -102.5t-226 -38.5t-226 38.5t-161 102.5t-93 143
t-32 166z" />
    <glyph glyph-name="nine.tosf" 
d="M573 -184q58 0 101.5 25t66.5 60t37 83.5t17.5 84.5t3.5 74h-21q-3 -3 -9.5 -8.5t-29.5 -20t-49.5 -25t-69 -19.5t-88.5 -9q-187 0 -318.5 140t-131.5 352q0 228 139.5 359.5t372.5 131.5q255 0 383.5 -182.5t128.5 -513.5q0 -395 -124 -586.5t-409 -191.5
q-208 0 -321 94t-129 254l20 21h246l21 -21q16 -50 53.5 -76t109.5 -26zM369 553q0 -120 54.5 -183t149.5 -63q117 0 171.5 66t54.5 180q0 129 -62.5 187.5t-163.5 58.5q-95 0 -149.5 -63t-54.5 -183z" />
    <glyph glyph-name="parenleft.case" horiz-adv-x="921" 
d="M164 717q0 122 1 183.5t23.5 142t39.5 116t87 122t126 143t194 194.5l41 20h61l21 -20v-205l-97 -97t-71.5 -77.5t-56 -69.5t-35.5 -65.5t-26.5 -71.5t-12 -82t-8 -103.5t-0.5 -129.5t0.5 -129.5t8 -103.5t12 -82.5t26.5 -71.5t36 -65.5t56 -69.5t71.5 -78t96.5 -97v-204
l-21 -21h-61l-41 21q-138 138 -194 194.5t-126 143t-87 122t-39.5 116t-23.5 142t-1 183.5z" />
    <glyph glyph-name="parenright.case" horiz-adv-x="921" 
d="M758 717q0 -122 -1 -183.5t-23.5 -142t-39.5 -116t-87 -122t-126 -143t-194 -194.5l-41 -21h-62l-20 21v204q67 67 96.5 97t71.5 78t56 69.5t36 65.5t26.5 71.5t12 82.5t8 103.5t0.5 129.5t-0.5 129.5t-8 103.5t-12 82t-26.5 71.5t-35.5 65.5t-56 69.5t-71.5 77.5l-97 97
v205l20 20h62l41 -20q138 -138 194 -194.5t126 -143t87 -122t39.5 -116t23.5 -142t1 -183.5z" />
    <glyph glyph-name="hyphen.case" horiz-adv-x="880" 
d="M758 635l-21 -21h-594l-20 21v205l20 20h594l21 -20v-205z" />
    <glyph glyph-name="at.case" horiz-adv-x="1925" 
d="M963 963q-34 0 -61 -10t-51.5 -35.5t-38 -76t-13.5 -124.5t13.5 -124.5t38 -76t51.5 -35.5t61 -10t60.5 10t51 35.5t38 76t13.5 124.5t-13.5 124.5t-38 76t-51 35.5t-60.5 10zM1126 1085l21 62l20 20h185l20 -20v-615q0 -102 82 -102q61 0 81.5 58.5t20.5 228.5
q0 141 -35.5 255.5t-106.5 200t-186 132.5t-265 47q-141 0 -256 -53t-187.5 -142t-111.5 -202t-39 -238q0 -132 39 -246.5t111.5 -201.5t187 -137t256.5 -50q196 0 348 61h41l20 -20v-164q-171 -102 -409 -102q-251 0 -443.5 112.5t-294.5 307.5t-102 440q0 189 62.5 350
t173 272.5t266.5 174.5t338 63q385 0 612 -231t227 -629q0 -253 -96 -372.5t-272 -119.5q-85 0 -148 35.5t-98 87.5h-21q-3 -4 -9.5 -11t-29.5 -24.5t-49 -31t-68.5 -24.5t-88.5 -11q-78 0 -147.5 31t-124 89t-86.5 148.5t-32 202.5q0 118 31.5 211t84.5 148.5t117.5 83.5
t135.5 28q40 0 76 -10.5t58.5 -26t39.5 -30.5t24 -25l7 -11h20z" />
    <glyph glyph-name="bracketleft.case" horiz-adv-x="839" 
d="M676 -184l-21 -21h-471l-20 21v1802l20 20h471l21 -20v-205l-21 -20h-184l-20 -21v-1311l20 -20h184l21 -21v-204z" />
    <glyph glyph-name="bracketright.case" horiz-adv-x="839" 
d="M184 -205l-20 21v204l20 21h185l20 20v1311l-20 21h-185l-20 20v205l20 20h471l21 -20v-1802l-21 -21h-471z" />
    <glyph glyph-name="underscore.case" 
d="M1106 20l-21 -20h-983l-20 20v205l20 21h983l21 -21v-205z" />
    <glyph glyph-name="braceleft.case" horiz-adv-x="962" 
d="M492 737v-41q75 -15 109 -75t34 -170v-328q0 -46 18 -64t64 -18h61l21 -21v-204l-21 -21h-123q-46 0 -87 8t-82.5 29.5t-71 55t-48 88.5t-18.5 126v349q0 88 -41.5 125.5t-122.5 37.5l-20 21v164l20 20q81 0 122.5 38t41.5 126v348q0 71 18.5 126t48 88.5t71 55
t82.5 29.5t87 8h123l21 -20v-205l-21 -20h-61q-46 0 -64 -18t-18 -64v-328q0 -110 -34 -170.5t-109 -75.5z" />
    <glyph glyph-name="braceright.case" horiz-adv-x="962" 
d="M471 696v41q-75 15 -109 75.5t-34 170.5v328q0 46 -18 64t-64 18h-62l-20 20v205l20 20h123q46 0 87 -8t82.5 -29.5t71 -55t48 -88.5t18.5 -126v-348q0 -88 41.5 -126t122.5 -38l21 -20v-164l-21 -21q-81 0 -122.5 -37.5t-41.5 -125.5v-349q0 -71 -18.5 -126t-48 -88.5
t-71 -55t-82.5 -29.5t-87 -8h-123l-20 21v204l20 21h62q46 0 64 18t18 64v328q0 110 34 170t109 75z" />
    <glyph glyph-name="exclamdown.case" horiz-adv-x="819" 
d="M266 471l41 471l21 21h164l20 -21l41 -471v-451l-21 -20h-245l-21 20v451zM246 1413l20 21h287l20 -21v-266l-20 -21h-287l-20 21v266z" />
    <glyph glyph-name="guillemotleft.case" horiz-adv-x="1617" 
d="M819 287l-20 -21h-246l-41 21l-328 327l-20 41v123l20 41l328 328l41 20h246l20 -20v-82l-348 -328v-41l348 -327v-82zM1454 287l-20 -21h-246l-41 21l-328 327l-20 41v123l20 41l328 328l41 20h246l20 -20v-82l-348 -328v-41l348 -327v-82z" />
    <glyph glyph-name="periodcentered.case" horiz-adv-x="655" 
d="M492 594l-21 -21h-287l-20 21v266l20 21h287l21 -21v-266z" />
    <glyph glyph-name="guillemotright.case" horiz-adv-x="1617" 
d="M819 266l-20 21v82l348 327v41l-348 328v82l20 20h246l41 -20l328 -328l20 -41v-123l-20 -41l-328 -327l-41 -21h-246zM184 266l-20 21v82l348 327v41l-348 328v82l20 20h246l41 -20l328 -328l20 -41v-123l-20 -41l-328 -327l-41 -21h-246z" />
    <glyph glyph-name="questiondown.case" horiz-adv-x="1310" 
d="M164 389q0 87 32.5 159.5t78 118t114.5 91.5q89 59 116 100t27 105l21 20h246l20 -20q0 -205 -184 -328q-98 -66 -141 -119.5t-43 -126.5q0 -68 52 -116t152 -48q108 0 156.5 52t48.5 174l21 20h245l21 -20q0 -102 -28.5 -186t-86.5 -148.5t-154 -100.5t-223 -36t-223 32
t-153.5 88.5t-86 129t-28.5 159.5zM512 1413l20 21h287l21 -21v-266l-21 -21h-287l-20 21v266z" />
    <glyph glyph-name="endash.case" horiz-adv-x="1269" 
d="M1147 635l-21 -21h-983l-20 21v205l20 20h983l21 -20v-205z" />
    <glyph glyph-name="emdash.case" horiz-adv-x="2293" 
d="M2171 635l-21 -21h-2007l-20 21v205l20 20h2007l21 -20v-205z" />
    <glyph glyph-name="bullet.case" horiz-adv-x="962" 
d="M799 737v-20l-307 -307h-21l-307 307v20l307 307h21z" />
    <glyph glyph-name="guilsinglleft.case" horiz-adv-x="983" 
d="M819 287l-20 -21h-246l-41 21l-328 327l-20 41v123l20 41l328 328l41 20h246l20 -20v-82l-348 -328v-41l348 -327v-82z" />
    <glyph glyph-name="guilsinglright.case" horiz-adv-x="983" 
d="M184 266l-20 21v82l348 327v41l-348 328v82l20 20h246l41 -20l328 -328l20 -41v-123l-20 -41l-328 -327l-41 -21h-246z" />
    <glyph glyph-name="zero.zero" horiz-adv-x="1228" 
d="M82 717q0 194 39.5 338.5t112 230.5t167.5 127t213 41t213 -41t168 -127t112.5 -230.5t39.5 -338.5t-39.5 -338.5t-112.5 -230.5t-168 -127t-213 -41t-213 41t-167.5 127t-112 230.5t-39.5 338.5zM369 717v-103h20l389 492v20q-2 3 -5.5 8.5t-17 20t-30.5 25t-47 19.5
t-64 9q-85 0 -137.5 -45.5t-80 -154.5t-27.5 -291zM860 717v102h-20l-389 -491v-21q2 -3 5 -8.5t17 -20t30.5 -25t46.5 -19.5t64 -9q85 0 137.5 45.5t80.5 155t28 291.5z" />
    <glyph glyph-name="quotedbl.ss01" horiz-adv-x="696" 
d="M532 819l-20 -20h-20l-21 20v594l21 21h20l20 -21v-594zM225 819l-20 -20h-21l-20 20v594l20 21h21l20 -21v-594z" />
    <glyph glyph-name="numbersign.ss01" horiz-adv-x="1228" 
d="M696 41l62 348l-21 21h-368l-21 -21l-61 -369l-21 -20h-20l-21 20v21l62 348l-21 21h-184l-21 20v21l21 20h205l20 21l82 450l-20 21h-185l-20 20v21l20 20h205l21 20l61 369l21 21h20l20 -21v-20l-61 -349l21 -20h368l21 20l61 369l21 21h20l21 -21v-20l-62 -349l21 -20
h184l20 -20v-21l-20 -20h-205l-20 -21l-82 -450l20 -21h184l21 -20v-21l-21 -20h-204l-21 -21l-61 -369l-21 -20h-20l-21 20v21zM471 963l-20 -21l-82 -450l20 -21h369l20 21l82 450l-20 21h-369z" />
    <glyph glyph-name="quotesingle.ss01" horiz-adv-x="389" 
d="M225 819l-20 -20h-21l-20 20v594l20 21h21l20 -21v-594z" />
    <glyph glyph-name="parenleft.ss01" horiz-adv-x="819" 
d="M225 512q0 -133 1 -201t21.5 -151.5t36.5 -120t80 -118t114.5 -133t176.5 -177.5v-21h-41l-41 21q-119 119 -167.5 168t-109.5 128.5t-76 116t-34.5 122t-20.5 156.5t-1 210t1 210t20.5 156.5t34.5 122t76 116t109.5 128.5t167.5 168l41 21h41v-21
q-126 -126 -176.5 -177.5t-114.5 -133t-80 -118t-36.5 -120t-21.5 -151.5t-1 -201z" />
    <glyph glyph-name="parenright.ss01" horiz-adv-x="819" 
d="M594 512q0 133 -1 201t-21.5 151.5t-36.5 120t-80 118t-114.5 133t-176.5 177.5v21h41l41 -21q119 -119 167.5 -168t109.5 -128.5t76 -116t34.5 -122t20.5 -156.5t1 -210t-1 -210t-20.5 -156.5t-34.5 -122t-76 -116t-109.5 -128.5t-167.5 -168l-41 -21h-41v21
q126 126 176.5 177.5t114.5 133t80 118t36.5 120t21.5 151.5t1 201z" />
    <glyph glyph-name="slash.ss01" horiz-adv-x="1003" 
d="M922 1372l-799 -1352l-21 -20h-20v61l799 1352l20 21h21v-62z" />
    <glyph glyph-name="bracketleft.ss01" horiz-adv-x="696" 
d="M532 -389l-20 -21h-328l-20 21v1802l20 21h328l20 -21v-20l-20 -21h-266l-21 -20v-1680l21 -20h266l20 -21v-20z" />
    <glyph glyph-name="backslash.ss01" horiz-adv-x="1003" 
d="M881 20l-799 1352v62h20l21 -21l799 -1352v-61h-21z" />
    <glyph glyph-name="bracketright.ss01" horiz-adv-x="696" 
d="M184 -410l-20 21v20l20 21h267l20 20v1680l-20 20h-267l-20 21v20l20 21h328l20 -21v-1802l-20 -21h-328z" />
    <glyph glyph-name="underscore.ss01" 
d="M1106 -41l-21 -20h-983l-20 20v21l20 20h983l21 -20v-21z" />
    <glyph glyph-name="braceleft.ss01" horiz-adv-x="860" 
d="M307 532v-20q44 -15 63 -60t19 -124v-471q0 -104 54.5 -154.5t150.5 -50.5h82l20 -21v-20l-20 -21h-82q-115 0 -190.5 68t-75.5 199v471q0 91 -33 127.5t-111 36.5l-20 20v20l20 21q78 0 111 36.5t33 127.5v450q0 131 75.5 199t190.5 68h82l20 -21v-20l-20 -21h-82
q-96 0 -150.5 -50.5t-54.5 -154.5v-450q0 -80 -19 -125t-63 -60z" />
    <glyph glyph-name="bar.ss01" horiz-adv-x="552" 
d="M307 -389l-20 -21h-21l-20 21v1802l20 21h21l20 -21v-1802z" />
    <glyph glyph-name="braceright.ss01" horiz-adv-x="860" 
d="M553 512v20q-44 15 -63 60t-19 125v450q0 104 -54.5 154.5t-150.5 50.5h-82l-20 21v20l20 21h82q115 0 190.5 -68t75.5 -199v-450q0 -91 33 -127.5t111 -36.5l20 -21v-20l-20 -20q-78 0 -111 -36.5t-33 -127.5v-471q0 -131 -75.5 -199t-190.5 -68h-82l-20 21v20l20 21h82
q96 0 150.5 50.5t54.5 154.5v471q0 79 19 124t63 60z" />
    <glyph glyph-name="guillemotleft.ss01" horiz-adv-x="1208" 
d="M655 61h-41l-41 21l-409 410v40l409 410l41 21h41v-21l-409 -410v-40l409 -410v-21zM1044 61h-40l-41 21l-410 410v40l410 410l41 21h40v-21l-409 -410v-40l409 -410v-21z" />
    <glyph glyph-name="logicalnot.ss01" 
d="M1024 205l-20 -21h-21l-20 21v266l-21 21h-799l-20 20v20l20 21h861l20 -21v-327z" />
    <glyph glyph-name="degree.ss01" horiz-adv-x="1146" 
d="M164 1044q0 169 120 289.5t289 120.5t289.5 -120.5t120.5 -289.5t-120.5 -289t-289.5 -120t-289 120t-120 289zM246 1044q0 -138 94.5 -232.5t232.5 -94.5t233 94.5t95 232.5t-95 233t-233 95t-232.5 -95t-94.5 -233z" />
    <glyph glyph-name="guillemotright.ss01" horiz-adv-x="1208" 
d="M594 61h-41v21l410 410v40l-410 410v21h41l41 -21l409 -410v-40l-409 -410zM205 61h-41v21l409 410v40l-409 410v21h41l41 -21l409 -410v-40l-409 -410z" />
    <glyph glyph-name="endash.ss01" horiz-adv-x="1269" 
d="M1147 512l-21 -20h-983l-20 20v20l20 21h983l21 -21v-20z" />
    <glyph glyph-name="emdash.ss01" horiz-adv-x="2293" 
d="M2171 512l-21 -20h-2007l-20 20v20l20 21h2007l21 -21v-20z" />
    <glyph glyph-name="quoteleft.ss01" horiz-adv-x="491" 
d="M143 1188l21 61l102 164l21 21h41v-21l-103 -184v-21l21 -20h41l20 -21v-204l-20 -21h-123l-21 21v225z" />
    <glyph glyph-name="quoteright.ss01" horiz-adv-x="491" 
d="M348 1188l-20 -62l-103 -163l-20 -21h-41v21l102 184v20l-20 21h-41l-21 20v205l21 21h123l20 -21v-225z" />
    <glyph glyph-name="quotesinglbase.ss01" horiz-adv-x="491" 
d="M328 0l-21 -61l-102 -164l-21 -21h-41v21l103 184v21l-21 20h-41l-20 20v205l20 21h123l21 -21v-225z" />
    <glyph glyph-name="quotedblleft.ss01" horiz-adv-x="819" 
d="M471 1188l21 61l102 164l20 21h41v-21l-102 -184v-21l20 -20h41l21 -21v-204l-21 -21h-122l-21 21v225zM143 1188l21 61l102 164l21 21h41v-21l-103 -184v-21l21 -20h41l20 -21v-204l-20 -21h-123l-21 21v225z" />
    <glyph glyph-name="quotedblright.ss01" horiz-adv-x="819" 
d="M348 1188l-20 -62l-103 -163l-20 -21h-41v21l102 184v20l-20 21h-41l-21 20v205l21 21h123l20 -21v-225zM676 1188l-21 -62l-102 -163l-21 -21h-40v21l102 184v20l-21 21h-41l-20 20v205l20 21h123l21 -21v-225z" />
    <glyph glyph-name="quotedblbase.ss01" horiz-adv-x="819" 
d="M328 0l-21 -61l-102 -164l-21 -21h-41v21l103 184v21l-21 20h-41l-20 20v205l20 21h123l21 -21v-225zM655 0l-20 -61l-103 -164l-20 -21h-41v21l102 184v21l-20 20h-41l-20 20v205l20 21h123l20 -21v-225z" />
    <glyph glyph-name="guilsinglleft.ss01" horiz-adv-x="819" 
d="M655 61h-41l-41 21l-409 410v40l409 410l41 21h41v-21l-409 -410v-40l409 -410v-21z" />
    <glyph glyph-name="guilsinglright.ss01" horiz-adv-x="819" 
d="M205 61h-41v21l409 410v40l-409 410v21h41l41 -21l409 -410v-40l-409 -410z" />
    <glyph glyph-name="arrowleft.ss01" horiz-adv-x="1761" 
d="M696 0l-41 20l-491 492v20l491 492l41 20h41v-20l-450 -451v-20h1290l20 -21v-20l-20 -20h-1290v-21l450 -451v-20h-41z" />
    <glyph glyph-name="arrowup.ss01" horiz-adv-x="1372" 
d="M1188 942l20 -41v-41h-20l-451 451h-20v-1291l-21 -20h-20l-21 20v1291h-20l-451 -451h-20v41l20 41l492 492h20z" />
    <glyph glyph-name="arrowright.ss01" horiz-adv-x="1761" 
d="M1106 20l-41 -20h-41v20l451 451v21h-1291l-20 20v20l20 21h1291v20l-451 451v20h41l41 -20l491 -492v-20z" />
    <glyph glyph-name="arrowdown.ss01" horiz-adv-x="1372" 
d="M1208 532l-20 -40l-492 -492h-20l-492 492l-20 40v41h20l451 -450h20v1290l21 21h20l21 -21v-1290h20l451 450h20v-41z" />
    <glyph glyph-name="arrowboth.ss01" horiz-adv-x="2170" 
d="M655 1024l41 20h41v-20l-450 -451v-20h1597v20l-450 451v20h41l41 -20l491 -492v-20l-491 -492l-41 -20h-41v20l450 451v21h-1597v-21l450 -451v-20h-41l-41 20l-491 492v20z" />
    <glyph glyph-name="arrowupdn.ss01" horiz-adv-x="1372" 
d="M184 82l-20 41v41h20l451 -451h20v1598h-20l-451 -451h-20v41l20 41l492 492h20l492 -492l20 -41v-41h-20l-451 451h-20v-1598h20l451 451h20v-41l-20 -41l-492 -492h-20z" />
    <glyph glyph-name="uni2196.ss01" horiz-adv-x="1351" 
d="M860 1434l41 -21l21 -20v-21h-635v-20l901 -901v-21l-21 -20h-20l-901 901h-21v-635h-20l-21 20l-20 41v676l20 21h676z" />
    <glyph glyph-name="uni2197.ss01" horiz-adv-x="1351" 
d="M451 1413l41 21h675l21 -21v-676l-21 -41l-20 -20h-21v635h-20l-901 -901h-21l-20 20v21l901 901v20h-635v21z" />
    <glyph glyph-name="uni2198.ss01" horiz-adv-x="1351" 
d="M901 20l-41 -20h-676l-20 20v676l20 41l21 21h20v-635h21l901 901h20l21 -20v-21l-901 -901v-21h635v-20z" />
    <glyph glyph-name="uni2199.ss01" horiz-adv-x="1351" 
d="M492 0l-41 20l-21 21v20h635v21l-901 901v21l20 20h21l901 -901h20v635h21l20 -21l21 -41v-676l-21 -20h-675z" />
    <glyph glyph-name="a.ss02" horiz-adv-x="1208" 
d="M1085 20l-20 -20h-225l-21 20l-20 62h-21q-3 -4 -8 -11t-25.5 -24.5t-46 -31t-70 -24.5t-96.5 -11q-213 0 -342 149.5t-129 382.5t129 382.5t342 149.5q52 0 96 -10.5t70.5 -25.5t45.5 -30t26 -26l8 -10h21l20 62l21 20h225l20 -20v-984zM348 512q0 -132 54 -209.5
t171 -77.5t171.5 77.5t54.5 209.5t-54.5 209.5t-171.5 77.5t-171 -77.5t-54 -209.5z" />
    <glyph glyph-name="agrave.ss02" horiz-adv-x="1208" 
d="M778 1167l-20 -20h-185l-41 20l-225 205v41l21 21h204l41 -21l205 -205v-41zM1085 20l-20 -20h-225l-21 20l-20 62h-21q-3 -4 -8 -11t-25.5 -24.5t-46 -31t-70 -24.5t-96.5 -11q-213 0 -342 149.5t-129 382.5t129 382.5t342 149.5q52 0 96 -10.5t70.5 -25.5t45.5 -30
t26 -26l8 -10h21l20 62l21 20h225l20 -20v-984zM348 512q0 -132 54 -209.5t171 -77.5t171.5 77.5t54.5 209.5t-54.5 209.5t-171.5 77.5t-171 -77.5t-54 -209.5z" />
    <glyph glyph-name="aacute.ss02" horiz-adv-x="1208" 
d="M819 1372l-225 -205l-41 -20h-184l-21 20v41l205 205l41 21h205l20 -21v-41zM1085 20l-20 -20h-225l-21 20l-20 62h-21q-3 -4 -8 -11t-25.5 -24.5t-46 -31t-70 -24.5t-96.5 -11q-213 0 -342 149.5t-129 382.5t129 382.5t342 149.5q52 0 96 -10.5t70.5 -25.5t45.5 -30
t26 -26l8 -10h21l20 62l21 20h225l20 -20v-984zM348 512q0 -132 54 -209.5t171 -77.5t171.5 77.5t54.5 209.5t-54.5 209.5t-171.5 77.5t-171 -77.5t-54 -209.5z" />
    <glyph glyph-name="acircumflex.ss02" horiz-adv-x="1208" 
d="M942 1167l-20 -20h-164l-41 20l-123 103h-41l-123 -103l-41 -20h-164l-20 20v41l205 205l41 21h245l41 -21l205 -205v-41zM1085 20l-20 -20h-225l-21 20l-20 62h-21q-3 -4 -8 -11t-25.5 -24.5t-46 -31t-70 -24.5t-96.5 -11q-213 0 -342 149.5t-129 382.5t129 382.5
t342 149.5q52 0 96 -10.5t70.5 -25.5t45.5 -30t26 -26l8 -10h21l20 62l21 20h225l20 -20v-984zM348 512q0 -132 54 -209.5t171 -77.5t171.5 77.5t54.5 209.5t-54.5 209.5t-171.5 77.5t-171 -77.5t-54 -209.5z" />
    <glyph glyph-name="atilde.ss02" horiz-adv-x="1208" 
d="M696 1106q-56 0 -102.5 22.5t-71.5 49t-55.5 49t-56.5 22.5q-32 0 -47 -19t-15 -63l-20 -20h-103l-20 20q0 118 64 182t161 64q56 0 102.5 -22.5t72 -49t56 -49t56.5 -22.5q32 0 46.5 18.5t14.5 63.5l21 20h102l21 -20q0 -118 -64.5 -182t-161.5 -64zM1085 20l-20 -20
h-225l-21 20l-20 62h-21q-3 -4 -8 -11t-25.5 -24.5t-46 -31t-70 -24.5t-96.5 -11q-213 0 -342 149.5t-129 382.5t129 382.5t342 149.5q52 0 96 -10.5t70.5 -25.5t45.5 -30t26 -26l8 -10h21l20 62l21 20h225l20 -20v-984zM348 512q0 -132 54 -209.5t171 -77.5t171.5 77.5
t54.5 209.5t-54.5 209.5t-171.5 77.5t-171 -77.5t-54 -209.5z" />
    <glyph glyph-name="adieresis.ss02" horiz-adv-x="1208" 
d="M922 1208l-21 -20h-225l-21 20v205l21 21h225l21 -21v-205zM492 1208l-21 -20h-225l-21 20v205l21 21h225l21 -21v-205zM1085 20l-20 -20h-225l-21 20l-20 62h-21q-3 -4 -8 -11t-25.5 -24.5t-46 -31t-70 -24.5t-96.5 -11q-213 0 -342 149.5t-129 382.5t129 382.5
t342 149.5q52 0 96 -10.5t70.5 -25.5t45.5 -30t26 -26l8 -10h21l20 62l21 20h225l20 -20v-984zM348 512q0 -132 54 -209.5t171 -77.5t171.5 77.5t54.5 209.5t-54.5 209.5t-171.5 77.5t-171 -77.5t-54 -209.5z" />
    <glyph glyph-name="aring.ss02" horiz-adv-x="1208" 
d="M655 1290q0 32 -19 47t-63 15t-62.5 -15t-18.5 -47t18 -46.5t63 -14.5t63.5 14.5t18.5 46.5zM348 1290q0 88 64 136.5t161 48.5t161.5 -48.5t64.5 -136.5t-64 -136t-162 -48q-97 0 -161 48t-64 136zM1085 20l-20 -20h-225l-21 20l-20 62h-21q-3 -4 -8 -11t-25.5 -24.5
t-46 -31t-70 -24.5t-96.5 -11q-213 0 -342 149.5t-129 382.5t129 382.5t342 149.5q52 0 96 -10.5t70.5 -25.5t45.5 -30t26 -26l8 -10h21l20 62l21 20h225l20 -20v-984zM348 512q0 -132 54 -209.5t171 -77.5t171.5 77.5t54.5 209.5t-54.5 209.5t-171.5 77.5t-171 -77.5
t-54 -209.5z" />
    <glyph glyph-name="parenleft.ss03" horiz-adv-x="860" 
d="M164 717v78t6 68t8 57t19 54.5t25 51.5t40 57t50.5 61.5t69.5 74.5t84 87l107 107l41 21h62l20 -21v-205l-76 -76t-56.5 -60.5t-44.5 -53.5t-29 -47.5t-21.5 -50t-10 -54t-7 -67.5t-0.5 -82t0.5 -82t7 -67.5t10 -54.5t21 -50t29 -47.5t45 -53.5t57 -61t75.5 -76v-205
l-20 -20h-62l-41 20q-118 118 -167 167.5t-109.5 121t-76 99.5t-35 86t-20.5 100t-1 123z" />
    <glyph glyph-name="parenright.ss03" horiz-adv-x="798" 
d="M676 717q0 -81 -1 -123t-21 -100t-35 -86t-76 -99.5t-109.5 -120.5t-167.5 -168l-41 -20h-61l-21 20v205l62 62t49.5 51.5t41.5 46t30.5 40t24.5 39t15.5 38.5t12.5 43.5t5.5 47.5t4 57t0.5 67q0 50 -0.5 82t-7 67.5t-10 54t-22 50.5t-29 47.5t-45 53.5t-56.5 60l-76 76
v205l21 21h61l41 -21l4 -4q118 -118 166 -166.5t108.5 -119.5t75.5 -98.5t34.5 -85t20.5 -100t1 -122.5z" />
    <glyph glyph-name="bracketleft.ss03" horiz-adv-x="839" 
d="M676 20l-21 -20h-471l-20 20v1393l20 21h471l21 -21v-205l-21 -20h-184l-20 -21v-901l20 -20h184l21 -21v-205z" />
    <glyph glyph-name="bracketright.ss03" horiz-adv-x="778" 
d="M123 0l-21 20v205l21 21h184l21 20v901l-21 21h-184l-21 20v205l21 21h471l20 -21v-1393l-20 -20h-471z" />
    <glyph glyph-name="braceleft.ss03" horiz-adv-x="962" 
d="M492 737v-41q75 -15 109 -75t34 -170v-123q0 -46 18 -64t64 -18h61l21 -21v-205l-21 -20h-123q-46 0 -87 8t-82.5 29.5t-71 55t-48 88.5t-18.5 126v144q0 88 -41.5 125.5t-122.5 37.5l-20 21v164l20 20q81 0 122.5 38t41.5 126v143q0 88 27 151t73.5 96t97 47t109.5 14
h123l21 -21v-205l-21 -20h-61q-46 0 -64 -18t-18 -64v-123q0 -110 -34 -170.5t-109 -75.5z" />
    <glyph glyph-name="braceright.ss03" horiz-adv-x="962" 
d="M471 696v41q-75 15 -109 75.5t-34 170.5v123q0 46 -18 64t-64 18h-62l-20 20v205l20 21h123q59 0 109.5 -14t97 -47t73.5 -96t27 -151v-143q0 -88 41.5 -126t122.5 -38l21 -20v-164l-21 -21q-81 0 -122.5 -37.5t-41.5 -125.5v-144q0 -71 -18.5 -126t-48 -88.5t-71 -55
t-82.5 -29.5t-87 -8h-123l-20 20v205l20 21h62q46 0 64 18t18 64v123q0 110 34 170t109 75z" />
    <glyph glyph-name="parenleft.ss04" horiz-adv-x="778" 
d="M225 717q0 -65 0.5 -102.5t9.5 -85t14.5 -70t33 -68.5t45 -69t71 -81.5t91.5 -96.5l124 -124v-20h-41l-41 20l-95.5 95.5t-76 79t-62.5 68t-45 58t-36 56t-23 53.5t-17 58t-7.5 63.5t-5.5 76v89.5v89.5t5.5 76t7.5 63.5t17 58t22.5 53t36.5 56t45.5 58t62.5 68t75.5 78.5
l95.5 95.5l41 21h41v-21q-113 -113 -159 -159.5t-104 -115.5t-72 -97t-33 -88t-20 -105t-1 -131z" />
    <glyph glyph-name="parenright.ss04" horiz-adv-x="778" 
d="M553 717q0 86 -1 131t-20 105t-33 88t-72 97t-104 115.5t-159 159.5v21h41l41 -21l95.5 -95.5t75.5 -78.5t62.5 -68t45.5 -58t36.5 -56t22.5 -53t17 -58t7.5 -63.5t5.5 -76v-89.5v-89.5t-5.5 -76t-7.5 -63.5t-17 -58t-23 -53.5t-36 -56t-45 -58t-62.5 -68t-76 -79
l-95.5 -95.5l-41 -20h-41v20l124 124t91.5 96.5t71 81.5t45 69t33 68.5t14.5 70t9.5 85t0.5 102.5z" />
    <glyph glyph-name="bracketleft.ss04" horiz-adv-x="696" 
d="M532 20l-20 -20h-328l-20 20v1393l20 21h328l20 -21v-20l-20 -21h-266l-21 -20v-1270l21 -21h266l20 -20v-21z" />
    <glyph glyph-name="bracketright.ss04" horiz-adv-x="696" 
d="M184 0l-20 20v21l20 20h267l20 21v1270l-20 20h-267l-20 21v20l20 21h328l20 -21v-1393l-20 -20h-328z" />
    <glyph glyph-name="braceleft.ss04" horiz-adv-x="860" 
d="M307 737v-20q44 -15 63 -60t19 -125v-266q0 -104 54.5 -154.5t150.5 -50.5h82l20 -20v-21l-20 -20h-82q-115 0 -190.5 67.5t-75.5 198.5v266q0 91 -33 127.5t-111 36.5l-20 21v20l20 21q78 0 111 36.5t33 127.5v245q0 131 75.5 199t190.5 68h82l20 -21v-20l-20 -21h-82
q-96 0 -150.5 -50.5t-54.5 -154.5v-245q0 -80 -19 -125t-63 -60z" />
    <glyph glyph-name="bar.ss04" horiz-adv-x="552" 
d="M307 20l-20 -20h-21l-20 20v1393l20 21h21l20 -21v-1393z" />
    <glyph glyph-name="braceright.ss04" horiz-adv-x="860" 
d="M553 717v20q-44 15 -63 60t-19 125v245q0 104 -54.5 154.5t-150.5 50.5h-82l-20 21v20l20 21h82q115 0 190.5 -68t75.5 -199v-245q0 -91 33 -127.5t111 -36.5l20 -21v-20l-20 -21q-78 0 -111 -36.5t-33 -127.5v-266q0 -131 -75.5 -198.5t-190.5 -67.5h-82l-20 20v21
l20 20h82q96 0 150.5 50.5t54.5 154.5v266q0 80 19 125t63 60z" />
    <glyph glyph-name="slash.ss05" horiz-adv-x="1515" 
d="M1434 1208l-1188 -1188l-41 -20h-103l-20 20v205l1188 1188l41 21h102l21 -21v-205z" />
    <glyph glyph-name="backslash.ss05" horiz-adv-x="1515" 
d="M1270 20l-1188 1188v205l20 21h103l41 -21l1188 -1188v-205l-21 -20h-102z" />
    <glyph glyph-name="slash.ss06" horiz-adv-x="1597" 
d="M1516 1393l-1373 -1373l-41 -20h-20v41l1372 1372l41 21h21v-41z" />
    <glyph glyph-name="backslash.ss06" horiz-adv-x="1597" 
d="M1454 20l-1372 1373v41h20l41 -21l1373 -1372v-41h-21z" />
    <glyph glyph-name="emdash.ss07" horiz-adv-x="3317" 
d="M3195 430l-21 -20h-3031l-20 20v205l20 20h3031l21 -20v-205z" />
    <glyph glyph-name="emdash.ss08" horiz-adv-x="3317" 
d="M3195 512l-21 -20h-3031l-20 20v20l20 21h3031l21 -21v-20z" />
    <glyph glyph-name="ampersand.ss09" horiz-adv-x="1433" 
d="M1106 1085l-21 -20h-245l-21 20q0 52 -39.5 87.5t-124.5 35.5q-163 0 -163 -143t163 -143h103l20 -21v-205l-20 -20h-82q-107 0 -166 -59t-59 -166q0 -100 54.5 -163t170.5 -63q117 0 171 66t54 180v430l21 21h368l21 -21v-205l-21 -20h-82l-20 -21v-184
q0 -102 -31.5 -189.5t-93 -155.5t-161 -107t-226.5 -39q-239 0 -375.5 132.5t-136.5 338.5q0 70 16 128.5t38.5 95t52.5 64t53 40.5t45 20v20q-25 8 -51.5 27.5t-53 51t-43 80.5t-16.5 107q0 168 124.5 268.5t325.5 100.5t326 -101t125 -268z" />
    <glyph glyph-name="one.ss10" horiz-adv-x="737" 
d="M573 20l-20 -20h-246l-20 20v984l-21 20h-164l-20 20v185l184 184l41 21h246l20 -21v-1393z" />
    <glyph glyph-name="orn001" horiz-adv-x="1351" 
d="M1188 -389l-21 -21h-983l-20 21v1802l20 21h983l21 -21v-1802zM410 1167v-1310l20 -21h492l20 21v1310l-20 21h-492z" />
    <glyph glyph-name="orn002" horiz-adv-x="1351" 
d="M1188 -389l-21 -21h-983l-20 21v1802l20 21h983l21 -21v-1802z" />
    <glyph glyph-name="orn003" horiz-adv-x="1351" 
d="M1188 20l-21 -20h-983l-20 20v1393l20 21h983l21 -21v-1393zM410 1167v-901l20 -20h492l20 20v901l-20 21h-492z" />
    <glyph glyph-name="orn004" horiz-adv-x="1351" 
d="M1188 20l-21 -20h-983l-20 20v1393l20 21h983l21 -21v-1393z" />
    <glyph glyph-name="orn005" horiz-adv-x="1351" 
d="M1188 20l-21 -20h-983l-20 20v984l20 20h983l21 -20v-984zM410 758v-492l20 -20h492l20 20v492l-20 20h-492z" />
    <glyph glyph-name="orn006" horiz-adv-x="1351" 
d="M1188 20l-21 -20h-983l-20 20v984l20 20h983l21 -20v-984z" />
    <glyph glyph-name="orn007" horiz-adv-x="1351" 
d="M1188 -389l-21 -21h-983l-20 21v1802l20 21h983l21 -21v-1802zM225 1352v-1680l21 -20h860l20 20v1680l-20 20h-860z" />
    <glyph glyph-name="orn008" horiz-adv-x="1351" 
d="M1188 20l-21 -20h-983l-20 20v1393l20 21h983l21 -21v-1393zM225 1352v-1270l21 -21h860l20 21v1270l-20 20h-860z" />
    <glyph glyph-name="orn009" horiz-adv-x="1351" 
d="M1188 20l-21 -20h-983l-20 20v984l20 20h983l21 -20v-984zM225 942v-860l21 -21h860l20 21v860l-20 21h-860z" />
    <glyph glyph-name="orn010" horiz-adv-x="1351" 
d="M1188 -389l-21 -21h-983l-20 21v1802l20 21h983l21 -21v-1802zM1106 -287h20v1598h-20l-389 -779v-40zM246 1311h-21v-1598h21l389 779v40zM287 1372v-20l368 -738h41l369 738v20h-778zM1065 -328l-369 738h-41l-368 -738v-20h778v20z" />
    <glyph glyph-name="orn011" horiz-adv-x="1351" 
d="M1188 20l-21 -20h-983l-20 20v1393l20 21h983l21 -21v-1393zM737 676l369 -553h20v1188h-20l-369 -553v-82zM246 1311h-21v-1188h21l368 553v82zM696 799l369 553v20h-778v-20l368 -553h41zM287 82v-21h778v21l-369 553h-41z" />
    <glyph glyph-name="orn012" horiz-adv-x="1351" 
d="M1188 20l-21 -20h-983l-20 20v984l20 20h983l21 -20v-984zM737 492l369 -369h20v778h-20l-369 -369v-40zM246 901h-21v-778h21l368 369v40zM696 573l369 369v21h-778v-21l368 -369h41zM287 82v-21h778v21l-369 369h-41z" />
    <glyph glyph-name="orn013" horiz-adv-x="1351" 
d="M164 20l20 -20h-20v20zM205 0l-41 41v20l61 -61h-20zM246 0l-82 82v20l102 -102h-20zM287 0l-123 123v20l143 -143h-20zM328 0l-164 164v20l184 -184h-20zM369 0l-205 205v20l225 -225h-20zM410 0l-246 246v20l266 -266h-20zM451 0l-287 287v20l307 -307h-20zM492 0
l-328 328v20l348 -348h-20zM532 0l-368 369v20l389 -389h-21zM573 0l-409 410v20l430 -430h-21zM614 0l-450 451v20l471 -471h-21zM655 0l-491 492v20l512 -512h-21zM696 0l-532 532v21l553 -553h-21zM737 0l-573 573v21l594 -594h-21zM778 0l-614 614v21l635 -635h-21z
M819 0l-655 655v21l676 -676h-21zM860 0l-696 696v21l717 -717h-21zM901 0l-737 737v21l758 -758h-21zM942 0l-778 778v21l799 -799h-21zM983 0l-819 819v21l840 -840h-21zM1024 0l-860 860v21l880 -881h-20zM1065 0l-901 901v21l921 -922h-20zM1106 0l-942 942v21l962 -963
h-20zM1147 0l-983 983v21l1003 -1004h-20zM1188 0l-1024 1024v20l1024 -1024v-20zM1188 41l-1024 1024v20l1024 -1024v-20zM1188 82l-1024 1024v20l1024 -1024v-20zM1188 123l-1024 1024v20l1024 -1024v-20zM1188 164l-1024 1024v20l1024 -1024v-20zM1188 205l-1024 1024v20
l1024 -1024v-20zM1188 246l-1024 1024v20l1024 -1024v-20zM1188 287l-1024 1024v20l1024 -1024v-20zM1188 328l-1024 1024v20l1024 -1024v-20zM1188 369l-1024 1024v20l1024 -1024v-20zM1188 410l-1024 1024h20l1004 -1004v-20zM1167 1434l21 -21v-20l-41 41h20zM1126 1434
l62 -62v-20l-82 82h20zM1085 1434l103 -103v-20l-123 123h20zM1044 1434l144 -144v-20l-164 164h20zM1004 1434l184 -185v-20l-205 205h21zM963 1434l225 -226v-20l-246 246h21zM922 1434l266 -267v-20l-287 287h21zM881 1434l307 -308v-20l-328 328h21zM840 1434l348 -349
v-20l-369 369h21zM799 1434l389 -390v-20l-410 410h21zM758 1434l430 -430v-21l-451 451h21zM717 1434l471 -471v-21l-492 492h21zM676 1434l512 -512v-21l-533 533h21zM635 1434l553 -553v-21l-574 574h21zM594 1434l594 -594v-21l-615 615h21zM553 1434l635 -635v-21
l-656 656h21zM512 1434l676 -676v-21l-696 697h20zM471 1434l717 -717v-21l-737 738h20zM430 1434l758 -758v-21l-778 779h20zM389 1434l799 -799v-21l-819 820h20zM348 1434l840 -840v-21l-860 861h20zM307 1434l881 -881v-21l-901 902h20zM266 1434l922 -922v-20l-942 942
h20zM225 1434l963 -963v-20l-983 983h20z" />
    <glyph glyph-name="orn014" horiz-adv-x="1351" 
d="M1188 1413l-21 21h21v-21zM1147 1434l41 -41v-21l-62 62h21zM1106 1434l82 -82v-21l-103 103h21zM1065 1434l123 -123v-21l-144 144h21zM1024 1434l164 -164v-21l-184 185h20zM983 1434l205 -205v-21l-225 226h20zM942 1434l246 -246v-21l-266 267h20zM901 1434l287 -287
v-21l-307 308h20zM860 1434l328 -328v-21l-348 349h20zM819 1434l369 -369v-21l-389 390h20zM778 1434l410 -410v-20l-430 430h20zM737 1434l451 -451v-20l-471 471h20zM696 1434l492 -492v-20l-512 512h20zM655 1434l533 -533v-20l-553 553h20zM614 1434l574 -574v-20
l-594 594h20zM573 1434l615 -615v-20l-635 635h20zM532 1434l656 -656v-20l-676 676h20zM492 1434l696 -697v-20l-717 717h21zM451 1434l737 -738v-20l-758 758h21zM410 1434l778 -779v-20l-799 799h21zM369 1434l819 -820v-20l-840 840h21zM328 1434l860 -861v-20l-881 881
h21zM287 1434l901 -902v-20l-922 922h21zM246 1434l942 -942v-21l-963 963h21zM205 1434l983 -983v-21l-1004 1004h21zM164 1434l1024 -1024v-21l-1024 1024v21zM164 1393l1024 -1024v-21l-1024 1024v21zM164 1352l1024 -1024v-21l-1024 1024v21zM164 1311l1024 -1024v-21
l-1024 1024v21zM164 1270l1024 -1024v-21l-1024 1024v21zM164 1229l1024 -1024v-21l-1024 1024v21zM164 1188l1024 -1024v-21l-1024 1024v21zM164 1147l1024 -1024v-21l-1024 1024v21zM164 1106l1024 -1024v-21l-1024 1024v21zM164 1065l1024 -1024v-21l-1024 1024v21z
M164 1024l1024 -1024h-21l-1003 1004v20zM184 0l-20 20v21l41 -41h-21zM225 0l-61 61v21l82 -82h-21zM266 0l-102 102v21l123 -123h-21zM307 0l-143 143v21l164 -164h-21zM348 0l-184 184v21l205 -205h-21zM389 0l-225 225v21l246 -246h-21zM430 0l-266 266v21l287 -287h-21
zM471 0l-307 307v21l328 -328h-21zM512 0l-348 348v21l368 -369h-20zM553 0l-389 389v21l409 -410h-20zM594 0l-430 430v21l450 -451h-20zM635 0l-471 471v21l491 -492h-20zM676 0l-512 512v20l532 -532h-20zM717 0l-553 553v20l573 -573h-20zM758 0l-594 594v20l614 -614
h-20zM799 0l-635 635v20l655 -655h-20zM840 0l-676 676v20l696 -696h-20zM881 0l-717 717v20l737 -737h-20zM922 0l-758 758v20l778 -778h-20zM963 0l-799 799v20l819 -819h-20zM1004 0l-840 840v20l860 -860h-20zM1044 0l-880 881v20l901 -901h-21zM1085 0l-921 922v20
l942 -942h-21zM1126 0l-962 963v20l983 -983h-21z" />
    <glyph glyph-name="orn015" horiz-adv-x="1351" 
d="M1167 0l21 20v-20h-21zM1188 41l-41 -41h-21l62 61v-20zM1188 82l-82 -82h-21l103 102v-20zM1188 123l-123 -123h-21l144 143v-20zM1188 164l-164 -164h-20l184 184v-20zM1188 205l-205 -205h-20l225 225v-20zM1188 246l-246 -246h-20l266 266v-20zM1188 287l-287 -287
h-20l307 307v-20zM1188 328l-328 -328h-20l348 348v-20zM1188 369l-369 -369h-20l389 389v-20zM1188 410l-410 -410h-20l430 430v-20zM1188 451l-451 -451h-20l471 471v-20zM1188 492l-492 -492h-20l512 512v-20zM1188 532l-533 -532h-20l553 553v-21zM1188 573l-574 -573
h-20l594 594v-21zM1188 614l-615 -614h-20l635 635v-21zM1188 655l-656 -655h-20l676 676v-21zM1188 696l-696 -696h-21l717 717v-21zM1188 737l-737 -737h-21l758 758v-21zM1188 778l-778 -778h-21l799 799v-21zM1188 819l-819 -819h-21l840 840v-21zM1188 860l-860 -860
h-21l881 881v-21zM1188 901l-901 -901h-21l922 922v-21zM1188 942l-942 -942h-21l963 963v-21zM1188 983l-983 -983h-21l1004 1004v-21zM1188 1024l-1024 -1024v20l1024 1024v-20zM1188 1065l-1024 -1024v20l1024 1024v-20zM1188 1106l-1024 -1024v20l1024 1024v-20z
M1188 1147l-1024 -1024v20l1024 1024v-20zM1188 1188l-1024 -1024v20l1024 1024v-20zM1188 1229l-1024 -1024v20l1024 1024v-20zM1188 1270l-1024 -1024v20l1024 1024v-20zM1188 1311l-1024 -1024v20l1024 1024v-20zM1188 1352l-1024 -1024v20l1024 1024v-20zM1188 1393
l-1024 -1024v20l1024 1024v-20zM1188 1434l-1024 -1024v20l1003 1004h21zM164 1413l20 21h21l-41 -41v20zM164 1372l61 62h21l-82 -82v20zM164 1331l102 103h21l-123 -123v20zM164 1290l143 144h21l-164 -164v20zM164 1249l184 185h21l-205 -205v20zM164 1208l225 226h21
l-246 -246v20zM164 1167l266 267h21l-287 -287v20zM164 1126l307 308h21l-328 -328v20zM164 1085l348 349h20l-368 -369v20zM164 1044l389 390h20l-409 -410v20zM164 1004l430 430h20l-450 -451v21zM164 963l471 471h20l-491 -492v21zM164 922l512 512h20l-532 -533v21z
M164 881l553 553h20l-573 -574v21zM164 840l594 594h20l-614 -615v21zM164 799l635 635h20l-655 -656v21zM164 758l676 676h20l-696 -697v21zM164 717l717 717h20l-737 -738v21zM164 676l758 758h20l-778 -779v21zM164 635l799 799h20l-819 -820v21zM164 594l840 840h20
l-860 -861v21zM164 553l880 881h21l-901 -902v21zM164 512l921 922h21l-942 -942v20zM164 471l962 963h21l-983 -983v20z" />
    <glyph glyph-name="orn016" horiz-adv-x="1351" 
d="M184 1434l-20 -21v21h20zM164 1393l41 41h20l-61 -62v21zM164 1352l82 82h20l-102 -103v21zM164 1311l123 123h20l-143 -144v21zM164 1270l164 164h20l-184 -185v21zM164 1229l205 205h20l-225 -226v21zM164 1188l246 246h20l-266 -267v21zM164 1147l287 287h20
l-307 -308v21zM164 1106l328 328h20l-348 -349v21zM164 1065l368 369h21l-389 -390v21zM164 1024l409 410h21l-430 -430v20zM164 983l450 451h21l-471 -471v20zM164 942l491 492h21l-512 -512v20zM164 901l532 533h21l-553 -553v20zM164 860l573 574h21l-594 -594v20z
M164 819l614 615h21l-635 -635v20zM164 778l655 656h21l-676 -676v20zM164 737l696 697h21l-717 -717v20zM164 696l737 738h21l-758 -758v20zM164 655l778 779h21l-799 -799v20zM164 614l819 820h21l-840 -840v20zM164 573l860 861h20l-880 -881v20zM164 532l901 902h20
l-921 -922v20zM164 492l942 942h20l-962 -963v21zM164 451l983 983h20l-1003 -1004v21zM164 410l1024 1024v-21l-1024 -1024v21zM164 369l1024 1024v-21l-1024 -1024v21zM164 328l1024 1024v-21l-1024 -1024v21zM164 287l1024 1024v-21l-1024 -1024v21zM164 246l1024 1024
v-21l-1024 -1024v21zM164 205l1024 1024v-21l-1024 -1024v21zM164 164l1024 1024v-21l-1024 -1024v21zM164 123l1024 1024v-21l-1024 -1024v21zM164 82l1024 1024v-21l-1024 -1024v21zM164 41l1024 1024v-21l-1024 -1024v21zM164 0l1024 1024v-20l-1004 -1004h-20zM1188 20
l-21 -20h-20l41 41v-21zM1188 61l-62 -61h-20l82 82v-21zM1188 102l-103 -102h-20l123 123v-21zM1188 143l-144 -143h-20l164 164v-21zM1188 184l-184 -184h-21l205 205v-21zM1188 225l-225 -225h-21l246 246v-21zM1188 266l-266 -266h-21l287 287v-21zM1188 307l-307 -307
h-21l328 328v-21zM1188 348l-348 -348h-21l369 369v-21zM1188 389l-389 -389h-21l410 410v-21zM1188 430l-430 -430h-21l451 451v-21zM1188 471l-471 -471h-21l492 492v-21zM1188 512l-512 -512h-21l533 532v-20zM1188 553l-553 -553h-21l574 573v-20zM1188 594l-594 -594
h-21l615 614v-20zM1188 635l-635 -635h-21l656 655v-20zM1188 676l-676 -676h-20l696 696v-20zM1188 717l-717 -717h-20l737 737v-20zM1188 758l-758 -758h-20l778 778v-20zM1188 799l-799 -799h-20l819 819v-20zM1188 840l-840 -840h-20l860 860v-20zM1188 881l-881 -881
h-20l901 901v-20zM1188 922l-922 -922h-20l942 942v-20zM1188 963l-963 -963h-20l983 983v-20z" />
    </font>
</defs>
</svg>
